<?xml version="1.0" standalone="no"?>
<!DOCTYPE svg PUBLIC "-//W3C//DTD SVG 1.1//EN" "http://www.w3.org/Graphics/SVG/1.1/DTD/svg11.dtd" >
<svg xmlns="http://www.w3.org/2000/svg">
<metadata>
This is a custom SVG webfont generated by Font Squirrel.
Copyright   : Copyright c Typographer Mediengestaltung 2000 All rights reserved
</metadata>
<defs>
<font id="PackardAntiqueBold" horiz-adv-x="499" >
<font-face units-per-em="1000" ascent="800" descent="-200" />
<missing-glyph horiz-adv-x="420" />
<glyph unicode=" "  horiz-adv-x="420" />
<glyph unicode="&#x09;" horiz-adv-x="420" />
<glyph unicode="&#xa0;" horiz-adv-x="420" />
<glyph unicode="!" horiz-adv-x="210" d="M96 776q-22 -7 -24 -43q-1 -11 0 -29t5 -42l11 -81q0 -6 2 -21t2 -21l2 -74q0 -6 3.5 -17.5t3.5 -16.5v-30q0 -5 4 -11.5t3 -15.5l-2 -32q-1 -10 -0.5 -25.5t2.5 -38.5q3 -52 9 -58q13 -11 23 -5t12 23q1 6 1 12v11q0 3 1.5 9t2.5 14q1 10 1.5 16t0.5 9q9 36 12 58 q4 31 6.5 53.5t4.5 36.5l6 26q5 32 3 46l2 36q1 9 1 14v6l13 65q5 23 3 61q-3 46 -16 56q-21 18 -38 20q-5 0 -12.5 -1t-16.5 -3t-17 -4t-14 -3zM104 110q-51 -13 -46 -62q4 -34 37 -49q13 -7 39 -7q24 -2 35 6q35 20 39 55q3 31 -25 53q-16 13 -34 13q-12 0 -45 -9z" />
<glyph unicode="&#x22;" horiz-adv-x="287" d="M127 486l23 187q4 31 6 49.5t2 25.5q0 46 -20 58q-24 15 -45 2q-20 -12 -20 -55q0 1 2.5 -19.5t7.5 -62.5l23 -185h21zM247 486l22 187q4 32 5.5 50.5t1.5 23.5q0 47 -19 59q-25 16 -44 2q-21 -14 -21 -58q0 -10 9 -79l25 -185h21z" />
<glyph unicode="#" horiz-adv-x="608" d="M291 794q-8 -2 -12 -18q-2 -6 -3 -12t-3 -13q-8 -22 -14 -48.5t-11 -57.5q-9 -62 -12 -75q-5 -24 -10 -24h-32t-27 1q-42 2 -46 -1q-8 -17 -10 -30q-8 -30 -6 -33q55 -7 109 -9q1 -3 1 -10q0 -11 -11 -35q-13 -24 -16 -39l-7 -38q-2 -6 -12 -5q-18 3 -16 3q-32 -3 -51 -3 q-5 0 -13 3t-11 3t-6 -3q-8 -10 -10 -25q-2 -30 -3 -36q16 -1 32 0q6 0 12.5 -1t9.5 -1t10.5 1t11.5 1l29 -3q-1 1 -7 -37q-5 -24 -9 -45t-8 -38q-2 -8 -7.5 -28.5t-15.5 -53.5q-18 -62 -18 -71q0 -6 3 -7q11 -8 37 -6q10 1 16 2.5t9.5 4.5t5 8.5t3.5 14.5q2 13 4 25l4 24 q5 23 9 39.5t6 27.5q5 16 8.5 28t6.5 22l19 71q0 16 6 16q15 1 28 1q14 0 26 1q40 1 33 3q13 0 41 -5q-1 -9 -2 -18.5t-3 -19.5q-8 -34 -14 -60t-11 -46l-20 -91q-1 -9 -7 -22t-6 -16t3 -4q16 -4 32 -4q-1 0 3.5 -0.5t14.5 -1.5q13 -2 14 2q1 26 11 66q15 55 24 87 q18 70 21 81q2 9 4 15.5t4 11.5q5 17 9 17q23 1 41 1h33q2 0 16 -3q10 -2 15 2q7 5 11 28q6 24 3 35q-1 4 -12.5 5.5t-25.5 1.5q-6 0 -14.5 -1t-17 -1.5t-15.5 -1.5t-10 -1q-6 0 -8 2q-4 5 1 25l8 37q2 6 2.5 10.5t1.5 8.5l15 49q8 1 17 0.5t19 -1.5q23 -2 35 -3l12 -1 q2 1 10 1q9 0 11 4q10 13 14 29q8 29 5 29q-2 0 -7.5 0.5t-14.5 1.5q-21 3 -32 3q-24 1 -51 0q-5 0 -3 9q3 13 3 10q4 23 8 42.5t8 35.5q14 53 24 82q17 63 13 69q-3 7 -13 6q-24 -3 -19 -3q1 0 -18 3q-11 1 -12 -3q-16 -46 -22.5 -71t-8.5 -40l-27 -119q-2 -18 -9 -18 q-12 -1 -24 -1t-25 -1q-26 -2 -41 0q-11 2 -18.5 3t-12.5 2q-6 1 -6 8q0 4 5 16q2 13 5.5 26.5t7.5 28.5l15.5 62t10.5 43t6.5 32.5t4.5 30.5q1 5 -11 7q-9 1 -23.5 -1t-29.5 -5zM253 350l8 51l6 20l7 37q1 1 3 12q1 7 6 7q14 2 32 3t40 1q4 0 11.5 -2t10.5 -2q17 -2 34 0 q4 0 0 -21l-8 -35q-5 -12 -5 -20l-9 -37q0 -14 -7 -14q-27 -5 -38 -6q-4 0 -14 1t-13 1q-14 -1 -25 -1q-10 0 -17 -1q-16 3 -22 6z" />
<glyph unicode="$" horiz-adv-x="493" d="M272 796q-14 -8 -18 -18q-3 -8 -3 -21q-8 -35 -12 -41q-20 -11 -38.5 -19.5t-35.5 -15.5q-17 -8 -42 -27q-13 -10 -20.5 -18t-11.5 -13q-16 -23 -16 -59t15 -70q25 -54 78 -89q16 -11 45 -21q25 -9 30 -16q8 -13 10 -32q0 2 0 -8t-1 -30q1 -23 2 -41t3 -29v-27t-1 -27 q-1 -40 -17 -49q-14 -9 -47 10q-18 10 -51 46q-46 52 -47 52q-12 3 -23 -8q-5 -9 -8 -40q-2 -32 0 -36q12 -47 114 -74l48 -12q19 -8 26 -28q3 -6 1 -28q-1 -14 -1.5 -22.5t-0.5 -10.5q0 -32 26 -32q16 -2 24 15q3 5 1 43q-3 49 -3 39q7 19 55 42q21 10 35.5 18.5t22.5 15.5 q84 76 84 143q0 5 -0.5 10t-1.5 10q-4 26 -23 50q-11 12 -39 36q-32 26 -55 46t-39 34q-27 19 -30 39q-3 13 -3 80v30q0 42 7 49q4 2 18 4q10 0 16 -2q12 -4 17 -9l16 -13q20 -12 33 -8q22 6 35 36q7 14 15 44q-8 15 -28 15q-11 -2 -19 -4t-15 -4q-38 -5 -66 3q-31 9 -33 38 v18q0 9 1 16q-9 20 -29 20zM151 579q5 35 28.5 55t52.5 20q9 0 15 -3q20 -12 19 -85q-2 -53 -29 -67q-17 -10 -37 4q-11 12 -15 18l-11.5 11.5t-8.5 6.5q-16 20 -14 40zM300 299q-2 20 5 28q25 1 53 -21q27 -14 41 -33q7 -12 9 -19.5t2 -16.5q0 -29 -18 -63q-23 -44 -73 -51 q-14 8 -14 20l-3 21q-1 11 -1 22v22v26q1 2 1 17v21z" />
<glyph unicode="%" horiz-adv-x="845" d="M619 673l-33 -16l-33 -21q-29 -17 -50 -18q-8 -2 -23 0q-26 0 -46.5 -5.5t-27.5 -5.5q-18 0 -48 13l-22 9q-74 30 -116 30q-36 0 -65 -17q-11 -11 -18.5 -19.5t-12.5 -15.5q-30 -33 -37 -50q-27 -59 -30 -99q-3 -52 13 -86q18 -39 69 -81q28 -23 74 -23q22 0 42 6 q40 12 59 48q5 8 10.5 16.5t12.5 17.5q11 16 17 29q8 20 10 42.5t4 44.5q1 8 1 19v26q0 16 -1 21q8 17 11 18q30 -4 45.5 -6t17.5 -2q19 3 28 6q11 1 20 1.5t15 0.5q34 13 46 21l-13 -28q-8 -17 -14 -32t-11 -27l-126 -211q-2 -4 -9 -14t-19 -27q-8 -13 -14 -22.5t-9 -17.5 l-23 -56q-2 -6 -4 -10.5t-3 -6.5l-12 -19q-6 -11 -12 -21t-11 -21q-16 -28 -16 -46q0 -8 3 -12q13 -17 33 -15q21 1 44 42q10 18 21 48l94 182l14 21q10 16 13 19l19 29l14.5 29t11.5 24l11 22q12 17 22 27q8 8 17 28q5 13 8.5 19.5t4.5 8.5q4 11 6.5 17.5t4.5 10.5l10 20 q6 12 14.5 25t14.5 24l9 18q18 36 14 46q-5 14 -16.5 17t-22.5 5zM637 371q-25 -13 -42 -26t-25 -27q-44 -74 -44 -151q0 -46 16 -82q4 -9 13.5 -21.5t21.5 -25t25 -23t24 -14.5q7 -1 28 -6q5 -1 11.5 -1.5t13.5 -0.5q68 0 104 36q13 13 49 103q19 46 9 103q0 3 -3 18 q-4 9 -4 16l-6 33q-4 25 -15 34q-15 8 -32 19q-45 27 -93 27q-27 0 -51 -11zM142 529q14 61 66 74q34 9 55 -14q36 -41 36 -129q0 -39 -7 -66q-15 -57 -57 -67q-31 -8 -53 17q-16 17 -29 75q-7 28 -10 51t-3 41q0 10 2 18zM764 129q-3 -33 -19 -51.5t-27 -22.5l-27 -6 q-36 20 -42 26q-11 11 -18 44l-19 87q-7 70 50 111q9 6 26 9q17 4 27 -1q9 -4 38 -43q12 -15 14 -47q1 -51 -3 -106z" />
<glyph unicode="&#x26;" horiz-adv-x="760" d="M577 772q-3 7 -14 12t-17 0q-24 -8 -36 -15q-41 -16 -72 -7l-55 16q-36 7 -59 10t-34 3q-72 0 -121 -58q-32 -38 -32 -85q0 -29 12 -57q25 -59 42 -76q12 -12 41 -19q39 -11 81 -36q0 -14 -14 -19l-21 -9q-27 -6 -24 -6l-22 -9q-47 -14 -88 -44q-36 -27 -61 -78 q-26 -54 -25 -87q5 -119 74 -166q89 -59 202 -59q68 0 133 21q116 39 153 184l5 19q4 15 8.5 28.5t24.5 19.5q11 1 23 2t23 3q24 3 43 31q14 22 14 47q0 19 -9 39q-8 16 -18 21q-14 8 -22 -5l8 -18l-1 -7q-2 -11 -14 -16q-9 -4 -17 -5q-9 -2 -21 2q-24 7 -36 9q-53 9 -89 5 q-105 -11 -141 -96q-15 -35 -15 -55q0 -29 27 -29q14 2 19 17l6 24q14 33 48 37q22 3 36 -17q7 -10 9 -20q1 -6 0 -15q-1 -6 -1 -11v-7q0 -5 5 -28q3 -13 -1 -25q-11 -34 -40 -56q-11 -8 -30 -15.5t-28 -15.5l-8 -13q-5 -8 -9 -5q-54 10 -93 15q-29 8 -70 43q-42 37 -55 68 q-7 15 -7 39q0 49 22 87q34 61 107 94q29 11 59 21t59 21l19 11q0 13 -2.5 16t-15.5 13l-33 16q-17 8 -32.5 16.5t-31.5 18.5q-48 29 -66 53q-7 9 -15 24t-16 36q-7 15 -7 38q0 72 66 74q27 1 61 -22q5 -4 12 -10t16 -14q13 -13 30 -20q12 -8 42 -6q31 1 47 10q57 31 62 97z " />
<glyph unicode="'" horiz-adv-x="229" d="M119 754q-21 -6 -42 -35q-20 -30 -19 -46q3 -34 36 -49q12 -5 32 -5l33 3q9 -4 11 -11q-1 3 -1 -15q0 -46 -44 -75q-11 -5 -18.5 -8.5t-9.5 -5.5q-17 -13 -19 -24q1 -4 2 -7l2 -6l3 -3t6 -5q15 -11 39 0q23 9 59 59q30 42 36 73q6 36 -1 82q-8 44 -28 63q-13 11 -39 16 q-21 4 -38 -1z" />
<glyph unicode="(" horiz-adv-x="303" d="M303 783q-1 1 -8 13q-5 8 -13 11q-9 3 -28 -5q-43 -21 -105 -131q-24 -45 -39.5 -79t-22.5 -60l-5 -27q-1 -2 -16 -71q-4 -17 -6 -32.5t-2 -29.5q0 -25 6 -56q12 -65 28 -94q42 -80 48 -93l8 -18q13 -30 21 -43q8 -9 12 -14.5t6 -7.5q4 -3 8.5 -10.5t6.5 -11.5l9 -21 q2 -5 5.5 -10.5t7.5 -10.5q7 -11 39 -42q3 1 13 0q7 -1 12.5 6.5t5.5 24.5q1 12 -15 51l-41 98l-13 33q-10 17 -15 32q-2 14 -4 23.5t-3 16.5q-8 49 -27 127q-5 25 -8 44t-3 33q0 45 38 165l16 49q9 29 30 56q20 26 30.5 40t11.5 15l12 18v11z" />
<glyph unicode=")" horiz-adv-x="303" d="M87 815q-18 -10 -20 -31q0 -12 7 -24.5t16.5 -26t18.5 -27.5t13 -28l17 -50q59 -174 53 -243l-6 -31l-2 -33q-3 -33 -6 -46l-16 -46q-2 -5 -18 -69q-10 -38 -29 -68l-14 -22q-44 -70 -44 -101q0 -5 2 -11q10 -16 26 -15q20 2 66 67q19 26 31 45t19 33l9 18q4 21 11 29 l32 46q48 102 48 183q0 64 -29 160l-23 75q-11 34 -30 64q-17 25 -33 49t-33 48l-18 27q-13 21 -23 24l-12 2t-13 2z" />
<glyph unicode="*" horiz-adv-x="421" d="M268 601q-7 10 1 30q2 7 4.5 14.5t5.5 15.5q10 36 4 58q-6 25 -30 30q-8 2 -24 -1.5t-21 -8.5q-1 -1 -7 -16q-5 -15 -5 -16q0 -3 3.5 -14.5t3.5 -16.5q3 -26 3 -38q4 -15 4 -21q-2 -8 -12 -14q-15 8 -27.5 13.5t-22.5 9.5q-44 21 -51 21q-25 0 -34 -19q-4 -7 -3 -26 q1 -17 6 -25q11 -14 29 -15q8 -1 15 -1t15 -1l32 -8q22 0 27 -11q0 -13 -17 -24t-23 -21q-28 -28 -32 -50q-5 -27 18 -45q19 -13 49 -3q19 8 23 23q0 5 6 13q6 9 7.5 13t6.5 17q4 10 5 22.5t12 17.5h5q12 -15 13 -23q1 -5 12 -25q19 -36 39 -47q24 -11 41 2q6 4 15 23t9 26 q-3 20 -37 48q-19 15 -27 17q-5 2 -11.5 11.5t-6.5 11.5h30q5 1 10 3l10 4q7 3 20 3q5 -1 10 -1.5t10 -1.5q11 -2 19 4q26 17 21 47q-6 27 -34 37q-11 4 -27 2q-8 -2 -17 -4t-17 -4q-13 0 -29 -14q-11 -8 -16 -13t-13 -9z" />
<glyph unicode="+" horiz-adv-x="638" d="M307 667q2 -22 2.5 -44.5t1.5 -45.5v-15t-1 -18q-1 -14 -1.5 -22t-0.5 -11v-11q1 -5 1 -12q0 -8 -0.5 -20t-1.5 -27q0 -3 -2 -8.5t-2 -6.5q-4 -4 -11 -4q-7 -4 -10 -4q-21 2 -42 1.5t-42 -2.5q-70 -6 -76 -5q-2 0 -30 6q-17 3 -33 0q-3 -10 -1 -20q-1 -24 0 -67 q23 1 40 1.5t30 0.5h57q43 3 34 3q22 -2 35.5 -3t18.5 -2h4t9 1q9 1 13 0q7 -1 7 -8q3 -41 3 -62q0 -4 -2 -12t-2 -13v-31t1 -53q0 -8 -0.5 -19t-1.5 -26q-1 -18 2 -21q4 -5 15 -7q6 -1 17.5 1t12.5 2q35 0 41 3q2 2 2 71q0 -4 3 104q1 18 1 35v33q27 2 48.5 3t37.5 1 q5 0 13 -1t17 -1.5t16.5 -1.5t12.5 -1q16 -1 32 -0.5t33 1.5q7 0 13.5 0.5t13.5 1.5q1 19 3 33q1 5 1 9v6q0 36 -4 39q-18 2 -33.5 3.5t-28.5 0.5q-6 0 -15 -0.5t-21 -1.5q-14 -1 -23.5 -1.5t-14.5 -0.5q-7 0 -17 0.5t-20.5 1t-19 1t-12.5 0.5q-26 -2 -33 -3q1 13 1 25t1 23 v34q0 4 -1.5 11t-1.5 10l-2 76v20t1 14q-2 28 -3 36l-24 -2q-33 -3 -36 -2q-5 -1 -11 0.5z" />
<glyph unicode="," horiz-adv-x="229" d="M61 -144q11 -23 29 -15q7 0 31 11q42 20 71 68q24 39 29 81q1 11 1.5 20t0.5 16q0 53 -37 80q-20 14 -44 14q-18 0 -33 -7q-47 -23 -51 -57q-3 -29 13.5 -49t45.5 -21h31q12 -8 11 -26q-2 -32 -39 -63q-15 -11 -30 -21.5t-29 -21.5v-9z" />
<glyph unicode="-" horiz-adv-x="288" d="M97 302q-19 -10 -33 -47q-9 -27 2 -36q5 -7 39 -5q23 1 33 1.5t6 0.5l78 -5q41 2 60 37q4 5 5 21q3 18 0 22q-5 10 -42 8q-8 -1 -14 -1h-9q3 0 -20 -5h-26q-7 0 -21 5t-19 5q-7 1 -12.5 1.5t-10.5 -0.5q-6 -1 -10 -1t-6 -1z" />
<glyph unicode="." horiz-adv-x="201" d="M101 119q-44 -20 -44 -66q0 -44 48 -57q45 -13 71.5 7.5t23.5 59.5q-2 33 -27 48q-11 7 -39 10q-27 2 -33 -2z" />
<glyph unicode="/" horiz-adv-x="431" d="M416 781q-32 -8 -39 -14q-8 -8 -27 -37q-8 -13 -13 -22t-7 -14q-4 -11 -7 -21t-7 -20l-27 -59l-10 -33l-9 -20q-12 -26 -16 -31q-11 -23 -12 -30l-10 -28q-4 -14 -7 -24t-5 -17l-52 -120q-5 -19 -8 -23l-7 -22l-18 -34q-24 -44 -30 -65l-17 -56l-8 -22l-8 -22 q-12 -33 -12 -49q0 -34 32 -26q24 4 45 48q5 9 10.5 23.5t12.5 34.5l26 75q4 8 6 13t4 8l1 5l3 6q1 2 1.5 5t1.5 5l9 17q1 6 18 30l9 27q7 17 12 28l22 45q5 14 8.5 22.5t4.5 12.5l47 117q5 16 9 31.5t8 31.5l32 63l10 17q11 35 12 55l9 4q3 7 3 11q-2 5 0 11q9 9 12 21 q2 10 2 23q-8 15 -14 19z" />
<glyph unicode="0" d="M257 655q-37 0 -71 -23q-117 -83 -117 -296v-61q0 -78 12 -123q22 -86 93 -132q41 -26 135 -26q24 0 32 3q55 22 97 104q29 57 42 118q9 43 9 103q0 181 -77 263q-30 33 -78 53q-42 17 -77 17zM231 594q6 0 23 6q32 1 69 -64l31 -56q4 -12 15 -71q2 -8 3.5 -15.5 t3.5 -15.5q4 -11 6 -19t4 -13q1 -5 -2 -26q-3 -24 -3 -37v-49q0 -142 -62 -180q-10 -7 -25 -7q-19 0 -39 13q-69 41 -82 195l-10 110q-2 22 -3 40t-1 32q0 110 49 147q13 10 23 10z" />
<glyph unicode="1" d="M175 641q-45 -4 -52 -29q-4 -12 4 -25q8 -8 17 -8h15q11 -2 18.5 -5.5t12.5 -7.5q31 -25 31 -96q0 -19 -3 -47v-30q0 -17 2 -39.5t2 -32.5v-132v-54t1 -6q-1 -41 -21 -58q-3 -3 -33 -15q-25 -11 -29 -21q-7 -14 1 -25q7 -10 101 -10h66h29q25 -1 41 0q21 1 28 8 q13 13 7 30q-5 11 -28 18q-29 7 -32 10q-31 18 -31 90q0 7 0.5 16.5t0.5 17.5q0 9 0.5 16t0.5 10v56v45q0 18 -1 25l-6 85v75q0 39 1 42q3 18 20 30q4 4 33 10q25 6 32 16q10 15 -3 28q-9 14 -55 15q20 -1 6 -1h-61h-54q-20 -1 -36 -1h-25z" />
<glyph unicode="2" d="M217 104l25 24q259 184 259 353q0 60 -39 101q-5 6 -19 12.5t-19 13.5q-33 26 -39 29q-43 21 -81 17q-89 -7 -100 -12q-49 -17 -89 -81q-23 -37 -23 -81q0 -28 9 -49q26 -61 72 -68q38 -6 61 17q18 19 15 32q-1 12 -19 18q-7 1 -14 0q-9 -3 -14 -3q-20 0 -26 8 q-22 18 -16 58q8 56 65 83q25 12 53 12q27 0 47 -12q13 -8 25.5 -20.5t22 -26.5t15.5 -28.5t6 -26.5q8 -177 -212 -320l-29 -19q-19 -12 -30 -20t-16 -12q-21 -20 -24 -39q-6 -42 7 -58q6 -6 30 -6q18 -2 45 0h29h50q23 0 32 -2t18 -2h32h19q7 1 11 1h8q-2 0 7 0t30 1 q17 1 27 1t14 1q19 4 29 20q6 9 21 54q16 49 12 56q-7 15 -22 12q-24 -16 -39 -32q-15 -10 -38 -13q-8 -1 -27 -1.5t-50 -0.5h-43l-35 -5q-29 8 -33 14z" />
<glyph unicode="3" d="M346 360q0 11 13 23q5 3 10.5 7t12.5 9q55 55 55 121q0 17 -4 29q-7 31 -41 60q-29 24 -58 33q-26 8 -65 8q-104 0 -147 -40q-57 -53 -57 -103q0 -4 0.5 -8t1.5 -9q3 -17 16.5 -37.5t28.5 -25.5q4 -1 9.5 -1.5t13.5 0.5q19 2 24 5q13 12 10 21q-4 14 -20 19 q-13 10 -18 22q-2 8 -2 12q0 22 21 48q30 37 89 28q43 -6 53 -12q21 -11 36 -45q9 -20 9 -46q0 -28 -12 -43q-40 -52 -77 -66q-21 0 -40 -13q-33 -22 -37 -29v-11q6 -15 28 -15q3 -1 31 2q46 4 61 0q23 -8 43 -26.5t25 -38.5q2 -10 2 -18q0 -33 -16 -69q-15 -35 -34 -55 q-29 -32 -75 -48q-25 -10 -85 -22q-18 -2 -26 -3q-14 -4 -26.5 -8.5t-23.5 -11.5q0 -20 18 -27q12 -8 31 -9q27 -2 65 9l22 6q102 27 150 55q57 34 89 91q25 44 25 90q0 22 -8 43q-18 41 -56 65q-16 8 -32 17t-33 17z" />
<glyph unicode="4" d="M311 261l-20 -20q-3 -3 -22 -3h-29q-40 -4 -59.5 -5.5t-18.5 -1.5q-37 0 -30 37q10 58 81 156q18 25 35 44t34 32q11 8 20.5 14.5t18.5 11.5l38 25q41 34 37 88q-2 23 -21 32q-7 4 -17 4q-18 0 -40 -15q-89 -58 -167 -195q-62 -111 -85 -205q-5 -23 -6 -53 q-1 -18 0.5 -29t5.5 -16.5t9 -7t11 -1.5q-9 0 26 6h5q4 0 8 1h11q6 2 12 2.5t11 0.5h19q4 0 13 1.5t23 3.5l24.5 3.5t18.5 1.5q16 0 26.5 -5.5t14.5 -25.5q1 -6 3 -32q2 -31 -4 -52q-15 -45 -13 -50q4 -12 32 -17q16 -1 37 0q27 3 34 10q4 38 6.5 73.5t3.5 68.5q8 20 27 23 q38 -2 65 -3q12 8 10 22q-1 17 -30 31q1 0 -37 8q-29 8 -35 15q-9 13 0 85v84v25q-2 20 -3 23q-3 7 -15 18q-6 -2 -17.5 -1.5t-16.5 -0.5q-31 -7 -43 -40v-11q0 -10 -1.5 -15.5t-3.5 -16.5q0 -6 5 -21q0 -3 1 -8v-14v-10q-1 -5 -1 -11v-43q0 -11 9 -21z" />
<glyph unicode="5" d="M83 1q7 -10 17 -13l12 -3q5 -1 33 2q5 1 13 1t19 1q16 0 32 4q54 12 134 74q88 68 104 120q18 54 18 86q0 46 -30 85t-78 57q-18 7 -39.5 11t-47.5 5q-20 1 -40 1q-19 0 -39 1q-18 2 -19 2q-7 1 -12 13q-2 6 -2 11q0 34 20 65q15 22 60 33q15 2 30 5t31 5h44q67 0 84 18 q2 4 12 40q11 39 10 41q-4 16 -17 20q-8 2 -17.5 -3.5t-18.5 -10.5q-19 -10 -34 -11l-68 -8l-99 -9q-52 -4 -66 -35q-5 -20 -9 -39t-9 -38l-9 -38l-6 -30q-2 -5 -3.5 -15t-3.5 -16l-5 -36q-2 -14 -3 -39q7 -16 31 -16q5 0 16 2t17 2q18 1 67 0q16 -1 34 -5t38 -12 q55 -21 72 -51q6 -11 6 -30q0 -44 -16 -69q-56 -93 -123 -125q-39 -19 -127 -26l-13 -14v-13z" />
<glyph unicode="6" d="M443 648q-9 12 -20 12q-5 0 -20 -6q-24 -10 -42 -22l-40 -27q-210 -141 -245 -284q-8 -32 -8 -67q0 -127 76 -206q27 -28 77 -45q46 -15 91 -15q8 0 15.5 0.5t14.5 1.5q37 7 75 39q38 31 55 72q18 46 18 105q0 67 -25 102q-16 23 -56 43q-41 20 -62 19q-50 -3 -82 -54 q-13 -20 -7 -31q6 -10 21 -10q30 14 35 14q17 2 33 -7q70 -36 78 -113q8 -71 -44 -112q-19 -16 -57 -16q-24 0 -43 6q-70 22 -93 115q-10 39 -10 69q0 -12 0.5 5t1.5 65q2 44 16 70q4 7 16 24t34 46l26 34q27 36 48 55q19 16 37.5 32t37.5 32q43 30 48 41q2 5 0 13z" />
<glyph unicode="7" d="M362 571q2 -18 -18 -53l-11 -20l-8 -14l-8 -14l-16 -27q-8 -17 -14 -30.5t-9 -22.5l-11 -17q-4 -6 -7.5 -10.5t-5.5 -7.5l-141 -242l-16 -27q-4 -10 -7 -16l-5 -10q-21 -36 -21 -43t4 -12q5 -5 38 -8q28 -2 42 0q21 3 27 10q3 3 11 26q5 17 10 30t10 22l197 410 q5 13 9.5 22t6.5 15l11 25q7 13 12 18l11 16q45 64 40 81q-6 15 -19 19q-6 2 -67 -13h-34h-16t-17 -1q-23 -4 -43 -5.5t-37 -1.5h-14q-6 0 -11 1q-3 0 -14 3t-18 3h-31l-43 14q-29 14 -43 3q-16 -12 -21 -65q-3 -38 0 -72q0 -9 1.5 -19.5t14.5 -15.5q15 -6 28 10 q22 29 31 36q12 9 40 16h122q7 -3 32 -3h21q7 -7 7 -10z" />
<glyph unicode="8" d="M369 365q-1 2 -1 6q0 8 17 19l13 8l14 11q33 26 42 49.5t9 50.5q0 36 -17 62q-25 38 -83 64q-48 22 -87 22q-37 0 -90 -29q-54 -29 -78.5 -65.5t-24.5 -84.5q0 -68 46 -105q24 -18 45 -33q6 -12 -6 -27q-9 -10 -14 -15l-7 -7l-25 -11q-53 -39 -53 -119q0 -47 17 -79 q51 -90 141 -96q131 -9 219 100q47 59 47 117q0 25 -9 54q-12 37 -24 52q-8 9 -33 21q-16 8 -30.5 16.5t-27.5 18.5zM179 549q13 22 37 37q17 11 44 11q22 0 43 -8q57 -25 67 -79q4 -19 4 -34q0 -28 -24 -55q-22 -27 -52 -22t-64 27q-41 26 -55 53q-8 14 -8 35t8 35z M164 163q-10 102 65 138q12 5 21 5q23 0 75 -34q78 -50 78 -118q0 -55 -49 -83q-29 -17 -60 -17q-25 0 -49 12q-75 37 -81 97z" />
<glyph unicode="9" d="M251 650q-28 0 -67 -13q-21 -9 -40 -24t-34.5 -32.5t-26 -37.5t-13.5 -39q-3 -17 -3 -40q0 -111 44 -158q18 -18 55 -35q37 -15 55 -11q17 3 33.5 13.5t28.5 23.5t16.5 24.5t-2.5 17.5q-8 9 -26 8q-7 -1 -13 -1.5t-13 -1.5q-39 -1 -76 55q-29 46 -29 87q0 44 30 79t75 35 q54 0 95 -47q42 -47 42 -134q0 -51 -13 -102.5t-40 -82.5l-38 -38t-38 -39q-47 -50 -80 -69q-20 -11 -40.5 -22t-40.5 -22q-34 -21 -34 -38q0 -21 21 -21q32 0 113 38q293 146 293 359q0 135 -74 209q-59 59 -160 59z" />
<glyph unicode=":" horiz-adv-x="206" d="M121 392q-52 -10 -55 -59q-3 -37 22 -55q10 -7 38 -9q22 -1 38 4q34 12 39 47q9 34 -12 54q-27 25 -70 18zM95 120q-38 -26 -37 -60q2 -31 36 -47q27 -13 54 -13q17 0 28 6q29 18 27 62q-1 39 -31 55q-16 8 -35 8q-25 0 -42 -11z" />
<glyph unicode=";" horiz-adv-x="219" d="M119 379q-56 -17 -51 -64q3 -41 34 -57q13 -7 38 -6q22 1 33 6q31 15 35 58q4 29 -20 52q-32 23 -69 11zM135 125q-31 0 -56 -24q-24 -24 -20 -54q4 -33 35 -47q15 -6 30 -4q2 0 14 3t15 2q13 -2 14 -21q2 -15 -14 -38q-15 -25 -30 -37t-29 -23q-22 -16 -22 -26 q0 -9 14 -17q11 -6 44 13t62 64q25 40 27 75q2 30 -6 62q-11 39 -30 54q-23 18 -48 18z" />
<glyph unicode="&#x3c;" horiz-adv-x="581" d="M87 399v-118l485 -181v109l-372 131l372 131v110z" />
<glyph unicode="=" horiz-adv-x="637" d="M76 513q-14 0 -18 -3v-86h577q2 32 -3 88h-17h-5q-2 0 -6 1h-14h-514zM94 324q-32 0 -36 -4v-66q0 -10 3 -19h572q2 24 1.5 46.5t-2.5 42.5h-538z" />
<glyph unicode="&#x3e;" horiz-adv-x="581" d="M568 281v118l-485 182v-110l370 -131l-370 -131v-109z" />
<glyph unicode="?" horiz-adv-x="464" d="M207 258q-18 10 -18 27q-5 18 9 47q16 30 31 41l85 60q72 51 107 92q43 50 47 104q8 75 -54 119q-32 23 -133 23q-17 0 -27 -2q-66 -20 -83 -27q-27 -9 -41 -9q-21 1 -41 15q-8 2 -10 2q-7 0 -13 -8q-2 -7 -1 -25q2 -20 3 -23q3 -9 11 -18.5t17.5 -17.5t20 -13.5 t19.5 -6.5q33 -5 60 21q14 13 27.5 25.5t27.5 25.5q23 19 41 19q7 0 15 -3q32 -14 42 -73q1 -5 1 -9v-9q0 -71 -128 -187l-19 -17q-80 -71 -73 -147q3 -32 33 -50q25 -14 57 -14q17 0 30 5q22 10 28 19q2 5 7 28q-4 9 -11 11q-2 1 -18 -5q-44 -24 -49 -20zM169 119 q-23 -7 -36 -26.5t-10 -38.5q7 -38 42 -54q15 -5 34 -5q29 0 46 9q29 17 30 56q2 33 -21 50q-20 14 -49 14q-16 0 -36 -5z" />
<glyph unicode="@" horiz-adv-x="958" d="M594 168q10 -67 68 -89q22 -8 48 -8q75 0 134.5 46.5t90.5 134.5q25 69 25 147q0 11 -0.5 21t-1.5 19q-14 98 -57 158q-46 63 -143 105q-84 36 -196 36q-188 0 -315 -90q-196 -138 -196 -373q0 -126 62 -232q62 -104 175 -160q90 -45 210 -45q200 0 380 114l-25 43 q-176 -107 -349 -98q-94 4 -172 45q-93 48 -142 136q-41 76 -41 183q0 118 48 207q112 205 345 217q74 4 156 -22q105 -33 156 -104.5t51 -166.5q0 -68 -26 -131q-45 -109 -116 -121q-37 -6 -52 10q-9 10 -9 32q0 20 23 104l65 232h-125l-19 -62q-38 86 -139 80 q-28 -2 -56.5 -13t-54.5 -30.5t-48.5 -46t-38.5 -58.5q-37 -70 -37 -144q0 -58 25 -99q43 -74 135 -75q100 -1 162 98zM406 204q1 46 33 136q39 109 85 125q13 4 33 3q21 -1 34 -11q29 -23 22 -75q-4 -28 -11.5 -58.5t-20.5 -64.5q-36 -97 -80 -118q-35 -17 -61 0 q-35 23 -34 63z" />
<glyph unicode="A" horiz-adv-x="858" d="M425 806q-21 -4 -73 -38q-34 -22 -34 -38q0 -8 27 -36q18 -20 28 -38q6 -14 6 -26q0 -17 -13 -39q-11 -20 -17 -31t-8 -14l-91 -202q-10 -22 -16.5 -36t-11.5 -21l-11 -18q-4 -7 -7.5 -13t-7.5 -12l-41 -71q-8 -13 -13.5 -21.5t-8.5 -12.5q-5 -11 -9 -19t-7 -15 q-13 -16 -31 -29.5t-33 -23.5q-12 -15 -7 -30q5 -12 10 -15l3.5 -1t11.5 -3q10 -2 80 -4q71 -3 79 1q15 5 17 22q2 14 -13 29q-21 6 -28 15q-12 11 -14 28q-1 13 26 57q2 2 5.5 9t8.5 20q7 17 17 27q13 13 21 15q2 1 27 -1q15 -2 27 -2t21 1l64 6h25h13q5 -1 8 -1h5h17 q92 0 108 -19q5 -7 25 -58t19 -57q-2 -11 -4 -15q-7 -7 -11 -10t-15 -11q-4 -4 -9 -14q-5 -14 4 -27q13 -18 101 -18h68q98 0 106 12q9 14 -1 41q-7 13 -22 22q-13 8 -19.5 11.5l-6.5 3.5q-10 8 -20 19.5t-21 26.5q-16 23 -24.5 36t-10.5 15l-24 51l-71 145q-8 16 -12 27 l-41 90q-14 31 -15 34l-30 56q-8 17 -13 29l-33 62q-29 53 -30 61q0 1 -6 30q-4 23 -11 30q-11 13 -33 8zM319 285q-8 4 -10 9.5t-3 11.5q-1 5 7 23q3 7 5.5 12.5t4.5 10.5l5 11l9 11l28 80q11 21 17 26q5 9 7.5 15t3.5 9q8 22 12 26q10 13 23 13q19 -11 22 -20 q12 -17 15 -24l23 -52q7 -14 10 -21.5l3 -7.5l6 -14l11 -22t18 -34q16 -26 16 -39q0 -7 -3 -11q-8 -16 -46 -11q-10 1 -21.5 1.5t-25.5 0.5h-15q-4 0 -9.5 1t-7.5 1h-20q-5 0 -15.5 -1t-14.5 -1l-30 -4h-25z" />
<glyph unicode="B" horiz-adv-x="683" d="M508 397q0 13 16 25q21 8 27 13q26 19 49 48q40 50 47 104q1 8 1.5 14.5t0.5 13.5q0 49 -49 99q-62 63 -187 63q-29 0 -52 -4h-16q-25 -4 -41 -6q-5 -1 -13 -1h-16q-14 1 -25 1h-18h-56q-10 0 -22 1t-22.5 1.5t-19 1.5t-11.5 1q-18 0 -28 -9q-14 -12 -14 -25t17 -25 q26 -20 27 -22q18 -20 21 -60v-61v-60q-2 -6 -2.5 -15.5t-2.5 -15.5v-19q0 -4 1 -13.5t3 -25.5t3.5 -30.5t1.5 -27.5q-3 -31 -6 -55t-5 -41v-37q-2 -23 -3.5 -36.5t-1.5 -16.5q0 -7 1.5 -17.5l1.5 -10.5q5 -8 5 -25q1 -7 1 -12v-9q0 -24 -14 -36q-12 -8 -24 -17t-24 -17 q0 -28 17 -33q7 -4 35 -4h15q80 0 106 -3h22q29 -5 44 -8l15 -3h31q10 0 22.5 -0.5t23.5 -1t19.5 -1t11.5 -0.5q34 0 81 21q16 7 77 52q68 48 77 61q28 34 28 108q0 30 -8 51q-21 52 -69 83q-39 26 -92 34zM282 700q12 9 55 10q37 1 87 -15q61 -20 84 -54q20 -29 20 -88 q0 -23 -6 -36q-13 -20 -24 -35t-19 -25q-20 -23 -21 -30q-6 -6 -13 -8q-5 -1 -9 -1t-8 -1q-37 -7 -53 -9q-43 -4 -52.5 -18t-1.5 -27q7 -12 19 -13h6t15 -1q125 -5 177 -80q8 -12 18 -49q11 -38 11 -57q0 -6 -2 -12q-19 -45 -60 -76q-39 -30 -77 -37q-5 -1 -10 -1.5 t-11 -0.5q-77 0 -131 58q-22 23 -22 51q0 6 1.5 24t1.5 31v17q0 6 -0.5 15.5t-1.5 19.5t-1.5 20t-0.5 16v27q0 11 -4 31t-4 24v5t1 8q2 10 2 14t1 12v18v69q5 22 5 21q1 5 1 21v46q-7 91 27 116z" />
<glyph unicode="C" horiz-adv-x="786" d="M393 787q-27 -2 -46.5 -6.5t-32.5 -9.5q-29 -19 -50.5 -34.5t-35.5 -26.5q-86 -56 -108 -96q-2 -3 -9.5 -18t-18.5 -42q-23 -53 -24 -60q-4 -16 -6 -31t-2 -31q0 -22 -0.5 -36t-1.5 -22v-35q0 -12 3 -20.5t3 -12.5q3 -20 3 -32q1 -32 19 -62l13.5 -27t13.5 -26 q29 -49 54 -71q26 -23 59 -42t73 -35q36 -14 55.5 -21t23.5 -8q32 -7 70 -7q52 0 94 13l33 10q41 11 63 13q19 1 30 -3l31 -10q13 1 17 5q2 2 9 16q4 9 12 53q9 43 9 65q0 9 -1 10q-9 16 -27 16q-5 0 -42 -29q-41 -32 -43 -33q-45 -33 -84 -47q-40 -15 -108 -5 q-73 10 -118 46q-29 23 -61 73q-7 11 -15 24t-17 29q-13 22 -23 77q-2 14 -4.5 27t-4.5 26q-1 5 0.5 15.5t3.5 25.5q6 31 6 32q6 55 9 72q9 50 28 79q5 8 18 24.5t34 41.5q80 92 185 92q20 0 40 -3q17 -2 45 -15.5t68 -36.5q40 -24 57 -39q46 -43 52 -45q16 -6 28 9 q10 10 15 61q3 45 -1 66q-3 17 -4 18q-3 6 -15 9q-14 3 -34 -7q-20 -3 -33 -2q-22 2 -32 8q-15 8 -33 13h-17q-20 0 -53 10q-38 11 -52 12q-17 2 -47 1t-73 -5z" />
<glyph unicode="D" horiz-adv-x="821" d="M318 779l-58 -6q-8 0 -17 -2t-13 -2h-87q-89 0 -101 -13q-11 -13 -7 -24q5 -14 24 -23q28 -14 29 -14q36 -30 36 -163v-18q0 -24 -3 -31v-123q0 -7 -0.5 -13t-1.5 -11v-35q-7 -22 -7 -23v-28q5 -13 5 -36v-104q-5 -23 -15 -39q-13 -14 -21.5 -22t-13.5 -10 q-16 -12 -13 -28q3 -14 22 -21q10 -3 43 4q37 6 36 6q19 1 32 0l24 -6t23 -6h26q30 -5 58 -7.5t54 -2.5q156 0 265 83q93 72 141 171q41 87 43 179q0 60 -20 132q-27 89 -76 132q-78 69 -191 92q-62 12 -192 12h-24zM248 650q0 41 22 56q22 14 97 19q156 8 263 -158 q54 -84 54 -215q0 -26 -3 -47q-11 -66 -60 -135q-53 -75 -126 -110q-38 -18 -98 -18q-68 0 -103 25q-45 31 -45 159v180q0 19 -1.5 42.5t-1.5 30.5v38q0 1 2.5 13t2.5 16q1 10 1.5 17t0.5 12v24q-2 20 -3.5 33t-1.5 18z" />
<glyph unicode="E" horiz-adv-x="601" d="M576 168q-9 -4 -16 -16q-5 -13 -8.5 -22t-5.5 -16q-37 -58 -122 -58q-80 0 -130 34q-10 7 -16 12t-9.5 10t-5 11.5t-2.5 15.5q0 24 -1 25q-5 18 -6 27q-1 5 -0.5 13t1.5 19q3 28 3 41q0 3 -0.5 9t-1 13.5l-1 15t-0.5 12.5q2 15 6 22q10 15 30 19q11 2 38 3q25 1 63 -9 q28 -10 31 -13q18 -19 20 -29q13 -22 26 -22q6 0 12.5 5t11.5 18t8 34.5t3 54.5q0 36 -8 50q-14 23 -26 23q-11 0 -18.5 -8t-15.5 -16q-17 -16 -37 -28q-14 -6 -46 -6q-49 0 -69 11q-24 13 -24 60v12t1 15v19q0 4 1 12t1 11l5 22q1 7 -3 30q-2 12 -3 21t-1 16q0 13 3 24 q19 55 114 55q71 0 111 -35q22 -20 31 -41.5t16 -40.5q4 -6 12 -6q5 0 10 3q20 8 28 46q1 5 1.5 11.5t0.5 13.5q0 59 -22 82t-75 23q-6 0 -15 -0.5t-19 -1t-18.5 -1t-12.5 -0.5h-63l-22 -1h-23h-34t-5 1h-44q-17 3 -24 3h-23q4 0 -5 0q-8 0 -28 1q-14 1 -25.5 0.5 t-20.5 -1.5q-25 -1 -32 -7q-11 -11 -10 -25q1 -18 18 -32q23 -16 30 -26q11 -15 12 -88q1 -31 0.5 -54.5t-2.5 -39.5v-20q0 -1 2.5 -16l7.5 -45v-15q0 -1 -0.5 -10t-1.5 -23.5t-1 -24.5v-153q0 -28 -9 -62q-2 -10 -4.5 -20t-4.5 -20q-2 -5 -6 -11t-11 -11l-28 -14 q-16 -9 -19 -25q-2 -14 10 -29q11 -9 47 -5h25h12h11h53q10 1 14 0h23l54 -4q26 -2 53 0q21 2 36.5 2.5t25.5 -0.5l22 -2t22 -3h17q85 0 111 29q29 35 29 97q0 9 -2 19q-4 19 -12 25q-20 8 -25 5z" />
<glyph unicode="F" horiz-adv-x="564" d="M385 351q31 -8 43 -19t14 -21q3 -5 5.5 -10.5t9.5 -9.5q6 -3 12 -3q7 0 13 5.5t11 18t8 33.5q2 11 2.5 24t1.5 28q1 52 -18 64q-18 12 -35 4q-9 -4 -17 -18q-3 -4 -7.5 -9t-11.5 -10q-10 -6 -42 -11q-23 -3 -60 0q-48 3 -56 14q-4 4 -4 30q0 21 3 65q2 22 3 32.5t1 11.5 v15q0 58 -0.5 73t-1.5 -13q2 42 17 56q10 10 71 10q68 0 86 -7q30 -10 56 -39q18 -19 26 -56q7 -16 19 -16q17 1 31 27q10 19 10 50q0 36 -14 59q-20 33 -56 37h-37t-37 1l-210 6q-6 0 -13 -1l-7 -1h-17h-10t-15 1t-16.5 1.5t-14.5 0.5q-33 0 -43 -12q-19 -22 -9 -44 q21 -27 34 -34q12 -15 12 -36v-35q0 -11 1.5 -17t1.5 -19v-38q0 -4 -1.5 -8.5t-1.5 -9.5v-22q0 -14 2 -27.5t2 -25.5v-18q7 -19 9.5 -27.5t4.5 -15.5q0 -3 -7 -14q-7 -41 -9 -56l-9 -58q0 -5 0.5 -13t1.5 -17t2 -16.5t1 -10.5v-15q0 -26 -6 -74q-4 -19 -19 -35 q-20 -20 -32 -29q-12 -20 0 -34q9 -13 48 -13h51h80q4 0 20.5 -1.5t25.5 -1.5q20 0 28 6q15 13 13 31q-3 19 -16.5 24t-26.5 10q-28 16 -33 62q0 6 -2 18t-2 16l-5 33l1 9t3 28q1 8 1.5 16.5t-0.5 18.5q-2 61 8 73q10 13 66 13q16 0 31.5 -1t30.5 -3z" />
<glyph unicode="G" horiz-adv-x="779" d="M422 787q-5 -1 -18 -2t-35 -3q-9 -1 -22 -3.5t-30 -7.5q-80 -23 -143 -86t-90 -146q-30 -93 -30 -190q0 -74 21 -120q81 -175 227 -219q73 -21 198 -21q170 0 244 44q24 14 25 54q1 8 1 15v15q0 9 0.5 16t1.5 12v115q2 14 3 20q8 33 0 41q-8 7 -87 12q-70 4 -85 3 q-51 -4 -62 -21q-8 -17 3 -30q5 -7 36 -17q31 -11 43 -22q31 -30 21 -123q-4 -42 -52 -60q-54 -20 -115 -20q-97 0 -161 49q-109 82 -109 236q0 10 0.5 19t1.5 17v66q-1 5 -1 10v12q0 116 80 196q81 81 186 81q12 0 24 -1.5t25 -3.5q63 -12 103 -42q26 -21 51.5 -41.5 t50.5 -40.5q19 -7 29 4q9 7 13 61q2 23 2.5 38t-0.5 22q0 17 -1 19q-2 8 -15 14q-2 2 -24 -1q-29 -5 -54 -3q-39 2 -79 13l-39 11q-21 6 -69 9q-47 3 -69 0z" />
<glyph unicode="H" horiz-adv-x="856" d="M74 704q41 2 41 -100v-43q0 -5 2 -15.5t2 -14.5v-64q2 -4 2 -10q0 -7 -1 -12l-2 -10q-2 -3 0 -11l5 -21q1 -8 1.5 -14t0.5 -9q1 -19 -3 -44t-4 -43v-57v-68q0 -23 -1 -28q-2 -14 -4 -25.5t-4 -22.5q-26 -29 -42 -39q-16 -19 -8 -35q9 -16 41 -18h44h69h28q25 -2 42 0 q21 0 26 6q12 16 1 33q-24 30 -45 46q-15 19 -19 50q-4 32 -5.5 63.5t-1.5 63.5q0 63 11 77q16 19 183 19h56q8 0 12 1h11h46q3 0 21 1.5t30 1.5q53 0 66 -22q3 -5 3 -10q0 -6 -6.5 -17t-7.5 -16q0 1 -3 -17q-1 -8 -1.5 -14.5t0.5 -11.5q11 -36 7 -54q-1 -5 -6.5 -15.5 t-5.5 -15.5v-27q-2 -43 -14 -57q-3 -4 -10.5 -10.5t-19.5 -14.5q-16 -10 -16 -31q-2 -33 36 -33q9 0 23.5 2.5t18.5 2.5q-4 -1 61 -1h19h4q4 0 9 1h8h6h8h15q40 -1 49 12q4 4 3 18q-2 14 -5 20q-29 19 -41 31q-7 8 -11 41q-6 35 -1 79v32q0 15 -4 27q-6 18 -6 27v15l-3 62 v171q0 14 2 34t6 45q11 66 25 77q16 9 24 12q10 11 11 23q2 16 -9.5 27t-48.5 9q-10 0 -22 1.5t-23 1.5h-40q-1 0 -5 -0.5t-8.5 -1t-8.5 -1l-4 -0.5h-24h-28q-24 0 -31 -9q-10 -8 -8 -25t12 -23t21 -12q8 -8 17.5 -18.5t19.5 -22.5q-1 -8 -1 -15q0 -6 -1 -10q-7 -13 -7 -24 q0 -3 3 -9.5t6.5 -13.5l7 -14t3.5 -11q1 -7 -2 -15q-4 -9 -4 -13q-1 -11 -1.5 -19.5t-0.5 -13.5v-18t-1 -17q0 -14 -6 -21q-14 -20 -55 -20q-13 0 -35 3l-35 5h-34q-6 0 -18 -1.5t-17 -1.5h-111q-5 0 -23 -1.5t-29 -1.5q-42 0 -55 18q-8 11 -8 22q0 7 4 20t5 19 q1 10 -1.5 20.5t-2.5 18.5l5 31l-5 61q2 28 12 44q8 12 19.5 20.5t18.5 18.5q11 17 11 24q0 25 -13 25h-90h-10t-14 1h-23h-20q-11 0 -27 -1h-33q-5 0 -11 -6q-11 -8 -11 -24q0 -11 7 -20t15 -9z" />
<glyph unicode="I" horiz-adv-x="316" d="M313 744q-10 22 -31 14h-25l-7 2l-5 2l-7 -2l-6 2q-9 0 -12 1h-10h-50l-22 3q-9 -5 -24 -3q-5 1 -10 1.5t-10 1.5q-13 2 -21 -4q-16 -10 -14 -32q5 -23 19 -30q22 -10 28 -18q10 -12 9 -70q0 -11 0.5 -19.5t1.5 -15.5q2 -9 2.5 -18t1.5 -18l8 -57q0 -1 -1.5 -10.5 t-3.5 -28.5q-2 -6 -2 -19l-2 -19q-3 -30 0 -41q1 -3 4.5 -12t11.5 -23q-5 -6 -8.5 -10t-5.5 -6q0 -3 -3 -18q-1 -5 -1 -14q0 -11 5 -29t5 -29q0 -14 -1.5 -25t-1.5 -12q0 -8 14 -34l-7 -7l-12 6q-2 -7 -3 -11.5t-2 -8.5q0 -16 -1 -19q-1 -11 -2 -20t-2 -17q-5 -9 -17 -14 q-14 -6 -18 -10q-10 -10 -12 -19l-4 -18q13 -16 38 -16h105h31q27 -2 44 0q23 1 30 8q11 11 9 26q-5 15 -20 23q-12 7 -18.5 10t-7.5 4q-20 17 -12 92v23q2 12 -7 75v31q-4 24 -1 51q3 37 3 40v30l-3 49v62q0 138 26 162q11 8 19 14.5t13 10.5q5 7 5 33z" />
<glyph unicode="J" horiz-adv-x="507" d="M251 766q-37 -13 -34 -40q2 -14 15 -23l18 -12t19 -11q30 -20 38 -80q1 -9 1.5 -30t0.5 -53v-129v-6q0 -3 1 -8v-14l-7 -172q-2 -37 -2.5 -57.5t-1.5 -24.5q-7 -43 -34 -64q-23 -17 -55 -5q-43 17 -50 65q-3 22 1 34q2 6 10 18q6 11 5 15q-2 24 -30 24q-43 0 -69 -19 q-16 -10 -19 -23q-2 -6 -2 -25q0 -16 0.5 -28.5t1.5 -20.5q7 -59 69 -84q42 -19 91 -19q71 0 127 37q99 65 93 247l-6 175q0 10 -3 33q-2 12 1 32l12 91q-3 41 -2 51q3 26 21 44q13 10 28 22t16 26q1 13 -13 28q-8 6 -21 6q-3 0 -10.5 -1t-18 -1.5t-22.5 -1.5t-22 -1h-27 h-17t-17 1q-12 1 -27 0q-10 -4 -29 3q-4 1 -7.5 2t-7.5 2q-5 1 -15 -3z" />
<glyph unicode="K" horiz-adv-x="746" d="M412 481q3 10 9 14.5t12 8.5l21 17q10 8 27 21t40 30q16 11 33 25t36 31t35.5 29.5t32.5 19.5q8 4 17 7.5t17 7.5q26 12 33 22q11 19 2 35q-14 23 -53 19h-36q-2 0 -9.5 0.5t-21.5 1.5t-25 1.5t-19 0.5q-37 0 -47 -9q-13 -13 -8 -28q4 -11 10 -14.5t12 -6.5 q7 -10 8.5 -13t1.5 -13q1 -20 -34 -52q-11 -9 -23 -18l-24 -18l-74 -57q-94 -73 -111 -67q-12 4 -17 39q-6 44 -1 100q1 12 2 19t2 9q4 8 7.5 14t5.5 11l1 8l2 6l7 6l5 5q10 10 15 15.5t6 6.5q6 10 5.5 20t-6.5 18.5t-17 13.5t-26 5q-9 0 -25.5 -2t-22.5 -2h-38 q-7 0 -24.5 1.5t-27.5 1.5q-41 0 -54 -22q-13 -19 1 -38q11 -10 19.5 -17t15.5 -11q18 -13 21 -35q0 -4 -0.5 -13t-1.5 -24l-2 -30v-78v-6t1 -9v-14v-31v-7q0 -4 1 -9v-15v-41q-1 -4 -1 -13v-22v-25v-25q0 -9 -1 -13v-87q0 -2 -3 -14q0 -7 -0.5 -15t-1.5 -27q-1 -38 -19 -54 q-13 -9 -25 -17t-12 -26q0 -20 12 -30q7 -6 35 -6q7 0 15.5 0.5t19.5 1.5t17 1h7h51h49q39 2 47 14q11 17 -4 38q-3 3 -13 10.5t-11 8.5q-15 8 -20 19q-15 21 -18 66v69v69v47q0 11 -1 -3q1 34 17.5 48.5t51.5 5.5q48 -12 70 -51q10 -20 20 -40.5t20 -40.5l32 -56 q4 -10 7.5 -22t6.5 -28q5 -26 19 -50q5 -8 14.5 -20.5t23.5 -29.5q27 -34 41 -43q36 -21 76 -21q27 0 52 11q46 22 51 75q3 35 -6 43t-21 2q-12 -11 -19 -19.5t-11.5 -14.5t-8 -10t-8.5 -5h-16l-6 4l-8 6q-6 6 -9 12q-4 7 -7 13.5t-7 12.5l-5 15l-6 16l-6 21q-7 17 -12.5 28 t-9.5 16q-13 37 -14 45q-14 32 -25 53.5t-19 34.5l-14 28q-19 39 -43 57l-60 36v11z" />
<glyph unicode="L" horiz-adv-x="597" d="M96 767q-27 -8 -27 -36q0 -16 14.5 -26t28.5 -20q14 -14 15 -26q2 -6 0 -32q-1 -10 -1 -24v-33v-101q0 -4 2 -13t2 -14v-26q4 -24 1 -44l-2 -18t-3 -18v-40v-11q-1 -5 -1 -12v-5q0 -2 1 -7v-11v-54q0 -93 -27 -121q-5 -5 -27 -21q-15 -10 -17 -21q-2 -14 12 -27 q10 -8 45 -6h45h127h24q4 0 12 -1t12 -1l57 7q8 1 19.5 -2t18.5 -3h24q95 -8 132 34q24 27 24 96q0 11 -2 17q-6 19 -21 20q-20 3 -30 -16q-3 -8 -5.5 -14.5t-4.5 -11.5q-6 -16 -13 -24q-7 -9 -12 -14.5t-9.5 -8.5t-10 -4.5t-14.5 -3.5q-12 0 -26 -8t-25 -8q-3 0 -11.5 1.5 t-12.5 1.5q-12 -3 -24 -3q-61 8 -99 37q-38 30 -38 101q0 12 1 30.5t1 23.5l5 276l6 33v26q0 8 -2 26t-2 27q0 24 12 41q7 9 33 29q17 13 19 29q1 17 -12.5 27t-30.5 10q-11 0 -30 -3q-11 -2 -19 -3t-12 -2h-18l-13 1l-39 3q-43 3 -52 1z" />
<glyph unicode="M" horiz-adv-x="990" d="M883 798q-8 -6 -13.5 -11t-8.5 -9l-15 -21l-79 -132q-9 -15 -12 -24l-16 -25q-11 -17 -18 -24q-7 -8 -11.5 -14t-7.5 -9l-9 -17q-8 -19 -10 -22l-20 -34q-8 -13 -13 -18l-19 -32q-5 -9 -8 -15.5t-5 -10.5l-49 -79q-41 -89 -63 -90q-13 -1 -21 14q-6 11 -11.5 23.5 t-10.5 21.5q-9 17 -13 22l-32 66q-4 7 -8 14.5t-9 15.5l-11 21q-20 45 -23 56l-49 71l-9 16q-1 5 -8 15q-11 18 -17 32l-14 32q-8 26 -26 58.5t-44 72.5q-23 36 -44 44q-5 1 -21 -3q-13 -8 -23 -15t-17 -12q-14 -10 -24 -16t-16 -10q-24 -19 -22 -36q3 -12 10.5 -16t15.5 -7 q13 -6 20.5 -9.5t9.5 -4.5q63 -42 63 -150q0 -4 -0.5 -14.5t-1.5 -27.5l-5 -93l4 -36v-16l-1 -4.5t-2 -9.5t-2 -9.5t-1 -5.5q-1 -10 -1.5 -16.5t-0.5 -10.5l-9 -92v-43q0 -42 -23 -67q-6 -6 -36 -23q-23 -14 -24 -30q-2 -15 7 -22t19 -7q2 0 9 1t16 1.5t19 1.5t19 1l79 -2 q34 -6 44 -6q16 0 25 9q12 18 5 31q-4 10 -7 13t-14 7q-6 0 -14 2t-13 2q-19 11 -26 59q-1 14 -2 29t-3 30l-6 66q0 2 -2 12t-2 11v102l2 41q2 32 10 37q12 0 23 -12q10 -14 13 -22q11 -17 18.5 -28t11.5 -16l6 -16q11 -20 11 -27l8 -19q5 -8 8.5 -13.5t5.5 -9.5l8 -11l1 -5 l4 -5l21 -54l14 -31l34 -69q12 -29 25 -56q23 -41 41 -40q26 2 72 83q10 17 22 40.5t26 54.5l16 34q20 35 33 57.5t20 32.5l20 33q15 15 27 54l18 27q10 16 15 26.5t20 18.5q11 -13 13 -21v-65q5 -15 5 -16l-3 -6t-7 -12q-7 -21 -7 -34v-34l7 -17q5 -10 5 -16l-12 -30 l-5 -28v-37q0 -82 -32 -99q-6 -2 -17 -4q-32 -2 -39 -17q-8 -16 4 -31t47 -15q9 0 19.5 1t22.5 3q25 3 23 3h27q7 -2 21 0h21h11h10h20q71 -10 82 -4q18 6 23 23q1 16 -10 25q-22 8 -39 10q-19 4 -38 22q-23 23 -22 49l1 24q0 5 -3 14l-4 12q-3 19 -3 37q0 8 1 21.5t3 31.5 t3 33t1 26q-2 31 -3 52.5t-2 35.5v21q0 6 3 21v30l-7 49v90q0 40 23 80q9 16 25 25q4 3 11 4.5t13 5t10.5 9t4.5 15.5q0 22 -13 33t-33 11q-16 0 -34 -8z" />
<glyph unicode="N" horiz-adv-x="905" d="M787 534q0 -10 -8 -39q0 -6 -2.5 -18t-2.5 -16v-17l-4 -26l-4 -26q-3 -20 -2 -43q3 -73 -13 -101q-12 -19 -29 -21q-18 -1 -86 58q-31 28 -51.5 49t-31.5 36l-18 26q-17 25 -40 51t-51 53q-10 10 -16 16.5t-10 11.5l-18 27q-7 10 -24.5 23.5t-26.5 20.5l-11 14 q-25 35 -30 43l-34 36q-26 28 -41 44t-19 21q-7 10 -14 19t-15 19q-13 16 -28 15q-14 -2 -47 -26q-35 -26 -42 -40q-6 -11 -6 -23q0 -16 13 -35q89 -90 94 -97q10 -17 10 -45q0 1 -1.5 -13.5t-3.5 -44.5l-10 -118l-5 -52v-86q0 -120 -46 -154q-1 0 -31 -15q-22 -11 -26 -22 q-6 -14 4 -27q10 -12 94 -12h15q38 7 71 4q63 -5 69 -1q18 11 15 32q-3 18 -19 24t-31 11q-50 27 -50 92q0 11 1.5 30t1.5 27v132q1 5 2.5 14.5t2.5 14.5v23q0 89 24 97q18 6 54 -34q2 -2 12 -15.5t29 -37.5l24 -31q30 -27 40 -32l13 -17q4 -13 12 -22q7 -7 11 -12t6 -8 l11 -16q36 -34 53 -50l96 -96q5 -8 10 -15l10 -14q11 -16 20.5 -27.5t17.5 -19.5q14 -12 23.5 -21t16.5 -14q16 -16 24.5 -23.5t10.5 -8.5q16 -6 29 4q19 13 28 67q2 17 3.5 35t3.5 36v26q0 4 2.5 12t2.5 11v30q0 2 1 13.5t1 13.5l15 133q1 6 1 21t1 39q0 29 -1 50t-3 33 q-3 22 1 73q3 43 7 55q4 13 21 34q2 2 24 16q22 13 25 20q16 30 0 45q-6 6 -31 8h-52q-14 1 -27.5 2t-27.5 3q-17 1 -30 0.5t-23 -2.5q-23 -3 -39.5 -6.5t-16.5 -21.5q0 -22 27 -26q20 -8 23 -12l14 -7t8 -7q19 -13 27 -35q5 -12 6 -40q2 -23 6 -42t11 -33z" />
<glyph unicode="O" horiz-adv-x="882" d="M411 783q-62 -6 -131 -41q-87 -44 -151 -146q-54 -85 -68 -175q-6 -42 -6 -75q0 -153 114 -265q20 -13 38 -22.5t32 -16.5q49 -33 68 -39q38 -13 66 -16q4 -1 73 -4q179 -9 323 140q116 122 116 269q0 14 -1 29t-3 30q-2 13 -6 31t-11 43q-14 49 -24 69q-14 28 -21 35 q-12 11 -21 19t-14 12q-10 11 -17 20t-11 15q-8 8 -16.5 15t-18.5 15q-25 11 -44.5 18t-33.5 11q-56 24 -77 27q-78 9 -155 2zM193 552q58 163 242 163h26q106 -19 155 -55q59 -43 112 -153q10 -20 15.5 -35.5t7.5 -25.5l6 -63q0 -2 1.5 -9t3.5 -20q6 -26 6 -32q0 -3 -2 -14 t-2 -17q0 -7 0.5 -14.5t1.5 -16.5q-70 -180 -208 -196q-26 -3 -47 -3q-149 0 -251 140q-34 48 -56 126t-22 150q0 45 11 75z" />
<glyph unicode="P" horiz-adv-x="674" d="M85 768q-19 -9 -19 -28q0 -11 8 -25q21 -24 33 -33q14 -14 18 -34q1 -19 1 -36v-31q3 -63 3 -98q0 -27 -3 -67q-3 -41 -3 -60q0 -25 3 -50q0 -4 1.5 -11t1.5 -12v-26q0 -3 0.5 -9.5t1.5 -17.5q1 -16 0 -26q0 -1 -1 -5t-1.5 -8.5t-1.5 -8.5l-1 -4q-4 -7 -4 -25 q-6 -40 -13 -53q-12 -18 -21 -25q-13 -7 -24 -23q-15 -23 -5 -37q11 -17 53 -15h53h77q6 0 30 -3q12 -2 21 -3t15 -1q17 0 27 9.5t6 26.5q-6 22 -27 30q-30 10 -34 12q-18 15 -22 41q-2 10 -4 43q-2 5 0 22q0 5 1 10v10q-2 16 -3.5 26t-3.5 15v31q0 3 2 12.5t2 11.5 q-1 43 -1.5 76t0.5 57q4 102 9 149q6 97 24 113q19 18 72 18q26 0 48 -5q68 -18 94 -50q12 -15 21.5 -42t18.5 -54q13 -36 13 -65q0 -47 -36 -93q-12 -15 -27 -27t-31 -20t-32 -12t-30 -3q-7 1 -16 2.5t-21 4.5q-24 6 -32 6q-5 0 -9 -2q-12 -6 -14 -20q-1 -13 20 -27 q39 -24 85 -24q38 0 77 16q93 38 125 71q39 39 59 138q11 56 3 107q-8 46 -23 68q-22 21 -35 32q-31 22 -49 30q-41 20 -70 25q-23 3 -48 3q-22 0 -55 -3q-17 -1 -27 -1.5t-14 -0.5h-42q-43 -6 -121 2h-19q-77 10 -84 6z" />
<glyph unicode="Q" horiz-adv-x="882" d="M417 778q-47 -6 -103 -29q-90 -39 -162 -129q-66 -82 -84 -166q-11 -52 -11 -105q0 -146 68 -220q91 -98 187 -131q58 -21 148 -21h16q9 0 28 4t29 4q16 0 28 -9q25 -17 40 -62q18 -50 27 -62q54 -66 147 -66q8 0 19 0.5t25 1.5q49 3 59 24q7 12 -1 25q-6 9 -38 15l-39 6 q-63 22 -105 147q-10 29 7 51l38 30q34 34 36 37q13 13 26 31t27 41q42 70 46 149q1 20 1.5 35.5t0.5 28.5q0 82 -24 141q-29 69 -103 145q-14 14 -84 46q-31 14 -51 22t-31 10q-69 17 -167 6zM462 230q15 4 37 4l6 -8q-9 -21 -9 -28q0 -2 14 -35q7 -20 12 -35.5t8 -26.5 q7 -25 -5 -37q-7 -5 -29 -5q-9 0 -20.5 0.5t-25.5 1.5q-29 3 -26 3q-74 19 -139 96q-56 66 -84 147q-22 62 -22 127q0 85 41 155q66 110 201 115q107 3 181 -49q57 -40 82 -74q52 -70 67 -119q25 -79 28 -124q2 -26 -10 -77q-14 -62 -19 -70q-30 -50 -60 -67q-19 -10 -29 -1 q-4 3 -18 44q-13 46 -25 62q-8 10 -41 34q-32 25 -44 30q-33 15 -88 13q-26 -2 -53 -16q-34 -16 -47.5 -40.5t-4.5 -42.5q7 -15 21 -15q7 0 16 7.5t17 14.5q25 10 33 12q6 2 16 -1q10 -2 19 5z" />
<glyph unicode="R" horiz-adv-x="712" d="M482 361q16 18 21 18l25 11q23 10 45 37q25 31 39.5 55.5t19.5 41.5q4 13 4 37q0 81 -33 125q-50 63 -124 81q-38 9 -125 9h-33h-19h-9q-5 -1 -10 -1h-22q-16 0 -28 -4q-4 0 -13.5 -2.5t-12.5 -2.5h-17q-46 0 -64 3q-6 1 -14 1.5t-19 0.5q-24 -8 -29 -17v-10q0 -4 -1 -9 q2 -8 12 -17q27 -14 37 -15q22 -16 22 -83q0 -8 -3 -60q-1 -8 -0.5 -20t2.5 -26l3 -21t1 -5q0 -14 -3 -30q-5 -21 -6 -42q-2 -20 0 -45q1 -17 1 -24q0 -6 0 -3q5 -31 4 -36q0 -17 -6 -35v-15v-34v-50v-24t-1 -25q-2 -36 -12 -48q-7 -7 -32 -17q-23 -11 -27 -21q-6 -14 3 -26 t43 -13h49h65h82t-26 -1q44 2 53 15q10 14 -7 34q-20 16 -35 23q-15 13 -20 34l-8 71v44v60q0 15 -1 -2q2 45 17 55q9 6 31 6q41 0 67 -14q53 -28 70 -71q11 -30 11 -103v-18q0 -54 24 -87.5t82 -55.5q12 -5 30 -5q30 0 66 11t51.5 25.5t22.5 38.5t-11 36l-5 1 q-53 -43 -64 -44q-28 -5 -45 14q-14 14 -14 57q0 8 0.5 17.5t1.5 20.5q1 12 1.5 19.5t0.5 9.5q-2 50 -28 85q-17 21 -80 75v10zM264 658q8 33 28 48q16 11 46 11q38 0 68 -13q116 -50 116 -149q0 -78 -54 -124q-20 -17 -76 -27q-47 -9 -87 -9q-14 0 -20 2q-23 8 -29 33v28 q0 7 -0.5 14t-1.5 14q-6 42 -3 57l11 58z" />
<glyph unicode="S" horiz-adv-x="554" d="M332 675q13 -9 23 -12q7 -2 12.5 -3.5t10.5 -3.5q10 -6 25 -6q9 -4 15 -5.5t8 -2.5q17 -5 32 -5q39 0 60 21q17 17 33 49q18 33 15 47q-4 16 -18 19q-3 1 -34 -13q-14 -6 -33 -6q-5 0 -16 2t-17 2l-32 8h-17q-85 20 -129 20q-73 0 -121 -39q-83 -68 -83 -163q0 -17 3 -35 q10 -77 51 -117q34 -34 116 -67l58 -23q8 -5 14 -9t10 -7l5 -4l6 -4q10 -7 11 -7l7.5 -3l2.5 -1l32 -16q56 -29 75 -76q6 -14 6 -36q0 -38 -15 -60q-38 -60 -125 -65q-42 -2 -126 36q-1 0 -35 14q-9 3 -15 6.5t-11.5 8.5t-11.5 13t-15 21q-16 20 -27 26q-6 2 -9 2 q-5 0 -19 -14q-5 -12 -5 -29q0 -25 7 -60q8 -38 18 -50q12 -13 47 -23h36l35 -12q11 -4 19.5 -6.5t15.5 -3.5q34 -4 70 0q80 10 139 52q53 38 85 99q28 55 28 109q0 89 -56 139q-34 29 -134 74l-18 8l-6 5l-8 5l-6 3l-5 3l-25 10l-28 17q-17 10 -35 19.5t-35 19.5 q-41 29 -48 67q-1 5 -1 15q0 28 24 49q17 16 56 16q24 0 108 -18z" />
<glyph unicode="T" horiz-adv-x="726" d="M91 784q-23 -11 -35 -75q-5 -26 -7 -47.5t-1 -40.5q2 -17 11 -21q11 -5 25 5q11 14 19 27.5t15 25.5q20 33 45 43q19 8 88 8q23 0 37 -2t21.5 -6.5t11 -10.5t5.5 -15q1 -3 1 -11q0 -7 1 -20q1 -15 1 -23v-7l-1 -29v-97q0 -28 3 -35v-31q2 -10 3 -19t2 -19q1 -8 0.5 -17 t-2.5 -17l-9 -39q-2 -20 0 -34q3 -18 3 -32v-39v-85q-5 -29 -13 -43q-23 -21 -39 -36q-11 -17 2 -32q9 -12 19 -13q2 0 25 3h23h72q4 0 12 -0.5t16.5 -1t16.5 -1t13 -0.5q30 0 41 14q10 13 -2 36l-38 40q-6 6 -15 42q-5 23 -5 22v4q0 3 1 7v11q0 1 -0.5 6l-1.5 15t-1 15v6 v202v16l6 97l-3 30v22v51t-1 9q3 39 22 57q13 11 55 16q37 1 57 -3q44 -12 55 -41q2 -17 3 -33t2 -30q8 -9 19 -7q24 5 41 47q2 7 5.5 19.5t8.5 32.5q9 43 9 62q0 8 -1 10q-9 15 -31 15q-14 0 -37 -14q-22 -8 -37 -10q5 1 -13 1h-60h-29q-17 0 -26 3h-259q-31 0 -49.5 0.5 t-24.5 1.5q-4 0 -32 9q-24 7 -36 7q-5 0 -7 -1z" />
<glyph unicode="U" horiz-adv-x="821" d="M568 76q-5 1 -9 4t-10 2q-6 -3 -10.5 -5.5t-8.5 -4.5q-44 -22 -89 -22q-57 0 -114 36q-54 34 -64 82q-2 21 -3 42t-3 43v62q0 10 1.5 23.5t1.5 19.5v45l2 45v19q0 3 -1 12.5t-1 10.5l-3 24q0 2 1.5 13t3.5 31l11 85q6 46 6 67q0 39 -14 50q-5 3 -28 3q-32 0 -86 -6 q-53 -6 -62 -9q-22 -7 -24 -26q-1 -15 12.5 -22.5t26.5 -14.5q25 -18 24 -54q0 -6 2 -20t6 -37v-28q0 -7 -9 -88v-68l-2 -65l6 -55q0 -4 -0.5 -8.5t-1.5 -10.5q-2 -8 -2.5 -13.5t-1.5 -10.5v-15q0 -42 16 -90q20 -59 50 -88q60 -57 190 -57q34 0 57 4l86 23q7 3 44 25 q7 4 11.5 7.5t8.5 5.5q2 1 11 10q2 2 11 4q13 1 26 -14q9 -11 13 -21.5t19 -22.5q18 -15 45 -20q26 -4 65 2q38 6 60 34q9 12 -12 25q-19 7 -27 8q-26 8 -39 43q-9 21 -7 76q1 33 0 40q-3 16 -19 34q1 6 10 6q7 6 9 9q2 11 1 13v10q0 1 2 30q1 14 1.5 22t0.5 12v57 q0 4 0.5 8.5t1.5 10.5q3 13 3 18t1 15v20v24q0 19 1 39t1 39v29q4 26 6 48.5t2 42.5q0 50 -13 64q-8 9 -33 9q-4 0 -55 -6q-84 -11 -103 -18q-25 -10 -13 -32q4 -8 27 -16q24 -8 26 -10q24 -20 25 -56v-32q0 -15 1 -31l7 -51q0 -5 -3 -27q-1 -11 -1.5 -18.5t-0.5 -11.5v-30 q0 -27 1 -29v-28q-6 -18 -6 -27q-4 -16 -4 -25q-4 -23 -4 -68v-16q-2 -22 -6.5 -40.5t-9.5 -35.5q-7 -22 -25 -38q-9 -15 -9 -19q-1 -5 -1 -9v-9z" />
<glyph unicode="V" horiz-adv-x="773" d="M111 764q-29 -5 -36 -2q-24 -3 -34 -22q-8 -14 1 -29t18 -20q16 -8 19 -10q7 -5 14.5 -14.5t15.5 -22.5q10 -15 15 -24.5t7 -13.5t5.5 -13t8.5 -25l10 -30q5 -16 10 -28.5t10 -22.5q6 -12 29 -38q18 -20 20.5 -39.5t4.5 -29.5l7 -20l33 -61l33 -83q10 -18 18 -42l29 -83 q34 -96 60 -108q13 -6 26 0q13 7 31 44q5 11 9 23t9 23l10 19l6 17l31 68q7 17 11.5 30.5t8.5 23.5l48 132q2 7 4 11.5t3 7.5l16 60l68 164q7 19 12.5 35t10.5 30q7 11 27 25q7 5 15 6.5t16 9.5q18 17 14 33t-25 20q-6 1 -21 -1t-18 -2l-38 5q-12 1 -43 0q-31 -2 -32 -3 q-18 -9 -17 -25q0 -16 18 -26q24 -14 27 -18q5 -8 5 -18q0 -16 -12 -47q-14 -33 -16 -38q-2 -13 -4.5 -26t-6.5 -26q-7 -20 -11.5 -35t-8.5 -25q-16 -42 -27 -71t-19 -48q-6 -15 -12 -28.5t-11 -26.5q-34 -90 -45 -98t-22 -1q-8 4 -48 76q-43 78 -56 122l-14 45 q-11 32 -19.5 54.5t-14.5 36.5q-5 14 -11 28.5t-11 28.5q-13 33 -13 60q0 15 8 25l5.5 5.5t14.5 12.5q8 6 14 11t9 16q5 15 -6 26q-9 9 -30 10q-8 1 -18 1.5t-23 -0.5q-17 -1 -24 -1.5t-5 -0.5h-57h-8q-4 0 -10 1h-18z" />
<glyph unicode="W" horiz-adv-x="1090" d="M776 202q-17 0 -24 19q-4 8 -7 30q0 17 -8 31l-5 8l-5 7q-7 10 -7 14l-7 18q-8 24 -10 28q-4 17 -8 25l-10 19q-38 74 -38 83q0 6 26 70l19 45q16 57 27 75t35 34q9 5 20.5 10.5t15.5 11.5q13 13 2 30q-7 13 -30 13q20 0 -34 -3q-10 -1 -18 -1h-15l-31 -2h-193 q-86 0 -95 -10q-9 -9 -3 -27q4 -11 14 -19.5t20 -16.5q15 -14 28 -36q22 -41 36 -81l11 -34l15 -27l5 -14l4 -6l5 -6l19 -28l15 -23q0 1 -5 -16l-14 -28q-9 -26 -10 -27q-4 -19 -6.5 -32t-3.5 -21q-3 -29 -19 -69q-16 -42 -24 -40q-3 1 -5 2l-4 2q-12 8 -18 25 q-5 14 -7.5 22t-3.5 10q-6 10 -9.5 16t-5.5 9l-14 26l-45 107q-16 38 -27 66.5t-16 48.5l-9 32q-11 17 -14 26.5t-4 13.5q-2 12 -3 13q-2 5 -4.5 10.5t-5.5 10.5q-4 7 -4 11t6 21q4 12 6.5 15.5t13.5 9.5q8 5 15 10t11 14q5 13 -4 26.5t-49 14.5q23 -1 10 -1h-61h-66 q-89 0 -97 -11q-11 -8 -7 -26q4 -19 15 -23.5t22 -8.5q28 -15 58 -75q11 -23 19 -43.5t13 -38.5l6 -24q15 -38 28 -65l111 -253l4 -5l1 -4l4 -5l2 -4l9 -16q7 -21 7 -28q3 -17 11 -28l6 -22q5 -18 22 -52q20 -42 33 -50q10 -6 26 0q14 7 28.5 36t19.5 60q11 35 19.5 60 t15.5 41l9 19l10 27q4 9 5.5 15t2.5 9q1 8 1.5 13t0.5 7q0 24 26 38q20 0 31 -18q4 -5 7 -8.5t5 -5.5l12 -7.5t5 -3.5q9 -39 7 -61l12 -30q4 -12 5.5 -19.5t2.5 -11.5q20 -39 25 -61q17 -84 43 -97q12 -7 24 -2q13 6 23 31l15 45l40 75q7 16 12 30t9 25l63 166q0 4 5 19 l10 29q4 10 7.5 18.5t5.5 15.5l31 66l8 30l2 8l2 7q0 3 2.5 6.5t2.5 7.5l14 48q1 4 5 14t12 27t12.5 27t6.5 12q21 18 40 25q20 9 20 35q-13 14 -21 17q-4 1 -25 -2q-2 0 -8 0.5t-16 1.5q-5 2 -11.5 2.5t-11.5 1.5q-8 1 -14 0.5t-10 -1.5l-24 -3q-14 -1 -26 -1q-11 0 -22 -1 q-16 -7 -16 -22q0 -14 26 -32q10 -5 18.5 -10t15.5 -18q1 -26 -6 -48l-7 -20q-6 -16 -10 -23l-98 -276l-29 -81q-22 -27 -33 -35zM659 673q5 -46 -47 -109q-39 63 -53 134q8 11 19 14q5 1 9 2t9 2q26 2 39 -4q21 -12 24 -39z" />
<glyph unicode="X" horiz-adv-x="724" d="M463 15q3 -10 13 -14q2 -1 6.5 -2t9.5 -3q2 -1 30 -1h32l29 2q5 -1 28 -1h16q5 0 14 -0.5t21 -1.5q24 -3 34 -3q29 0 40.5 13t3.5 28q-7 14 -17 18t-20 7q-22 11 -35 31l-78 114q-74 109 -93 154q-14 36 -14 43q0 12 10 33q29 50 48 76l84 119l13 16q8 10 13.5 18.5 t8.5 13.5q14 16 31.5 22t29.5 9q22 12 22 27q1 12 -15 24q-8 6 -85 8q-73 2 -84 -1q-22 -4 -27 -17q-3 -11 5 -22q18 -12 24 -12q18 -14 20 -23q5 -17 -21 -52q-11 -15 -21.5 -30t-21.5 -29l-33 -51q-13 -21 -26.5 -40.5t-25.5 -18.5q-18 2 -46 59q-13 31 -29 64l-11 20 l-12 20t-12 21q-9 15 -9 25q0 7 1 10q2 9 3 10.5t11 10.5q11 7 17.5 10.5t7.5 4.5q5 8 5 18q0 21 -9 21q-43 -1 -88 0q-11 0 -36 3q-12 2 -21 3t-16 1q-12 0 -30 -3q-23 -3 -28 -3q-15 -1 -26 -1h-16q-12 -5 -12 -27q0 -26 12 -24q38 6 67 -24q18 -18 45 -69q28 -52 43 -69 q13 -13 15 -23l8 -23q5 -14 25 -42q27 -38 37 -84q3 -14 3 -19q0 -3 -20 -35q-4 -9 -9 -14l-8 -13q-8 -8 -13 -14.5t-9 -10.5l-99 -125q-8 -11 -13 -18.5t-7 -9.5q-7 -11 -12 -18.5t-9 -12.5q-16 -18 -28 -22q-21 -5 -30 -10q-21 -13 -22 -28q-2 -16 6 -22t37 -7q20 -2 53 0 q20 1 29 1t7 0h19h7t14 -1q12 -2 20 1q9 0 16.5 9t7.5 20q-5 13 -13 16.5t-17 6.5q-22 9 -27 23q-5 15 27 53l45 51l9 16q13 24 26 39q8 9 17 18t17 18l28 32q10 -8 17 -14t12 -11q3 -3 16 -24l7 -10.5t13 -20.5q15 -22 18 -25l14 -42q4 -8 7 -14.5t5 -11.5q19 -33 17 -52 q-2 -14 -6 -18l-18 -15q-19 -7 -19 -29z" />
<glyph unicode="Y" horiz-adv-x="781" d="M771 665q15 13 16 19q4 4 5 22q1 3 1 8q1 20 -10.5 34.5t-43.5 20.5q-28 4 -50 0q-52 -11 -104 -59q-54 -48 -66 -97l-15 -61q-13 -21 -15 -23q-5 -11 -9 -24q-8 -19 -14 -29.5t-10.5 -15t-7.5 -5.5l-3 -1q-3 -1 -10 3.5t-11 17.5l-2 9t-6 26q-6 28 -15 50 q-70 180 -157 213q-12 6 -83 3q-17 -1 -28 -1.5t-16 -2.5q-7 -2 -16.5 -7t-21.5 -13q-35 -23 -35 -40q0 -5 5 -17q6 -15 16 -15q3 0 8 3t10 7t9.5 7t7.5 3q13 4 20 3q5 -2 9.5 -3.5t9.5 -3.5q28 -11 39 -18q7 -5 36 -36q13 -15 21 -24t10 -13q5 -10 11 -19.5t11 -19.5 q4 -5 12.5 -12.5t22.5 -16.5q4 -7 3 -14l-1.5 -9t-0.5 -2q0 -20 4 -27l9 -35q19 -72 19 -114v-53q0 -16 1 -21v-18v-38v-70t1 -5q-1 -50 -22 -67l-30 -15q-17 -9 -19 -26q-1 -13 9.5 -21.5t23.5 -8.5q4 0 12 1t16 2.5t15.5 2.5t10.5 1l35 -3q6 -1 18 1t16 2h18q4 0 27 -3 q24 -3 37 -3q19 0 27 6q11 15 7 28q-5 16 -21 24q-14 5 -21.5 8l-7.5 3q-24 16 -24 77q0 12 1 29.5t1 21.5v63l8 57v25q0 35 13 69.5t27 70.5l12 38q21 67 63 105q34 31 103 59q21 9 40 3q14 -7 20 -13l5 -2l5 -1h9z" />
<glyph unicode="Z" horiz-adv-x="648" d="M449 688q-3 -29 -9 -41l-82 -147q-11 -20 -19.5 -35.5t-15.5 -28.5l-18 -27q-2 -3 -3.5 -6t-3.5 -5l-63 -95q-8 -13 -13.5 -21t-8.5 -12l-28 -44q-26 -42 -41.5 -66t-20.5 -30q-19 -26 -36.5 -49.5t-34.5 -45.5q-2 -14 7 -24q12 -13 101 -11h101h36h234q4 0 22.5 -2 t31.5 -2q37 0 53 19q25 29 25 108q0 16 -3 24q-9 24 -28 25q-16 1 -39 -34q-36 -57 -77 -72q-26 -9 -95 -9h-64h-59q-43 4 -43 25q0 20 26 63q16 21 29 41l193 314q14 23 25 39.5t19 27.5l60 81q55 73 55 98q0 24 -44 27q7 -1 -8 -1h-52h-166q-8 0 -15.5 -2t-19.5 -2h-22h-6 q-4 0 -13 1q-8 1 -14.5 1.5t-10.5 0.5h-101q-22 -1 -46 0q-29 3 -31 3q-16 0 -24 -7q-28 -21 -36 -140q-2 -37 13 -50q10 -8 27 -3q13 4 31 37q5 11 11 22.5t12 22.5q28 43 68 54q15 4 82 4h56q30 -7 51 -10t32 -4z" />
<glyph unicode="[" horiz-adv-x="311" d="M305 794l-47 -1h-23q-1 0 -9.5 0.5t-24.5 1.5t-28.5 1.5t-23.5 0.5q-45 0 -54 -9q-15 -15 -10 -76v-18q0 -3 5 -18v-98l4 -29v-101q0 2 0.5 -5t1.5 -22q1 -25 0 -43l-6 -96v-17l-5 -306q1 -3 -2 -19l-1.5 -12l-0.5 -4v-22q-2 -16 -3.5 -26.5t-1.5 -15.5q0 -29 18 -45 q14 -13 34 -13q-1 0 7.5 1.5t27.5 3.5h85q60 0 68 15q0 6 3 20q1 7 -3 21q-5 9 -23 10h-13t-13 1q-18 5 -27 5q-4 0 -13 -1t-12 -1q-16 6 -23 27q-1 2 -1 29v9t-1 22q0 9 -1 15t-1 14l7 63v8q0 5 1 12v17v52q-2 16 -3.5 33t-1.5 35v84q0 5 -1.5 15t-1.5 13v105l2 17v65 q0 5 -3 14t-3 17v61q-2 8 3 53q5 46 7 50q8 10 51 17q13 2 25.5 3.5t25.5 3.5l17 7v16l3 13q0 22 -11 27z" />
<glyph unicode="\" horiz-adv-x="258" d="M198 416l-2 2q2 -85 3.5 -147.5t0.5 -104.5q5 -105 7.5 -159.5t2.5 -60.5q0 -87 -65 -131q-26 -17 -46 -17q-26 0 -26 19q0 12 9 24.5t17 23.5q19 31 19 114q0 78 -1.5 135.5t-5.5 95.5q-1 7 1 21.5t2 20.5q0 36 -17 48q-5 4 -33 10q-17 5 -17 19q0 30 16 33 q8 2 16.5 3.5t16.5 3.5q17 11 17 57q0 8 -0.5 19t-1.5 25q-1 15 -1.5 26t-0.5 19q0 96 16 144q25 84 99 84q26 0 45 -25q24 -32 34 -36q11 -4 21.5 -8.5t10.5 -18.5q0 -16 -17.5 -26t-33.5 -10q-26 0 -43 23q-23 32 -27 35h-5q-16 -9 -19 -71v-83v-48q0 -10 4 -29.5t4 -29.5 z" />
<glyph unicode="]" horiz-adv-x="311" d="M52 -180q4 -10 22 -10l21 2h18q9 0 15.5 -2t10.5 -2h37q-1 0 14 -1.5t29 -1.5q49 0 66 17q14 14 15 32q0 3 -1 12t-3 24v143l-5 27v318q-3 12 -3 39q6 18 6 39v190q0 12 6 44q7 31 7 49q0 25 -11.5 40.5t-50.5 18.5q5 -1 -8 -1h-45h-35q-20 0 -42 -2t-46 -6 q-8 -11 -8 -28q-3 -16 3 -28l56 -8q1 0 8 0.5l21 1.5q16 2 28 -5q21 -11 20 -81l-6 -660q-2 -92 -16 -102l-106 -3q-12 -5 -13.5 -11.5t-2.5 -13.5v-17q-1 -5 -1 -8v-6z" />
<glyph unicode="^" horiz-adv-x="363" d="M176 724l-35 -45.5t-24 -33.5q-12 -15 -21 -25.5l-15 -17.5q-12 -22 -16 -32q-7 -15 -7 -23q0 -9 21 -7q24 3 45 33q7 10 11.5 18t8.5 14q26 26 42.5 38.5t24.5 19.5q13 -8 18 -9q3 -3 8 -7.5t10.5 -9.5l11 -10t8.5 -8q13 -20 18 -30q7 -7 11.5 -12t8.5 -9q12 -12 18 -20 q9 -9 22 -11q17 -2 18 11q0 10 -6 27q-9 24 -37 64q-5 5 -12 12.5t-17 17.5l-15 21l-21 24t-9 10q-20 19 -48 15q-15 -8 -22 -15z" />
<glyph unicode="_" horiz-adv-x="553" d="M603 -124v39h-597v-39h597z" />
<glyph unicode="`" horiz-adv-x="282" d="M280 543q2 5 -4 11.5t-12 14.5q-10 11 -17 18.5t-12 12.5q-10 11 -17 19t-12 13q-14 14 -25 24.5t-19 18.5q-13 14 -22.5 24t-14.5 17q-19 13 -35 9q-19 -6 -24.5 -16t-6.5 -15q-2 -18 11 -31q14 -11 24 -19t18 -13q32 -25 46 -31q40 -23 60 -39q7 -6 12 -10.5t8 -7.5 q9 -4 17 -4q24 0 25 4z" />
<glyph unicode="a" horiz-adv-x="489" d="M132 185q0 -11 -18 -23l-26 -26q-19 -22 -19 -53q0 -29 26 -55q25 -25 56 -30h11q11 0 33 1t33 1h12q29 3 44 10q36 15 43 15q13 0 26 -11q8 -5 14.5 -8.5t11.5 -5.5q21 -7 51 -4q32 3 39 22q8 14 -3 29q-45 22 -45 59v104q0 69 -3 83q-10 43 -62 78q-40 26 -108 26 q-72 0 -120 -24q-62 -31 -67 -98q-2 -33 20 -53q1 -1 51 -37zM127 280q3 30 41 47q10 6 41 6q56 0 77 -15q31 -22 30 -46q-2 -15 -7 -19q-2 -2 -19 -9q-35 -15 -84 -15q-85 0 -79 51zM206 164q57 25 87 28q19 1 29 -13q5 -10 7 -33q2 -27 -5 -42q-17 -42 -59 -50 q-48 -9 -73 15q-25 23 -20 56q3 18 8.5 24t25.5 15z" />
<glyph unicode="b" horiz-adv-x="510" d="M143 786q-13 -3 -40 -18q-27 -14 -33 -21q-20 -24 -11 -51q8 -11 15.5 -18.5t12.5 -11.5q8 -11 9 -16q-1 -5 -1 -9v-8q1 -23 1 -39v-26l7 -175l3 -28v-130q0 -43 -15 -134q-7 -42 -10.5 -62t-3.5 -21q8 -19 24 -20q3 -1 42 16q24 11 40 11q11 0 52 -15q11 -4 24 -6.5 t27 -3.5q58 -6 103 10.5t80 74.5q30 50 38 103q1 8 1.5 15.5t0.5 15.5q0 83 -67 135q-38 29 -94 29q-38 0 -72 -15q-1 0 -38 -18q-20 -9 -29 -9q-7 0 -11 3q-10 6 -14 45q-5 33 -3 50l5 51l-3 23q0 5 -2.5 9.5t-2.5 10.5v63q0 14 -0.5 26.5t-1.5 23.5l6 49q1 5 0.5 15.5 t-1.5 27.5q-3 37 -8 44q-12 8 -30 4zM188 255q15 40 57 55q25 9 55 9q33 0 52 -13q23 -17 42 -65q16 -43 18 -74q0 -16 -23 -62q-23 -44 -43 -58q-13 -8 -36 -8q-31 0 -61 12q-43 18 -51 53q0 -1 -3 32q-3 34 -3 43q0 18 -6 38q-8 13 2 38z" />
<glyph unicode="c" horiz-adv-x="408" d="M391 66q-5 12 -17 12q-4 2 -19 -5q-55 -23 -75 -23q-24 0 -54 18q-45 26 -59 67q-2 8 -4 26t-3 47q-3 91 34 116q10 7 22 7q15 0 31 -10q54 -33 55 -33q36 -11 54 -4q32 11 43 47q6 17 -5 28q-6 4 -51 15q-55 11 -90 11q-19 0 -32 -3q-62 -14 -96 -45q-41 -35 -66 -108 q-8 -22 -8 -51q0 -73 36 -118q55 -69 138 -69q10 0 21 1t25 3q53 6 68 13q18 7 35 24t17 34z" />
<glyph unicode="d" horiz-adv-x="555" d="M448 798q-20 -4 -41 -19q-6 -2 -11.5 -5t-10.5 -5q-11 -4 -16 -5.5l-5 -1.5q-20 -15 -20 -27q0 -14 15 -24l18 -12l6 -4q18 -20 18 -51q0 -9 -1.5 -25.5t-1.5 -24.5v-125q0 -1 0.5 -7t1.5 -19t1.5 -22.5t-0.5 -16.5q0 -21 -5 -26q-11 -11 -40 -5q-7 2 -21.5 5.5 t-36.5 8.5q-24 7 -41 7q-32 1 -84 -30q-47 -29 -81 -75q-32 -46 -34 -87q-1 -61 9 -94q16 -47 71 -85q31 -22 104 -22q57 0 90 13l23 12q9 4 22 3q12 -7 23 -13l22 -12q16 -6 46 -6q46 0 62 10q21 13 19 26q0 15 -11 19.5t-21 7.5q-21 10 -27 34q-1 2 -1.5 12.5t-2.5 28.5 q-1 5 -1 25v55v248q-1 2 -1 24v33q-2 28 -3.5 41.5t-1.5 12.5q2 20 3.5 33.5t3.5 20.5v24q14 126 -5 143q-9 8 -33 2zM208 325q15 5 26 5q15 0 84 -25q5 0 17.5 -1t19.5 -1h17q9 -2 17 -14q13 -20 13 -97q0 -29 -6 -44q-39 -93 -105 -93q-44 0 -91 47q-18 19 -36 66 q-17 49 -17 81q0 54 61 76z" />
<glyph unicode="e" horiz-adv-x="418" d="M274 167l34 6h35q16 1 26.5 2t16.5 3q13 4 22.5 19.5t9.5 37.5q0 31 -18 66q-22 43 -66.5 69.5t-95.5 26.5q-39 0 -70 -21q-26 -18 -66 -69q-45 -57 -45 -145q0 -28 7 -48q33 -94 129 -116q16 -4 43 -4q87 0 131 38q17 17 14 31q-5 20 -24 20q-6 0 -18 -5 q-10 -5 -14.5 -7.5l-4.5 -2.5q-10 -4 -21 -6.5t-23 -3.5q-25 -2 -52.5 11t-42.5 33q-1 5 -5 9v4l-1 5l-2 8l-7 8q-5 16 -4 19q2 5 13 12h99zM191 219q-27 0 -34 19q0 15 7 26q5 13 15 25q36 47 57 47q30 0 52 -16q30 -22 32 -55q1 -25 -19 -36q-16 -12 -73 -10h-37z" />
<glyph unicode="f" horiz-adv-x="258" d="M214 677q10 -8 24 -33q25 -28 53 -24q29 5 41 24q7 13 -4 27q-17 11 -24 11q-12 4 -20 19q-26 32 -38 37t-22 5q-33 0 -58 -18q-57 -41 -57 -210v-38q2 -14 3 -27t1 -24q0 -44 -14 -55q-3 -3 -10 -4t-14.5 -2.5t-14.5 -4t-10 -6.5q-2 -2 -3 -15q-2 -14 0 -15 q6 -12 26 -17q22 -6 27 -8q14 -11 14 -47q0 -12 -1.5 -27l-1.5 -15l7 -75v-152q3 -35 -6 -78q-6 -29 -13 -40q-8 -12 -14 -22t-11 -18q-1 -8 1 -15q7 -12 24 -12q20 0 46 17q65 42 65 131q0 6 -0.5 19.5t-1.5 34.5l-8 166q-6 131 16 144q20 2 38 3.5t35 1.5q14 6 16 24 q1 19 -12 25h-38q-27 0 -38 7q-18 10 -20 51q0 10 -3.5 25t-3.5 28v93v5t1 8v12v36q0 2 5 24q6 20 13 24h5z" />
<glyph unicode="g" horiz-adv-x="492" d="M392 476q-10 -7 -14 -11.5t-3 -24.5q0 -8 4 -22t4 -20q0 -28 -31 -28q-2 0 -12 2l-30 6h-19q-28 5 -52 5q-69 0 -110 -37q-48 -43 -43 -96q3 -36 16 -53q19 -20 25 -24q13 -12 13 -18q0 -4 -3 -8q-20 -24 -38.5 -46.5t-14.5 -46.5q1 -9 7.5 -24.5t6.5 -23.5q0 -10 -7 -20 q-3 -5 -10 -9t-14.5 -11t-13 -19t-5.5 -32q0 -47 46 -77q60 -39 188 -39q69 0 109 14q22 7 59 41q37 31 42 53q2 11 2.5 24t-1.5 30q-8 34 -28 55q-35 39 -104 39q-10 0 -22.5 -1t-28.5 -3l-29 -7q-16 -4 -48 -4q-56 0 -73.5 16t-11.5 39q8 32 32 41q2 2 29 -6q31 -7 49 -9 q39 -3 78 5q33 7 71 36q42 33 52 63q5 17 5 26q0 13 -12 30q-8 11 -13 21.5t-9 19.5q-4 11 -4 17q0 2 5 9q3 3 5.5 7t4 10t2 16t-0.5 27q-1 28 -11 42q-5 8 -19 19q-8 7 -20 7zM192 250q-7 67 41 87q2 1 7.5 2t12.5 2t13 1h9l42 -18q44 -31 43 -89q-2 -23 -3 -33 q-1 -4 -2 -7t-3 -7q-4 -10 -16 -12q-22 -13 -49 -13q-21 0 -39 9q-29 15 -41 30.5t-15 47.5zM223 -148q-44 10 -57 21q-13 10 -26 32t-13 38q0 21 25 21q1 0 15.5 -2.5t42.5 -7.5q10 -1 16.5 -1.5t10.5 -0.5q2 0 15 1.5t36 3.5h18q20 2 32.5 3t18.5 1q41 0 54 -16 q13 -18 5 -41q-21 -63 -105 -63q-38 0 -88 11z" />
<glyph unicode="h" horiz-adv-x="553" d="M210 354v74l-3 36v15v14q-1 5 -1 8v6v63q2 22 1 24v13q-1 5 -1 12l8 48l-3 99q-4 19 -19 22q-4 1 -52 -19q-43 -18 -50 -22q-19 -16 -19 -31q1 -11 7 -15.5t13 -8.5q20 -17 23 -25q2 -3 6 -49q2 -21 3 -33t1 -15q-2 -25 -3 -37l-1 -12q1 -17 3 -25q4 -9 4 -22l-7 -35 q-3 -13 -3.5 -26t-1.5 -16v-65v-26v-144q-1 -4 -1 -33v-32q0 -21 -6 -31q-19 -25 -27 -32q-9 -17 -3 -26q8 -11 40 -11q3 0 11 0.5t21 1.5t22 1h17q63 -3 69 0q13 9 10 24t-21 25q-23 13 -27 21q-10 13 -13 93q-3 72 2 92q11 42 63 58q18 5 33 5q37 0 59 -19q7 -10 12 -18 t7 -14q11 -23 12 -46q2 -23 -1 -46q-1 -14 -1.5 -20t-0.5 -2v-27q-2 -22 -3.5 -35t-1.5 -18q0 -35 35 -67q19 -16 53 -16q72 0 80 44q3 17 -3.5 22t-13.5 3q-12 -3 -13 -3q-19 0 -23 4q-17 14 -17 51q0 5 3 26t8 59v20q0 32 -0.5 50.5t-1.5 23.5q-7 35 -45 61q-46 31 -86 31 q-24 0 -62.5 -12.5t-80.5 -25.5z" />
<glyph unicode="i" horiz-adv-x="270" d="M136 619q-36 -15 -36 -52q0 -32 22 -51q17 -14 36 -14q22 0 42 15q25 18 24 43q-1 31 -32 50q-30 20 -56 9zM161 374q-23 -14 -39 -14q-33 -7 -39 -11q-19 -13 -18 -25q2 -15 16 -22q11 -4 23 -11q22 -19 22 -56q0 -13 -3 -35q-2 -14 -3 -22t-2 -12q-2 -15 0 -32 q1 -11 1 -17v-6q0 -27 -35 -60q-7 -7 -10.5 -10t-4.5 -4q-3 -5 0 -17q4 -16 23 -22q8 -2 17 2q13 4 18 4q8 1 16.5 1.5t19.5 -0.5l35 -2q5 0 16.5 -1.5t18.5 -1.5q18 0 24 16q7 14 -7 33q-16 10 -24.5 16t-10.5 8q-3 6 -3 34v36q0 6 2 17.5t2 16.5v96q2 14 3 27.5t1 26.5 q0 36 -10 46q-13 12 -49 1z" />
<glyph unicode="j" horiz-adv-x="270" d="M173 503q42 14 52 33q8 15 2.5 31t-17.5 28.5t-27 21t-25 8.5t-20 -5t-17.5 -13t-12 -18.5t-4.5 -20.5q0 -12 8 -31q11 -24 26 -29q9 -4 35 -5zM197 383q-92 -12 -132 -41v-19q1 -6 16 -12q21 -8 33 -20t14 -18q3 -7 -1 -23l-5 -16q-1 -2 -2 -12.5t-3 -27.5t-3 -27.5 t-1 -13.5v-21q5 -15 5 -23v-52q0 -4 -1.5 -13t-1.5 -12q0 -1 0.5 -4.5t1.5 -8.5t-2 -13l-2 -47q-1 -33 -8 -50t-14 -23q-18 -17 -24 -18q-17 -17 -14 -30q6 -25 42 -25q39 0 65 20q21 18 46 87q6 21 4 46q-3 40 -3 42v20q0 11 0.5 24.5t1.5 28.5l5 74q1 9 -2 34 q-1 12 -1.5 18.5t-0.5 7.5v15q1 2 1 40v93q-5 15 -14 20z" />
<glyph unicode="k" horiz-adv-x="469" d="M209 226q-4 0 -7 7t-3 14q0 5 3 17t2 18l-0.5 6l-1.5 18q-4 9 -4 23v15q4 11 4 20v74q0 3 0.5 9.5t1.5 16.5q3 19 3 25v24q1 -5 1 6v37v97q0 -7 0 2q0 10 1 36q1 18 0.5 32.5t-1.5 25.5q-2 31 -7 37q-10 9 -34 4q-17 -7 -28.5 -12.5t-18.5 -10.5q-12 -4 -25 -9t-22 -20 q-8 -14 0 -29q10 -13 16 -18q9 -9 13 -15q5 -9 10 -34q1 -6 1.5 -14.5t-0.5 -19.5q-1 -16 -1.5 -24.5t-0.5 -9.5v-86v-11q-1 -5 -1 -11v-15q0 -2 0.5 -7.5t1.5 -15.5q0 -14 5 -22v-27q-7 -11 -7 -30v-20v-9t1 -18t1.5 -18.5t0.5 -9.5v-106l-1.5 -7.5t-3.5 -22.5v-32 q0 -44 -25 -63q-17 -14 -10 -30q6 -13 32 -16q-1 0 15.5 1t50.5 3q8 1 35 -2q20 -4 31 -2q21 5 25 17q5 12 -8 25q-12 10 -23 15q-18 17 -19 19q-5 11 -9 44q-5 41 13 57q15 13 36 7q22 -6 46 -50q8 -16 14.5 -31t10.5 -29l5 -18q20 -44 55 -53q30 -9 56 8q43 31 43 63 q0 29 -23 29q-10 -9 -18 -23q-11 -9 -24 -9q-17 38 -28 62.5t-15 35.5l-7.5 8.5t-23.5 25.5q-15 16 -12 34q4 28 34 48q19 12 37 24t37 23q28 19 28 35t-11 24q-5 1 -54 0q-46 -3 -52 -5q-22 -9 -22 -24q0 -6 3 -10q0 -3 -1.5 -5.5t-1.5 -4.5q-7 -12 -9 -19l-35 -38 q-34 -37 -46 -46q-16 -13 -29 -10z" />
<glyph unicode="l" horiz-adv-x="270" d="M173 787q-14 -3 -56 -24q-47 -26 -51 -38q-3 -11 11 -28q10 -6 18 -12q13 -10 15 -14q8 -12 9 -34q0 -4 -1 -8v-7q1 -24 1.5 -37t0.5 -15q-1 -29 -1 -55t-1 -51q0 -6 -1 -14.5t-2 -17.5t-2 -17.5t-1 -13.5q0 -22 0.5 -52.5t1.5 -69.5l3 -34v-73v-55q-1 -40 -17 -54 q-2 -2 -27 -15q-15 -9 -15 -25q0 -14 17 -23q4 -2 84 0q26 0 47 -0.5t38 -1.5q21 4 25 16q4 13 -6 25q-16 11 -24 13l-10 5q-9 7 -10 11q-4 7 -6.5 12.5t-4.5 10.5q-3 8 -5 14t-3 10q-3 10 6 45q2 10 2 48q0 4 1 12.5t1 12.5q3 16 3 22l-2 25q0 4 -2 12.5t-2 10.5v30 q-1 1 -1 19q0 3 -1.5 9.5t-1.5 8.5q0 6 2 19t2 18l6 270q2 92 -12 106q-9 8 -28 4z" />
<glyph unicode="m" horiz-adv-x="793" d="M451 336q-11 4 -13 7q-4 5 -7.5 9t-7.5 8q-21 12 -30 14q-26 10 -43 10q-19 0 -83 -34q-32 -17 -45 -10q-10 7 -10 23q0 25 -26 25q-36 0 -94 -24q-31 -13 -34 -27q0 -18 17 -24q23 -8 34 -28q6 -13 5 -36q0 -1 -1.5 -8.5t-1.5 -11.5q0 -3 1 -10.5t2 -15.5l2 -16t1 -12 q6 -90 -15 -111q-12 -8 -24.5 -16.5t-10.5 -24.5q2 -14 18 -20h30q5 0 14 -0.5t19 -1t19.5 -1t15.5 -0.5q29 -1 46 -0.5t21 1.5q19 7 22 22q2 14 -22 33q-17 13 -26.5 21t-11.5 10q-5 10 -5 41v51t1 31q3 67 42 87q30 14 55 14q20 0 34 -8q27 -16 38 -45q0 -17 8 -25l8 -25 q-6 -18 -6 -35q0 -8 1.5 -15.5t1.5 -19.5q3 -7 1 -18q-4 -12 -4 -18v-17q-1 -8 -5.5 -14t-25.5 -21q-15 -11 -14 -26q1 -12 18 -23q16 3 28 3q4 0 11 -0.5t18 -1.5t18.5 -1.5t12.5 -0.5q68 -2 70 0q15 7 15 22q0 16 -11 25l-12 6t-12 7q-15 9 -20 25q-3 9 -3 34q0 12 3 32 q2 12 3 19.5t2 11.5v38q0 6 -1 20t-1 21q2 17 3 20t18 17q31 25 57 25q34 0 63 -38l10 -24q14 -23 14 -45q0 -12 -5 -24.5t-6 -27.5q1 -41 3 -71l-1 -18q-1 -25 7 -39t33 -32q18 -11 41 -14q21 -2 35 3q25 9 33 18q13 17 10 31q-8 11 -24 11q-17 0 -24 7q-19 16 -19 93v19 q0 2 0.5 8t1.5 14t1.5 17t0.5 16q0 2 -1.5 14t-3.5 33q-6 46 -17 62q-34 43 -115 49q-42 3 -91 -25q-38 -21 -54 -24z" />
<glyph unicode="n" horiz-adv-x="553" d="M227 342q-6 4 -14 19q-7 14 -13 18t-13 4q-6 0 -42 -12q-12 -5 -27 -6q-8 -1 -26 -11q-34 -18 -34 -30q0 -13 14 -18l10 -2t10 -3q34 -16 34 -80v-22q-1 -7 -1 -11v-6v-23q-4 -9 -4 -26v-24q0 -32 -11 -45q-4 -7 -29 -18q-19 -9 -23 -22q-3 -11 6 -21t85 -3h27q7 0 26 -3 t29 -3q18 0 30.5 8.5t8.5 22.5q-2 11 -23 26q-25 19 -26 21q-6 10 -6 95q-1 83 4 96q9 22 41 39q22 11 47 16q43 6 81 -35q11 -13 14 -23q1 -3 1 -24v-23q0 -3 10 -22q-24 -35 -24 -93q0 -52 22 -79.5t58 -27.5q5 0 11.5 0.5t14.5 1.5q25 3 37 8q19 12 19 32q-26 20 -38 24 q-17 13 -20 19l-0.5 4.5t-2.5 14.5v54v46q0 14 -1 9q1 9 2 20t3 24q3 19 3 27q0 16 -9 36q-26 56 -109 71q-7 1 -13 1.5t-12 0.5q-25 0 -58 -18q-38 -20 -69 -24z" />
<glyph unicode="o" horiz-adv-x="466" d="M234 387q-11 -2 -27 -9.5t-37 -18.5t-36 -20t-23 -17q-50 -44 -50 -109q0 -1 0.5 -14.5t1.5 -41.5q1 -17 1 -34q0 -16 1 -33q5 -29 36 -53q62 -46 127 -46q37 0 90 17q114 41 144 173q4 15 4 38q0 75 -31 106q-26 26 -82 45q-54 19 -98 19q-6 0 -11 -0.5t-10 -1.5z M198 310q9 11 37 22q14 6 24 4q2 -1 8 -3.5t16 -7.5q8 -4 13.5 -7t9.5 -5q14 -8 25 -11q23 -20 29 -54v-14q-1 -5 -1 -9v-6q0 -4 4.5 -14t4.5 -14q2 -31 -10 -64q-14 -40 -42 -61t-56 -21q-13 0 -22 4q-20 8 -46 38q-26 31 -30 51q-4 17 -4 45q0 84 40 127z" />
<glyph unicode="p" horiz-adv-x="526" d="M218 344q0 42 -14 50q-1 1 -52 -11q-52 -11 -53 -12q-27 -10 -32 -30q-3 -12 0 -18q2 -2 14.5 -13t26.5 -22q4 -6 6 -30l-4 -60v-55l7 -73l-7 -31q-1 -9 -1.5 -16.5t-0.5 -12.5v-29q0 -1 2.5 -13t2.5 -19q1 -10 0.5 -24t-1.5 -33q0 -23 -6.5 -37t-10.5 -18q-2 -10 -2 -18 q4 -12 20 -12q2 -1 24 1q33 8 44 12q18 11 21 20v7q0 6 -1 19q0 1 -1 11.5t-3 30.5t-3 36t-1 27q0 30 8 39.5t26 5.5q11 -5 21 -10t18 -10q15 -4 38 -6q47 -2 77 6q42 10 84 54q39 40 51 79q4 12 5.5 30.5t2.5 43.5q1 74 -28 113q-19 24 -59 43q-39 19 -47 21q-13 3 -47 0 q-31 -1 -63 -20q-9 -5 -17 -9.5t-15 -9.5q-20 -11 -30 3zM405 263q28 -35 35 -74q3 -13 0 -80q-6 -26 -45 -54q-38 -27 -71 -26q-73 1 -111 65q-7 11 -7 61q0 71 10 92q5 11 14.5 22t23.5 21q29 20 51 23q55 6 100 -50z" />
<glyph unicode="q" horiz-adv-x="542" d="M496 -187q0 7 -3 18.5t-6.5 24.5t-6.5 26t-3 24q0 4 1 12t1 11q0 15 -2 23q-3 46 -3 45l5 42v7q0 5 1 11v16q1 3 1 34v18q-6 16 -6 37v105q4 25 13.5 41.5t15.5 22.5q15 15 17 20q9 28 -25 28q4 0 -11 -2t-49 -6q-19 -1 -77 6h-19h-9t-15 -1q-14 -2 -23 0q-71 5 -73 4 q-48 -11 -76 -34l-19 -19t-13 -14q-20 -20 -30 -45q-14 -29 -21 -75q-10 -58 2 -97q8 -23 33 -50q38 -39 77 -48q11 -1 21 -1.5t18 -0.5q19 -1 33 -1t25 2q21 3 47.5 17t45.5 24q18 6 26 -2t8 -26q0 4 -1.5 -14.5t-5.5 -58.5l-5 -56q-4 -45 26 -68q11 -8 43 -12q26 0 22 -1 q15 5 20 13zM153 229q4 34 9 48q11 26 36 38q18 8 33 8q16 0 43 -12q33 -14 51 -18q8 -1 15 -1q8 0 16 -1q19 -5 27 -21q6 -15 5 -73q0 -59 -6 -74q-19 -49 -91 -67q-23 -5 -34 -5q-29 0 -63 30q-42 37 -42 124v13t1 11z" />
<glyph unicode="r" horiz-adv-x="369" d="M264 13v12t-1.5 7t-5 5t-9.5 7q-29 11 -38 26q-8 11 -9 37q1 22 2 39.5t3 31.5q0 3 -1.5 10t-3 15t-3 15.5t-1.5 12.5q0 22 18.5 40t41.5 22q16 6 30 -2l30 -24q18 -8 33 3q24 18 22 51q-1 23 -15 41t-36 18q-19 0 -53 -17q-56 -35 -65 -28q-12 13 -12 21q0 25 -24 25 q-6 0 -29 -10q-14 -4 -24 -7t-17 -5q-29 -11 -34 -32q-3 -14 13 -26q11 -5 17 -7.5l6 -2.5q5 -5 10 -21q1 -27 0 -40l5 -49l-1.5 -12t-3.5 -37l-5 -49q-1 -4 -5 -10.5t-8.5 -14t-9 -14t-7.5 -10.5q-7 -17 0 -25t17 -9q7 -1 17 0q7 1 10 1h5h12q4 -1 6 -1h5q18 -2 23 0h45 q7 0 13 -1.5t12 -0.5q16 0 25 15z" />
<glyph unicode="s" horiz-adv-x="363" d="M73 87q-9 0 -18 -26q-2 -16 8 -28q15 -32 79 -38q5 -1 10 -1h12q110 0 155 54q21 25 21 76q0 25 -6 45q-7 24 -11 30q-7 9 -29 22q-20 11 -34 18.5t-24 9.5l-28 4l-28 4q-44 7 -54 22t-1 32q10 21 36 26q18 2 63 -17q48 -18 67 -17q36 1 62 39q13 19 8 31q-6 12 -22 12 q1 0 -32 -10q-5 -1 -13 -0.5t-19 2.5q-5 1 -13 3t-19 5q-7 2 -14.5 2.5t-16.5 1.5q-96 3 -133 -52q-19 -28 -19 -58q0 -24 10 -48q17 -40 47 -53q16 -5 32 -9t32 -9l18 -6q25 -8 39 -13t18 -7q28 -13 33 -34q3 -12 -2.5 -22.5t-15 -18t-23 -12t-26.5 -4.5q-35 0 -107 27 q-2 1 -7.5 3.5t-14.5 7.5q-14 6 -20 6z" />
<glyph unicode="t" horiz-adv-x="328" d="M172 507q-14 -19 -24.5 -36.5t-18.5 -34.5l-10 -18q-2 -3 -33 -30q-24 -23 -27 -34q-3 -21 8.5 -26t20.5 -6q11 4 21.5 -6t7.5 -42q0 -5 -1.5 -12.5t-2.5 -15.5t-2 -15t-1 -10v-15q0 -6 -1 -14.5t-2.5 -17.5t-2.5 -17t-1 -12q0 -25 10 -61q8 -27 25 -47q37 -43 87 -43 q27 0 56 10q35 14 45 31q8 14 3 25q-8 11 -23 11q-33 -10 -37 -10q-16 -1 -35 11q-24 14 -28 42q-1 13 -1.5 25t-1.5 25q0 3 -2.5 21t-2.5 31q0 8 2.5 20t2.5 18q9 52 13 56q13 11 37 11q16 -1 25.5 -0.5t13.5 1.5q21 7 29 30q4 19 -5 28.5t-40 2.5q-52 -12 -65 -1 q-8 8 -8 33q0 6 0.5 15t1.5 17.5t1.5 15t0.5 8.5q0 28 -12 35.5t-23 0.5z" />
<glyph unicode="u" horiz-adv-x="543" d="M346 340q8 -15 23 -25q12 -8 14 -14t4 -13q2 -9 -2 -22q-4 -17 -4 -21q-1 -16 0 -22q2 -8 3 -13t2 -8q4 -29 4.5 -49.5t-3.5 -33.5q-14 -49 -83 -68q-24 -7 -44 -7q-25 0 -42 14q-21 19 -21 58q0 8 1 18t2.5 19t2.5 15.5t1 8.5v21l4 19q2 7 3 11.5t2 6.5q2 15 0 44 q0 -1 0.5 6.5t1.5 23.5q1 27 0 43q-1 23 -6.5 28.5t-14.5 5.5q7 0 -26 -6l-41 -7q-42 -13 -51 -32q-4 -13 14 -31q17 -8 23 -28q7 -15 5 -34q0 -5 -2.5 -16.5t-2.5 -17.5q0 -30 -1 -33l-8 -42q-8 -46 -8 -56q0 -35 27 -60q34 -29 91 -29q33 0 83 10l14 6q54 23 55 23 q8 0 25 -9q5 -3 12 -8t15 -12q12 -9 26 -14q24 -7 53 5q31 7 33 24q1 12 -15 22l-12 6t-11 7q-19 19 -19 91q0 26 3 67q3 40 3 45v58q0 40 -11 48t-47 9q-31 2 -48 -1t-23 -10q-6 -13 -4 -21z" />
<glyph unicode="v" horiz-adv-x="431" d="M274 126q-7 11 -10.5 19t-5.5 13l-8 19q-5 13 -5 20q-4 8 -5.5 13t-2.5 7l-12 32q-27 71 -35 85q-26 42 -75 54q-31 8 -48 -7.5t-13 -36.5q3 -14 13 -21q16 -11 19 -13q7 -11 12 -20.5t9 -17.5q32 -62 37 -76l31 -86q44 -119 71 -120q17 -1 43 37q13 19 22 31.5t14 18.5 l17 25q15 22 28.5 47t26.5 53q31 66 31 107q0 60 -52 79q-9 4 -36 4q-26 0 -34 -5q-14 -11 -13 -22t25 -25l14 -8l14 -8q25 -26 18 -66q-19 -46 -36 -76q-17 -35 -20 -38q-18 -18 -34 -18z" />
<glyph unicode="w" horiz-adv-x="636" d="M382 159q8 0 13 -14l2 -10l2 -10q3 -11 5 -20t4 -14q8 -32 30 -68t39 -36q24 1 71 96l9 19l8.5 17l5.5 11q5 11 9 19t6 13l16 48q2 4 7 18t15 39q10 24 10 41q0 14 -8 32q-21 46 -80 54q-38 5 -53 -12q-12 -13 -7 -24q7 -15 25 -19q24 -7 27 -7q29 -17 29 -53 q0 -8 -18 -69q-20 -65 -25 -70q-12 -17 -22 -11q-9 4 -31 50q-5 13 -11 25t-11 25l-24 51q-17 47 -28 63q-20 29 -55 40q-20 7 -37 7q-23 0 -39 -13q-20 -16 -19 -32q1 -13 14 -19q-1 1 33 1q24 0 33 -6q31 -21 29 -71q0 -18 -7 -31q-2 -5 -6 -11.5t-11 -16.5 q-5 -8 -9.5 -15.5t-9.5 -15.5q-7 -11 -12.5 -18t-9.5 -10q-11 -11 -22 -4q-12 7 -37 74q-7 18 -13 36t-13 36l-7 18q-32 81 -63 91q-26 9 -49 -5q-33 -21 -33 -38q0 -7 7 -14q13 -10 22.5 -17t16.5 -12q8 -11 14.5 -20t10.5 -16q7 -10 11.5 -17.5t8.5 -12.5q4 -11 6.5 -20 t3.5 -16l13 -52q1 -8 6 -13q1 -5 3 -13l4 -17q3 -14 6 -27l6 -26q10 -37 32 -49q16 -10 27 -2q10 4 48 57q28 40 46.5 65.5t26.5 36.5q4 4 9 4z" />
<glyph unicode="x" horiz-adv-x="419" d="M253 270q-4 -2 -6 -2q-6 0 -13.5 9t-13.5 17q-7 14 -11 23t-6 14q-11 17 -18 27.5t-10 13.5q-17 17 -49 17q-37 0 -59 -21q-18 -17 -15 -33q7 -18 26 -18q27 -7 34 -14q8 -11 14.5 -20t11.5 -14q14 -33 15 -34q4 -8 11.5 -19t11.5 -15q14 -25 1 -47q-10 -11 -17 -18.5 t-12 -11.5l-12 -15q-11 -14 -12 -15q-11 -10 -18.5 -16t-10.5 -8q-4 -3 -16 -6q-6 -1 -13 -10q-4 -4 -7.5 -17t-1.5 -18q9 -23 44 -23q26 0 53 28q11 13 23.5 28t25.5 34q19 27 25 28q10 2 23 -17l12 -26t12 -27q14 -33 42 -44q4 -1 11 -1q8 0 16 4q7 4 11.5 6.5t6.5 3.5 q33 9 45 19q17 6 14 20q-1 8 -13 16q-3 2 -9 5.5t-16 7.5q-7 2 -12 4l-10 4l-12 16l-5 6l-10 18q-11 17 -20 30t-16 23q-5 12 -5 21q0 14 11 31q11 16 59 58q2 2 9.5 6.5t21.5 12.5q23 14 28 22q9 17 2 31q-12 18 -44 18q-25 0 -31 -3q-10 -3 -15 -11q-2 -2 -6 -12 q-7 -11 -12 -18t-9 -11q-6 -8 -10.5 -14.5t-8.5 -11.5q-14 -15 -35 -31z" />
<glyph unicode="y" horiz-adv-x="432" d="M60 335q51 -34 75 -100l19 -52q2 -5 3.5 -10t3.5 -9l19 -51q10 -24 20 -47.5t10 -40.5q0 -24 -16 -53q-35 -71 -88 -77q-20 -2 -33 11q-12 12 -32 12q-21 0 -31 -18q-6 -9 -6 -31t6 -35q14 -29 43 -30q65 -5 182 130l33 38q25 28 38 43.5t15 19.5l17 33l40 70 q50 89 50 158q0 35 -13 60q-19 38 -60 40q-40 1 -54 -19q-8 -11 0 -25q19 -14 33 -15q15 -10 25 -31q8 -16 8 -37q0 -69 -75 -178q-14 9 -14 35q-4 13 -6.5 22t-4.5 15l-19 49q-15 38 -24.5 62t-14.5 32q-27 51 -67 69q-33 16 -56 5q-32 -15 -32 -35q0 -6 6 -10z" />
<glyph unicode="z" horiz-adv-x="432" d="M150 69q0 7 14 21q10 8 16 13t10 7l13 10q30 22 60 43t59 43q88 67 103 111q9 27 2 37t-30 7q-51 -19 -52 -19q-27 -3 -49 4q-16 8 -26 14t-14 10q-12 5 -40 8q-11 1 -44 -2q-14 -2 -22 -3t-11 -2q-9 -3 -19.5 -10t-19.5 -15.5t-15.5 -17.5t-8.5 -17q-1 -5 -1.5 -13 t-0.5 -19q-1 -23 2 -28q8 -8 19 -5q11 8 19.5 15.5t13.5 12.5q11 13 32 17q10 2 19.5 3.5t20.5 1.5q16 0 57 -6q20 -2 37.5 -3.5t31.5 -1.5q4 0 9 -6q7 -12 -12 -28q-10 -8 -17 -13.5t-12 -10.5q-19 -13 -33 -21.5t-22 -13.5l-14 -14q-42 -23 -87 -57q-59 -47 -69 -78 q-11 -32 -3 -40q9 -9 29 -6q6 1 18.5 8t17.5 9q13 4 35 6q26 1 71 -14l21 -6q47 -16 80 -16q39 0 65 21q33 28 33 64q0 5 -0.5 9.5t-1.5 9.5q-5 27 -17 32q-13 4 -20.5 -6t-8.5 -16t-11.5 -15.5t-29.5 -6.5l-16 4l-16 4q-33 7 -63 6q-27 -2 -58 -18t-38 -16q-5 0 -6 13z" />
<glyph unicode="{" horiz-adv-x="549" d="M487 796q-109 0 -174 -38q-57 -33 -74 -92q-10 -31 -10 -106v-73q0 -94 -43 -131q-37 -33 -131 -43q-2 -6 -2 -33v-19q78 -11 112 -33q42 -27 54 -75q7 -24 7 -80v-63q0 -31 1 -52t3 -33q9 -50 42 -85q66 -68 210 -68v41q-53 6 -86 23q-57 31 -70 74q-7 20 -7 93v52 q0 120 -48 170q-46 49 -169 58l12 5q122 22 162 58q47 44 47 160v67q0 93 35 131q34 36 129 52v40z" />
<glyph unicode="|" horiz-adv-x="130" d="M121 -69v924h-50v-924h50z" />
<glyph unicode="}" horiz-adv-x="549" d="M59 797v-40q36 -8 60 -15t35 -14q45 -24 58 -70q8 -27 8 -84v-73q0 -116 55 -162q40 -35 165 -57q-104 -10 -157 -49q-65 -50 -65 -185v-43q0 -94 -28 -132q-34 -47 -134 -58v-42q108 0 172 37q59 35 77 90q10 30 10 106v73q0 95 42 133q35 32 131 45v52q-82 12 -116 36 q-41 28 -52 70q-5 20 -5 75v83q0 29 -1 49t-3 30q-8 40 -36 72q-37 40 -107 58q-36 9 -109 15z" />
<glyph unicode="~" horiz-adv-x="380" d="M347 691q-14 -23 -15 -35q-20 -23 -51 -18q-9 3 -15 6l-10 5q-28 11 -50 27q-22 11 -44 11q-12 0 -30 -5q-24 -7 -35 -16q-8 -13 -14 -23t-8 -18q-17 -33 -20 -53q-2 -5 14 -3q14 1 16 3q9 14 15.5 24t10.5 18q21 17 52 5q25 -12 35 -19q15 -8 23 -13q17 -8 28.5 -12 t16.5 -5q7 -1 38 9q11 5 19.5 8t13.5 5q23 23 34 58l6 30q0 10 -1 11.5t-19 1.5q-6 0 -10 -2z" />
<glyph unicode="&#xa1;" horiz-adv-x="210" d="M170 8q21 7 24 43q1 11 -0.5 29t-4.5 42l-11 81q0 6 -2 21t-2 21l-2 74q0 6 -3.5 17.5t-3.5 16.5v30q0 5 -4 11.5t-3 15.5l2 32q1 10 0.5 25.5t-2.5 38.5q-3 52 -9 58q-13 11 -23 5t-12 -23q-1 -6 -1 -12v-11q0 -3 -2 -9t-2 -14q-1 -10 -1.5 -16t-0.5 -9q-9 -36 -12 -58 q-4 -31 -6.5 -53.5t-4.5 -36.5l-6 -26q-5 -32 -3 -46l-2 -36q-1 -9 -1 -14v-6l-13 -65q-5 -23 -3 -61q3 -46 16 -56q22 -17 38 -19q4 0 12 1t16.5 2.5t17 3.5t14.5 3zM162 674q51 13 46 62q-4 34 -37 50q-14 7 -39 7q-24 2 -35 -6q-36 -19 -39 -56q-3 -31 25 -53 q16 -13 34 -13q10 0 45 9z" />
<glyph unicode="&#xa2;" horiz-adv-x="395" d="M265 650v11v16q-1 5 -1 9v6q0 1 -22 1q-24 0 -24 -2q0 -7 1 -12v-11v-21q-58 -13 -91 -42q-37 -34 -62 -103q-7 -18 -7 -49q0 -69 33 -111q52 -67 124 -67v-14v-22q-1 -7 -1 -13v-9v-10q1 -3 22 -3q14 2 19 1.5t6 3.5t-0.5 15.5t0.5 37.5v16l6 1q59 11 65 13q16 7 31 23 q17 15 17 32q0 12 -17 12q-7 0 -20 -6q-48 -21 -67 -21q-9 0 -14 1v34v17q0 13 1 32t1 34v29v45q-1 13 -1 21v13v18q31 -18 33 -18q30 -12 50 -4q34 13 42 45q0 23 -4 27q-9 6 -43 14q-41 10 -77 10zM219 597v-26v-40t-1 -52t-1 -51v-35v-40q-39 25 -50 62q-5 18 -5 67 q0 87 32 110q8 5 25 5z" />
<glyph unicode="&#xa3;" horiz-adv-x="596" d="M474 363q4 0 5.5 11t3.5 23q2 10 2.5 18t-0.5 16q-2 18 -11 18q-4 0 -12.5 -1.5t-13.5 -1.5q-7 0 -22.5 1.5t-24.5 1.5q-26 -1 -37.5 -1.5t-8.5 -0.5q-8 1 -13 1t-7 1q-6 10 -6 17q-7 46 -9 73q-5 46 -6 72q-7 16 -12 27.5t-10 19.5q-8 31 -6 42q3 34 30 58q15 16 33 21 q25 6 39 0q25 -11 24 -42q-1 -11 -1.5 -20t-0.5 -16q0 -15 3 -37q1 -21 8.5 -35t17 -22.5t21 -12.5t22.5 -4q26 0 56 24q4 5 6 9.5t4 6.5q12 16 12 38q0 6 -1.5 13.5l-3.5 17.5q-1 6 -1 10q0 5 -1 7q-13 35 -35 56.5t-64 32.5q-31 8 -90 2q-62 -6 -89 -17q-32 -14 -56 -40 q-34 -35 -36 -40q-15 -45 -18 -70q-4 -16 -6.5 -27.5t-4.5 -18.5q-1 -12 3 -52q4 -59 18 -93q-17 3 -24 3q6 -1 -4.5 -1.5t-38.5 -2.5q-27 0 -32 1q-3 -5 -3 -46q0 -40 3 -40q4 -1 15 2t16 3q4 0 11.5 -1t15.5 -2t15 -2t10 -1q9 -1 17.5 -0.5t16.5 1.5q4 -7 7.5 -11.5 t5.5 -8.5q5 -20 9 -36.5t6 -27.5q5 -18 9 -31.5t7 -23.5q2 -16 3.5 -26.5t1.5 -17.5q-11 2 -19.5 4t-13.5 4h-30q-13 0 -21.5 -0.5t-14.5 -1t-11.5 -2t-13.5 -3.5q-26 -8 -48 -45q-8 -11 -13 -16q-7 -14 -7 -47q0 -17 14 -47q11 -20 28 -30q34 -20 61 -20q18 0 57 15 q38 13 57 43q5 11 7.5 18.5t4.5 12.5q14 -17 22 -28q13 -10 23 -16t18 -10q9 -6 15 -10.5l10 -7.5q34 -18 76 -18q13 0 25 3q24 14 34 22q43 29 59 76q4 16 6.5 28.5t4.5 20.5q4 14 6.5 25t4.5 18q2 33 -1 42q-2 2 -12 2t-12 -2q-16 -27 -24 -37q-20 -30 -27 -35 q-18 -12 -33 -14q-6 -1 -18.5 0.5t-17.5 1.5q-6 0 -18 -2t-17 -1q-46 10 -67 20q-12 5 -11 8q2 5 3.5 9.5t2.5 6.5q8 63 9 97q1 23 1.5 38.5t0.5 23.5q1 37 5 37t11 3t10 3q-10 0 50 -6h56zM117 127q23 14 32 14q30 0 51 -9q25 -20 36 -30q-2 -17 -3 -27q-9 -28 -44 -51 q-24 -15 -47 -15q-5 0 -8.5 0.5t-7.5 1.5q-11 4 -22 18q-17 20 -17 41q0 13 6 27q10 22 24 30z" />
<glyph unicode="&#xa8;" horiz-adv-x="364" d="M77 654q-23 -26 -21 -42q1 -34 33 -49q22 -14 51 0q10 5 14 14q1 2 2 6.5t2 10.5q9 21 9 23q4 37 -12 49q-23 18 -54 6q-17 -11 -24 -18zM269 654q-23 -24 -21 -42q1 -34 33 -49q22 -14 51 0q9 6 13 14q0 -1 5 17q9 21 9 23q4 35 -13 49q-23 18 -54 6q-18 -11 -23 -18z " />
<glyph unicode="&#xaa;" horiz-adv-x="489" d="M132 185q0 -11 -18 -23l-26 -26q-19 -22 -19 -53q0 -29 26 -55q25 -25 56 -30h11q11 0 33 1t33 1h12q29 3 44 10q36 15 43 15q13 0 26 -11q8 -5 14.5 -8.5t11.5 -5.5q21 -7 51 -4q32 3 39 22q8 14 -3 29q-45 22 -45 59v104q0 69 -3 83q-10 43 -62 78q-40 26 -108 26 q-72 0 -120 -24q-62 -31 -67 -98q-2 -33 20 -53q1 -1 51 -37zM127 280q3 30 41 47q10 6 41 6q56 0 77 -15q31 -22 30 -46q-2 -15 -7 -19q-2 -2 -19 -9q-35 -15 -84 -15q-85 0 -79 51zM206 164q57 25 87 28q19 1 29 -13q5 -10 7 -33q2 -27 -5 -42q-17 -42 -59 -50 q-48 -9 -73 15q-25 23 -20 56q3 18 8.5 24t25.5 15z" />
<glyph unicode="&#xac;" horiz-adv-x="434" d="M175 651q-17 50 -35 79q-16 28 -26 36q-8 6 -40 14q-13 -14 -14 -19q0 -13 3 -23q5 -15 11 -21q2 -6 0 -11q0 -4 3 -11l10 -4q3 -39 12 -55l42 -80q7 -20 11 -36t6 -27l46 -117q5 -12 8 -21t5 -14l22 -45q8 -16 12 -28l10 -28q5 -7 9.5 -14t8.5 -15l8 -17q1 -7 3 -10 l3 -6l1 -5l6.5 -13t3.5 -9l27 -74q37 -100 67 -106q14 -3 25 3.5t11 20.5q0 18 -13 51q-5 11 -9 22t-9 22l-17 56q-10 22 -17.5 38t-12.5 27l-18 34l-7 22q-4 6 -9 23l-52 120q-4 13 -7 23t-5 18l-9 28q-9 22 -13 29q-12 25 -16 32l-8 20l-11 33z" />
<glyph unicode="&#xad;" horiz-adv-x="288" d="M97 302q-19 -10 -33 -47q-9 -27 2 -36q5 -7 39 -5q23 1 33 1.5t6 0.5l78 -5q41 2 60 37q4 5 5 21q3 18 0 22q-5 10 -42 8q-8 -1 -14 -1h-9q3 0 -20 -5h-26q-7 0 -21 5t-19 5q-7 1 -12.5 1.5t-10.5 -0.5q-6 -1 -10 -1t-6 -1z" />
<glyph unicode="&#xb2;" d="M217 104l25 24q259 184 259 353q0 60 -39 101q-5 6 -19 12.5t-19 13.5q-33 26 -39 29q-43 21 -81 17q-89 -7 -100 -12q-49 -17 -89 -81q-23 -37 -23 -81q0 -28 9 -49q26 -61 72 -68q38 -6 61 17q18 19 15 32q-1 12 -19 18q-7 1 -14 0q-9 -3 -14 -3q-20 0 -26 8 q-22 18 -16 58q8 56 65 83q25 12 53 12q27 0 47 -12q13 -8 25.5 -20.5t22 -26.5t15.5 -28.5t6 -26.5q8 -177 -212 -320l-29 -19q-19 -12 -30 -20t-16 -12q-21 -20 -24 -39q-6 -42 7 -58q6 -6 30 -6q18 -2 45 0h29h50q23 0 32 -2t18 -2h32h19q7 1 11 1h8q-2 0 7 0t30 1 q17 1 27 1t14 1q19 4 29 20q6 9 21 54q16 49 12 56q-7 15 -22 12q-24 -16 -39 -32q-15 -10 -38 -13q-8 -1 -27 -1.5t-50 -0.5h-43l-35 -5q-29 8 -33 14z" />
<glyph unicode="&#xb3;" d="M346 360q0 11 13 23q5 3 10.5 7t12.5 9q55 55 55 121q0 17 -4 29q-7 31 -41 60q-29 24 -58 33q-26 8 -65 8q-104 0 -147 -40q-57 -53 -57 -103q0 -4 0.5 -8t1.5 -9q3 -17 16.5 -37.5t28.5 -25.5q4 -1 9.5 -1.5t13.5 0.5q19 2 24 5q13 12 10 21q-4 14 -20 19 q-13 10 -18 22q-2 8 -2 12q0 22 21 48q30 37 89 28q43 -6 53 -12q21 -11 36 -45q9 -20 9 -46q0 -28 -12 -43q-40 -52 -77 -66q-21 0 -40 -13q-33 -22 -37 -29v-11q6 -15 28 -15q3 -1 31 2q46 4 61 0q23 -8 43 -26.5t25 -38.5q2 -10 2 -18q0 -33 -16 -69q-15 -35 -34 -55 q-29 -32 -75 -48q-25 -10 -85 -22q-18 -2 -26 -3q-14 -4 -26.5 -8.5t-23.5 -11.5q0 -20 18 -27q12 -8 31 -9q27 -2 65 9l22 6q102 27 150 55q57 34 89 91q25 44 25 90q0 22 -8 43q-18 41 -56 65q-16 8 -32 17t-33 17z" />
<glyph unicode="&#xb4;" horiz-adv-x="279" d="M73 569q-6 -8 -12 -14.5t-4 -11.5q1 -4 25 -4q8 0 17 4l11.5 11.5t8.5 6.5q40 28 60 39q14 6 46 31q36 26 42 32q13 14 11 31q-2 5 -3 9t-2 6q-7 9 -26 16q-3 1 -9 1q-16 0 -26 -10q-26 -26 -37 -41q-14 -15 -25 -25.5t-19 -17.5q-20 -22 -29 -32t-16.5 -18t-12.5 -13z " />
<glyph unicode="&#xb8;" horiz-adv-x="343" d="M196 6q-12 -13 -23 -34q-7 -11 -11.5 -20t-8.5 -16q-5 -7 -9.5 -11.5t-6.5 -8.5q-15 -15 -18 -19q-3 -2 1.5 -9.5t8.5 -6.5q48 8 64 -1q30 -17 31 -32q1 -21 -25 -43q-20 -14 -43 -12q-15 3 -26.5 6t-19.5 5q-11 4 -20 7t-14 6l-6 -6t-10 -11.5t-8 -12.5t1 -8q5 -6 8 -8 q21 -10 38 -12q30 -11 59 -13q11 -1 25.5 0.5t33.5 3.5q33 5 48 13q41 17 51 32q7 22 9 38q1 3 -4 31q-5 25 -12 33q-27 34 -64 37q-6 1 -52 -3q8 10 13 18t9 13q8 16 14.5 26.5t10.5 17.5h-44z" />
<glyph unicode="&#xb9;" d="M175 641q-45 -4 -52 -29q-4 -12 4 -25q8 -8 17 -8h15q11 -2 18.5 -5.5t12.5 -7.5q31 -25 31 -96q0 -19 -3 -47v-30q0 -17 2 -39.5t2 -32.5v-132v-54t1 -6q-1 -41 -21 -58q-3 -3 -33 -15q-25 -11 -29 -21q-7 -14 1 -25q7 -10 101 -10h66h29q25 -1 41 0q21 1 28 8 q13 13 7 30q-5 11 -28 18q-29 7 -32 10q-31 18 -31 90q0 7 0.5 16.5t0.5 17.5q0 9 0.5 16t0.5 10v56v45q0 18 -1 25l-6 85v75q0 39 1 42q3 18 20 30q4 4 33 10q25 6 32 16q10 15 -3 28q-9 14 -55 15q20 -1 6 -1h-61h-54q-20 -1 -36 -1h-25z" />
<glyph unicode="&#xba;" horiz-adv-x="466" d="M234 387q-11 -2 -27 -9.5t-37 -18.5t-36 -20t-23 -17q-50 -44 -50 -109q0 -1 0.5 -14.5t1.5 -41.5q1 -17 1 -34q0 -16 1 -33q5 -29 36 -53q62 -46 127 -46q37 0 90 17q114 41 144 173q4 15 4 38q0 75 -31 106q-26 26 -82 45q-54 19 -98 19q-6 0 -11 -0.5t-10 -1.5z M198 310q9 11 37 22q14 6 24 4q2 -1 8 -3.5t16 -7.5q8 -4 13.5 -7t9.5 -5q14 -8 25 -11q23 -20 29 -54v-14q-1 -5 -1 -9v-6q0 -4 4.5 -14t4.5 -14q2 -31 -10 -64q-14 -40 -42 -61t-56 -21q-13 0 -22 4q-20 8 -46 38q-26 31 -30 51q-4 17 -4 45q0 84 40 127z" />
<glyph unicode="&#xbf;" horiz-adv-x="464" d="M328 507q18 -11 18 -27q4 -17 -10 -48q-14 -30 -30 -40l-85 -60q-37 -26 -63.5 -49t-43.5 -43q-42 -48 -47 -104q-8 -75 54 -119q31 -22 133 -22q9 0 15.5 0.5t11.5 1.5q32 9 53 15.5t30 10.5q25 9 41 9q22 -2 41 -15q8 -2 10 -2q7 0 13 8q2 7 1 25q-2 20 -3 23 q-3 9 -11 18.5t-17.5 17.5t-20 13.5t-19.5 6.5q-33 4 -61 -21l-54 -51q-25 -19 -41 -19q-8 0 -15 3q-33 14 -42 73q-1 5 -1.5 9t-0.5 9q0 71 129 187l19 17q79 70 73 147q-3 32 -33 50q-25 14 -57 14q-17 0 -30 -5q-12 -5 -18 -9t-9.5 -8.5t-5 -11.5t-2.5 -18q4 -9 11 -11 q2 -1 18 5q42 24 49 20zM366 646q22 7 35.5 26.5t10.5 38.5q-8 37 -42 54q-14 6 -35 6q-29 0 -45 -10q-28 -16 -30 -56q-2 -33 21 -50q18 -15 48 -15q19 0 37 6z" />
<glyph unicode="&#xc0;" horiz-adv-x="858" d="M425 806q-21 -4 -73 -38q-34 -22 -34 -38q0 -8 27 -36q18 -20 28 -38q6 -14 6 -26q0 -17 -13 -39q-11 -20 -17 -31t-8 -14l-91 -202q-10 -22 -16.5 -36t-11.5 -21l-11 -18q-4 -7 -7.5 -13t-7.5 -12l-41 -71q-8 -13 -13.5 -21.5t-8.5 -12.5q-5 -11 -9 -19t-7 -15 q-13 -16 -31 -29.5t-33 -23.5q-12 -15 -7 -30q5 -12 10 -15l3.5 -1t11.5 -3q10 -2 80 -4q71 -3 79 1q15 5 17 22q2 14 -13 29q-21 6 -28 15q-12 11 -14 28q-1 13 26 57q2 2 5.5 9t8.5 20q7 17 17 27q13 13 21 15q2 1 27 -1q15 -2 27 -2t21 1l64 6h25h13q5 -1 8 -1h5h17 q92 0 108 -19q5 -7 25 -58t19 -57q-2 -11 -4 -15q-7 -7 -11 -10t-15 -11q-4 -4 -9 -14q-5 -14 4 -27q13 -18 101 -18h68q98 0 106 12q9 14 -1 41q-7 13 -22 22q-13 8 -19.5 11.5l-6.5 3.5q-10 8 -20 19.5t-21 26.5q-16 23 -24.5 36t-10.5 15l-24 51l-71 145q-8 16 -12 27 l-41 90q-14 31 -15 34l-30 56q-8 17 -13 29l-33 62q-29 53 -30 61q0 1 -6 30q-4 23 -11 30q-11 13 -33 8zM319 285q-8 4 -10 9.5t-3 11.5q-1 5 7 23q3 7 5.5 12.5t4.5 10.5l5 11l9 11l28 80q11 21 17 26q5 9 7.5 15t3.5 9q8 22 12 26q10 13 23 13q19 -11 22 -20 q12 -17 15 -24l23 -52q7 -14 10 -21.5l3 -7.5l6 -14l11 -22t18 -34q16 -26 16 -39q0 -7 -3 -11q-8 -16 -46 -11q-10 1 -21.5 1.5t-25.5 0.5h-15q-4 0 -9.5 1t-7.5 1h-20q-5 0 -15.5 -1t-14.5 -1l-30 -4h-25zM472 893q2 5 -16 25q-18 21 -28 31q-21 22 -30 33l-24.5 24.5 t-18.5 17.5q-13 14 -22.5 24.5t-14.5 17.5q-16 13 -35 8q-19 -4 -27 -16q-2 -4 -4 -15q-2 -17 11 -30q13 -11 23.5 -19t18.5 -13q17 -13 28.5 -21t17.5 -11q20 -11 35 -20.5t25 -17.5q7 -6 11.5 -10.5t8.5 -7.5q9 -4 17 -4q23 0 24 4z" />
<glyph unicode="&#xc1;" horiz-adv-x="858" d="M428 806q-23 -6 -73 -38q-34 -22 -34 -38q0 -11 28 -36q16 -18 27 -38q6 -14 6 -26q0 -16 -13 -38q-22 -37 -25 -46l-91 -202q-23 -51 -27 -57l-12 -18q-4 -7 -7.5 -13t-7.5 -12l-41 -71q-8 -13 -13.5 -21.5t-7.5 -12.5q-5 -11 -9.5 -19t-7.5 -15q-13 -16 -31 -29.5 t-33 -23.5q-10 -13 -7 -30q5 -12 10 -15l3.5 -1t11.5 -3q10 -2 80 -4q71 -3 79 1q15 5 17 22q2 14 -13 29q-20 7 -28 15q-12 11 -14 28q-1 13 26 57q2 2 5.5 9t8.5 20q7 17 17 27q13 13 21 15q2 1 27 -1q15 -2 27 -2t22 1l63 6h26h12q4 -1 7 -1h6h17q92 0 108 -19 q5 -7 25 -58t19 -57q-2 -11 -4 -15q-7 -7 -10.5 -10t-14.5 -11q-5 -4 -10 -14q-6 -14 4 -27q13 -18 101 -18h68q98 0 106 12q9 14 -1 41q-7 13 -22 22q-13 8 -19.5 11.5l-6.5 3.5q-10 8 -20 19.5t-21 26.5q-16 23 -24 35.5t-10 15.5l-24 51l-71 145q-5 11 -8.5 18l-4.5 9 l-40 90q-6 13 -10 21.5t-6 12.5l-30 56q-8 17 -13 29l-33 62q-29 53 -30 61l-6 30q-4 22 -11 30q-13 13 -33 8zM322 285q-8 4 -9.5 9.5t-3.5 11.5q-1 3 3 13l4 10q1 4 3.5 9.5t6.5 13.5l6 11l8 11l29 80q11 21 17 26q5 10 7 16t3 8q8 21 12 26q10 13 23 13q19 -11 22 -20 q10 -12 15 -24l24 -52q12 -26 12 -29l7 -14q15 -27 29.5 -53.5t14.5 -40.5q0 -8 -3 -12q-9 -15 -46 -11q-10 1 -21.5 1.5t-25.5 0.5h-15q-3 0 -9 1t-8 1h-20q-5 0 -15 -1t-15 -1l-30 -4h-25zM352 918q-17 -23 -16 -25q1 -4 24 -4q8 0 17 4q12 12 20 18q40 27 61 38 q6 4 17 12t28 20q20 14 30.5 22t12.5 10q12 13 10 30q-2 11 -4 15q-6 10 -27 16q-19 5 -35 -8q-24 -24 -37 -42q-14 -14 -25 -24.5t-18 -17.5q-20 -21 -30 -33q-17 -20 -28 -31z" />
<glyph unicode="&#xc2;" horiz-adv-x="858" d="M425 806q-21 -4 -73 -38q-34 -22 -34 -38q0 -8 27 -36q18 -20 28 -38q6 -14 6 -26q0 -17 -13 -39q-11 -20 -17 -31t-8 -14l-91 -202q-10 -22 -16.5 -36t-11.5 -21l-11 -18q-4 -7 -7.5 -13t-7.5 -12l-41 -71q-8 -13 -13.5 -21.5t-8.5 -12.5q-5 -11 -9 -19t-7 -15 q-13 -16 -31 -29.5t-33 -23.5q-12 -15 -7 -30q5 -12 10 -15l3.5 -1t11.5 -3q10 -2 80 -4q71 -3 79 1q15 5 17 22q2 14 -13 29q-21 6 -28 15q-12 11 -14 28q-1 13 26 57q2 2 5.5 9t8.5 20q7 17 17 27q13 13 21 15q2 1 27 -1q15 -2 27 -2t21 1l64 6h25h13q5 -1 8 -1h5h17 q92 0 108 -19q5 -7 25 -58t19 -57q-2 -11 -4 -15q-7 -7 -11 -10t-15 -11q-4 -4 -9 -14q-5 -14 4 -27q13 -18 101 -18h68q98 0 106 12q9 14 -1 41q-7 13 -22 22q-13 8 -19.5 11.5l-6.5 3.5q-10 8 -20 19.5t-21 26.5q-16 23 -24.5 36t-10.5 15l-24 51l-71 145q-8 16 -12 27 l-41 90q-14 31 -15 34l-30 56q-8 17 -13 29l-33 62q-29 53 -30 61q0 1 -6 30q-4 23 -11 30q-11 13 -33 8zM319 285q-8 4 -10 9.5t-3 11.5q-1 5 7 23q3 7 5.5 12.5t4.5 10.5l5 11l9 11l28 80q11 21 17 26q5 9 7.5 15t3.5 9q8 22 12 26q10 13 23 13q19 -11 22 -20 q12 -17 15 -24l23 -52q7 -14 10 -21.5l3 -7.5l6 -14l11 -22t18 -34q16 -26 16 -39q0 -7 -3 -11q-8 -16 -46 -11q-10 1 -21.5 1.5t-25.5 0.5h-15q-4 0 -9.5 1t-7.5 1h-20q-5 0 -15.5 -1t-14.5 -1l-30 -4h-25zM372 1073q-8 -10 -14.5 -17.5t-10.5 -13.5q-11 -16 -20 -27.5 t-14 -19.5q-13 -15 -22 -26t-15 -18q-5 -11 -9 -19t-6 -13q-7 -15 -7 -23t21 -6q16 1 21 6l24 27q7 10 11.5 18t8.5 13q28 26 41 38q20 15 26 21q7 -4 11.5 -6.5t6.5 -3.5q33 -30 38 -35q13 -17 18 -29q7 -8 11.5 -13t8.5 -9q8 -9 12.5 -14t5.5 -6q10 -8 22 -10q17 -2 18 10 q0 23 -24 64q-4 6 -8.5 12.5t-10.5 14.5q-19 21 -29 32.5t-15 18.5q-10 11 -17.5 20t-12.5 14q-19 21 -48 16q-18 -10 -22 -16z" />
<glyph unicode="&#xc3;" horiz-adv-x="858" d="M426 806q-21 -4 -73 -38q-34 -22 -34 -38q0 -8 27 -36q18 -20 28 -38q6 -14 6 -26q0 -17 -13 -39q-11 -20 -17 -31t-8 -14l-91 -202q-23 -51 -27 -57l-12 -18q-4 -7 -7.5 -13t-7.5 -12l-41 -71q-8 -13 -13.5 -21.5t-7.5 -12.5q-5 -11 -9.5 -19t-7.5 -15 q-13 -16 -31 -29.5t-33 -23.5q-12 -16 -7 -30q5 -12 10 -15l3.5 -1t11.5 -3q10 -2 80 -4q71 -3 79 1q15 5 17 22q2 14 -13 29q-21 6 -28 15q-12 11 -14 28q-1 13 26 57q2 2 5.5 9t8.5 20q7 17 17 27q13 13 21 15q2 1 27 -1q15 -2 27 -2t21 1l64 6h25h13q5 -1 8 -1h5h17 q92 0 108 -19q5 -7 25 -58t19 -57q-2 -11 -4 -15q-7 -7 -11 -10t-15 -11q-4 -4 -9 -14q-5 -14 4 -27q13 -18 101 -18h68q98 0 106 12q9 14 -1 41q-7 13 -22 22q-13 8 -19.5 11.5l-6.5 3.5q-10 8 -20 19.5t-21 26.5q-16 23 -24.5 36t-10.5 15l-24 51l-71 145q-8 16 -12 27 l-41 90q-14 31 -15 34l-30 56q-8 17 -13 29l-33 62q-29 53 -30 61q0 1 -6 30q-4 23 -11 30q-11 13 -33 8zM320 285q-8 4 -10 9.5t-3 11.5q-1 3 3 13l4 10q3 7 5.5 12.5t4.5 10.5l5 11l9 11l29 80q10 20 16 26q5 9 7.5 15t3.5 9q8 22 12 26q10 13 23 13q19 -11 22 -20 q10 -14 15 -24l23 -52q7 -14 10 -21.5l3 -7.5l6 -14q4 -8 11 -21.5t18 -33.5q16 -28 16 -40q0 -7 -3 -11q-9 -15 -46 -11q-10 1 -21.5 1.5t-25.5 0.5h-15q-4 0 -9.5 1t-7.5 1h-20q-5 0 -15 -1t-15 -1l-30 -4h-25zM567 1011q-7 -11 -11 -19.5t-5 -15.5q-21 -24 -51 -18 q-8 4 -14 6.5t-10 4.5q-36 18 -51 27q-32 18 -73 6q-26 -7 -35 -16q-8 -13 -14 -23t-9 -18q-17 -33 -20 -53q-2 -5 14 -3q14 1 16 3t5.5 8t8.5 15q7 16 13 19q20 17 51 5q13 -7 21.5 -11.5t13.5 -8.5l24 -12q18 -8 29 -12t15 -5q9 -2 38 9q11 5 19.5 8t13.5 5q34 33 40 88 q0 9 -1 11t-19 2q-7 0 -9 -2z" />
<glyph unicode="&#xc4;" horiz-adv-x="858" d="M439 806q-24 -6 -74 -38q-33 -21 -33 -38q0 -8 27 -36q21 -26 27.5 -39t6.5 -25q0 -17 -13 -39q-11 -20 -17 -31t-8 -14l-91 -202q-10 -22 -16.5 -36t-11.5 -21l-11 -18q-10 -15 -15 -25l-42 -71q-18 -27 -21 -34q-5 -11 -9.5 -19t-7.5 -15q-9 -14 -30 -30 q-28 -16 -33 -23q-11 -14 -8 -30q4 -11 10 -15q3 0 16 -4q10 -2 80 -4q71 -3 79 1q15 5 17 22q2 13 -13 29q-20 6 -29 15q-13 13 -13 28q-2 13 26 57q2 2 5.5 9t8.5 20q7 17 17 27q13 13 21 15q1 1 26 -1q15 -2 27 -2t22 1l64 6h25h13q5 -1 8 -1h5h16q93 0 109 -19 q5 -7 25 -58t19 -57q-2 -11 -4 -15q-7 -7 -10.5 -9.5t-15.5 -11.5q-4 -4 -9 -14q-5 -14 4 -27q13 -18 101 -18h67q98 0 106 12q4 6 3 21q-2 14 -4 20q-7 13 -20.5 21t-26.5 16q-23 19 -42 46q-16 23 -24 36t-10 15l-24 51l-71 145q-5 14 -13 27l-40 90q-6 13 -10 21.5 t-6 12.5l-29 56q-8 17 -13 29l-33 62q-14 28 -22 43t-9 18l-6 30q-5 24 -11 30q-11 13 -32 8zM333 285q-8 4 -10 9.5t-3 11.5q0 -3 6 23q3 7 6 12.5t5 10.5l5 11l9 11l28 80q11 21 17 26q5 9 7.5 15t3.5 9q4 11 6.5 17.5t4.5 8.5q12 13 24 13q19 -11 22 -20q12 -17 15 -24 l23 -52q7 -14 10 -21.5l3 -7.5l6 -14l11 -22t18 -34q16 -26 16 -39q0 -26 -49 -22q-10 1 -22 1.5t-26 0.5h-15q-3 0 -8.5 1t-7.5 1h-21q-4 0 -14 -1t-15 -1l-30 -4h-25zM293 985q-23 -26 -21 -41q2 -34 33 -50q21 -11 51 0q10 5 14 15q1 2 2 6.5t2 10.5q9 18 9 22 q4 31 -6 44q-20 24 -60 11q-17 -11 -24 -18zM485 985q-23 -26 -21 -41q2 -34 33 -50q21 -11 51 0q14 8 18 32q9 18 9 22q4 37 -12 50q-20 17 -55 5q-8 -5 -13.5 -9.5t-9.5 -8.5z" />
<glyph unicode="&#xc5;" horiz-adv-x="858" d="M439 806q-24 -6 -74 -38q-33 -21 -33 -38q0 -8 27 -36q21 -26 27.5 -39t6.5 -25q0 -17 -13 -39q-11 -20 -17 -31t-8 -14l-91 -202q-10 -22 -16.5 -36t-11.5 -21l-11 -18q-10 -15 -15 -25l-42 -71q-18 -27 -21 -34q-5 -11 -9.5 -19t-7.5 -15q-9 -14 -30 -30 q-28 -16 -33 -23q-11 -14 -8 -30q4 -11 10 -15q3 0 16 -4q10 -2 80 -4q71 -3 79 1q15 5 17 22q2 13 -13 29q-20 6 -29 15q-13 13 -13 28q-2 13 26 57q2 2 5.5 9t8.5 20q7 17 17 27q13 13 21 15q1 1 26 -1q15 -2 27 -2t22 1l64 6h25h13q5 -1 8 -1h5h16q93 0 109 -19 q5 -7 25 -58t19 -57q-2 -11 -4 -15q-7 -7 -10.5 -9.5t-15.5 -11.5q-4 -4 -9 -14q-5 -14 4 -27q13 -18 101 -18h67q98 0 106 12q4 6 3 21q-2 14 -4 20q-7 13 -20.5 21t-26.5 16q-23 19 -42 46q-16 23 -24 36t-10 15l-24 51l-71 145q-5 14 -13 27l-40 90q-6 13 -10 21.5 t-6 12.5l-29 56q-8 17 -13 29l-33 62q-14 28 -22 43t-9 18l-6 30q-5 24 -11 30q-11 13 -32 8zM333 285q-8 4 -10 9.5t-3 11.5q0 -3 6 23q3 7 6 12.5t5 10.5l5 11l9 11l28 80q11 21 17 26q5 9 7.5 15t3.5 9q4 11 6.5 17.5t4.5 8.5q12 13 24 13q19 -11 22 -20q12 -17 15 -24 l23 -52q7 -14 10 -21.5l3 -7.5l6 -14l11 -22t18 -34q16 -26 16 -39q0 -26 -49 -22q-10 1 -22 1.5t-26 0.5h-15q-3 0 -8.5 1t-7.5 1h-21q-4 0 -14 -1t-15 -1l-30 -4h-25zM406 1104q-11 -5 -19.5 -10t-13.5 -9q-11 -7 -19.5 -12.5t-13.5 -9.5q-19 -24 -17 -67q1 -35 11 -51 q11 -18 41 -37q30 -17 43 -18q21 -2 54 14q18 8 28 14t15.5 12t7.5 12.5t4 15.5l2 14l2 14q6 39 1 55q-6 20 -30 41q-25 15 -40 18q-30 10 -56 4zM365 995q-2 24 24 48q16 18 24 21q37 13 62 -7q15 -13 11 -59q-2 -7 -4 -11.5t-4 -8.5q-7 -28 -20 -35q-29 -17 -58 0 q-32 18 -35 52z" />
<glyph unicode="&#xc6;" horiz-adv-x="1141" d="M319 285q-8 4 -10 9.5t-3 11.5q-1 5 7 23q3 7 5.5 12.5t4.5 10.5l5 11l9 11l28 80q11 21 17 26q5 9 7.5 15t3.5 9q8 22 12 26q10 13 23 13q19 -11 22 -20q12 -17 15 -24l23 -52q7 -14 10 -21.5l3 -7.5l6 -14l11 -22t18 -34q16 -26 16 -39q0 -7 -3 -11q-8 -16 -46 -11 q-10 1 -21.5 1.5t-25.5 0.5h-15q-4 0 -9.5 1t-7.5 1h-20q-5 0 -15.5 -1t-14.5 -1l-30 -4h-25zM1114 168q-9 -4 -16 -16q-5 -13 -8.5 -22t-5.5 -16q-37 -58 -122 -58q-80 0 -130 34q-10 7 -16 12t-9.5 10t-5 11.5t-2.5 15.5q0 24 -1 25q-5 18 -6 27q-1 5 -0.5 13t1.5 19 q3 28 3 41q0 3 -0.5 9t-1 13.5l-1 15t-0.5 12.5q2 15 6 22q10 15 30 19q11 2 38 3q25 1 63 -9q28 -10 31 -13q18 -19 20 -29q13 -22 26 -22q6 0 12.5 5t11.5 18t8 34.5t3 54.5q0 36 -8 50q-14 23 -26 23q-11 0 -18.5 -8t-15.5 -16q-17 -16 -37 -28q-14 -6 -46 -6 q-49 0 -69 11q-24 13 -24 60v12t1 15v19q0 4 1 12t1 11l5 22q1 7 -3 30q-2 12 -3 21t-1 16q0 13 3 24q19 55 114 55q71 0 111 -35q22 -20 31 -41.5t16 -40.5q4 -6 12 -6q5 0 10 3q20 8 28 46q1 5 1.5 11.5t0.5 13.5q0 59 -22 82t-75 23q-6 0 -15 -0.5t-19 -1t-18.5 -1 t-12.5 -0.5h-63l-22 -1h-23h-34t-5 1h-44q-17 3 -24 3h-23q4 0 -5 0q-8 0 -28 1q-14 1 -25.5 0.5t-20.5 -1.5q-25 -1 -32 -7q-11 -11 -10 -25q1 -18 18 -32q23 -16 30 -26q11 -15 12 -88q1 -31 0.5 -54.5t-2.5 -39.5v-20q0 -1 2.5 -16l7.5 -45v-15q0 -1 -0.5 -10t-1.5 -23.5 t-1 -24.5v-14l-21 43q-8 16 -12 27l-41 90q-14 31 -15 34l-30 56q-8 17 -13 29l-33 62q-29 53 -30 61q0 1 -6 30q-4 23 -11 30q-11 13 -33 8q-21 -4 -73 -38q-34 -22 -34 -38q0 -8 27 -36q18 -20 28 -38q6 -14 6 -26q0 -17 -13 -39q-11 -20 -17 -31t-8 -14l-91 -202 q-10 -22 -16.5 -36t-11.5 -21l-11 -18q-4 -7 -7.5 -13t-7.5 -12l-41 -71q-8 -13 -13.5 -21.5t-8.5 -12.5q-5 -11 -9 -19t-7 -15q-13 -16 -31 -29.5t-33 -23.5q-12 -15 -7 -30q5 -12 10 -15l3.5 -1t11.5 -3q10 -2 80 -4q71 -3 79 1q15 5 17 22q2 14 -13 29q-21 6 -28 15 q-12 11 -14 28q-1 13 26 57q2 2 5.5 9t8.5 20q7 17 17 27q13 13 21 15q2 1 27 -1q15 -2 27 -2t21 1l64 6h25h13q5 -1 8 -1h5h17q92 0 108 -19q5 -7 25 -58t19 -57q-2 -11 -4 -15q-6 -6 -12 -10q-8 -7 -15.5 -13.5t-9.5 -18.5q-2 -14 10 -29q10 -9 40 -6q22 -3 57 -3h68 q63 0 68 1l6 -1q26 -2 53 0q21 2 36.5 2.5t25.5 -0.5l22 -2t22 -3h17q85 0 111 29q29 35 29 97q0 9 -2 19q-4 19 -12 25q-20 8 -25 5z" />
<glyph unicode="&#xc7;" horiz-adv-x="786" d="M412 -22q-5 -9 -9 -16t-8 -12q-10 -17 -14.5 -26t-5.5 -10q-7 -8 -10.5 -13t-5.5 -7q-17 -17 -17 -20q0 -8 1 -10q3 -3 9 -5q7 -4 16 -4q6 0 18.5 2.5t17.5 2.5t11 -2q31 -16 31 -32q0 -27 -24 -43q-17 -12 -44 -12q-11 0 -46 11q-32 10 -33 12q-2 1 -11 -8 q-10 0 -10 -16q0 -2 -1.5 -6.5t-1.5 -7.5q3 -3 9 -7q11 -4 20 -7t17 -5q40 -14 59 -14q11 0 32 3q11 1 17.5 1.5t10.5 0.5q20 0 47 12q21 9 33 17.5t18.5 16.5t8 16.5t1.5 19.5q0 6 -2 15.5t-2 14.5q0 20 -12 35q-30 37 -65 37q-4 0 -11.5 -0.5t-15.5 -1t-15 -1t-10 -0.5 q8 10 13.5 18t9.5 13q7 11 11.5 20t8.5 16q43 0 84 12l33 10q45 13 63 13q9 0 19 -1.5t11 -1.5l31 -10q13 0 17 4q2 2 9 17q4 9 12 53q9 43 9 65q0 9 -1 10q-9 16 -27 16q-5 0 -42 -29q-41 -32 -43 -33q-45 -33 -84 -47q-40 -15 -108 -5q-73 10 -118 46q-29 23 -61 73 q-7 11 -15 24t-17 29q-13 22 -23 78q-2 11 -4.5 24.5t-4.5 27.5q0 5 1.5 15.5l3.5 24.5q2 15 3.5 23t1.5 10q0 24 9 72q9 50 28 79q5 8 18 24.5t34 41.5q80 92 185 92q20 0 40 -3q17 -2 45 -15.5t68 -36.5q43 -29 57 -39q51 -45 52 -45q15 -6 29 8q13 14 13 128q0 23 -19 27 q-7 0 -34 -7q-10 0 -20.5 -1t-12.5 -1q-21 0 -32 7q-8 5 -16.5 8.5t-16.5 5.5h-17q-16 0 -52 11q-36 12 -53 11q-14 3 -31 3q-8 0 -19 -1t-26 -3q-30 -3 -44 -3q-46 0 -79 -16q-29 -19 -50.5 -34.5t-35.5 -26.5q-86 -56 -108 -96l-9.5 -19t-19.5 -42q-23 -55 -23 -59 q-8 -32 -8 -62q0 -22 -0.5 -36t-1.5 -22v-35q2 -13 3.5 -20t2.5 -12.5t2 -12.5t1 -20q0 -31 19 -62l13.5 -27t13.5 -26q29 -49 54 -71q26 -23 59 -42t73 -35q72 -28 79 -29q5 0 16.5 -2t17.5 -2z" />
<glyph unicode="&#xc8;" horiz-adv-x="601" d="M579 168q-16 -16 -20 -25l-5.5 -16.5t-4.5 -12.5q-37 -58 -121 -58q-80 0 -130 34q-11 7 -17 12t-9.5 10t-5 11.5t-2.5 15.5q0 24 -1 25l-6 27q-1 6 2 32q3 28 3 41q0 -11 -3 36q-2 27 5 36q9 14 30 19q10 1 39 3q24 0 62 -9q28 -10 31 -13q18 -19 20 -29q16 -22 26 -22 q6 0 12.5 5t11.5 18t8 34.5t3 54.5q0 73 -33 73q-11 0 -19 -8t-15 -16q-26 -22 -37 -28q-14 -6 -47 -6q-49 0 -69 11q-24 13 -24 60v12t1 15v19q0 4 1 12t1 11l5 22q1 7 -3 30q-2 12 -3 21t-1 16q0 58 56 72q28 7 62 7q71 0 111 -35q21 -19 30 -41t16 -41q6 -6 12 -6 q5 0 10 3q20 8 28 46q1 5 1.5 11.5t0.5 13.5q0 59 -22 82t-75 23q-6 0 -15 -0.5t-19 -1t-18.5 -1t-12.5 -0.5h-62l-23 -1h-23h-34t-5 1h-44q-17 3 -24 3h-23q3 0 -5 0t-28 1q-28 1 -46 0q-24 -1 -31 -8q-13 -8 -11 -25q1 -18 19 -32q23 -16 30 -26q11 -15 12 -88 q1 -61 -3 -94v-20q0 -5 1 -13t3 -18q4 -24 6 -30v-15q0 -1 -0.5 -10t-1 -23.5t-0.5 -24.5v-153q0 -26 -10 -62q-2 -10 -4.5 -20t-4.5 -20q-4 -12 -16 -22q-2 -2 -29 -15q-16 -7 -19 -24q-3 -15 11 -29q11 -9 46 -5h26h12h10h53q10 1 15 0h22l54 -4q26 -2 53 0q22 2 37.5 2.5 t25.5 -0.5q11 -1 21.5 -2t21.5 -3h17q85 0 111 29q29 35 29 100q0 11 -1 16q-8 21 -13 25q-20 8 -25 5zM383 893q2 5 -16 25q-18 21 -28 31q-21 22 -30 33l-24.5 24.5t-18.5 17.5q-13 14 -22.5 24.5t-14.5 17.5q-16 13 -35 8q-19 -4 -27 -16q-2 -4 -4 -15q-2 -17 11 -30 q13 -11 23.5 -19t18.5 -13q17 -13 28.5 -21t17.5 -11q20 -11 35 -20.5t25 -17.5q7 -6 11.5 -10.5t8.5 -7.5q9 -4 17 -4q23 0 24 4z" />
<glyph unicode="&#xc9;" horiz-adv-x="601" d="M579 168q-16 -16 -20 -25l-5.5 -16.5t-4.5 -12.5q-37 -58 -121 -58q-80 0 -130 34q-11 7 -17 12t-9.5 10t-5 11.5t-2.5 15.5q0 24 -1 25l-6 27q-1 6 2 32q3 28 3 41q0 -11 -3 36q-2 27 5 36q9 14 30 19q10 1 39 3q24 0 62 -9q28 -10 31 -13q18 -19 20 -29q16 -22 26 -22 q6 0 12.5 5t11.5 18t8 34.5t3 54.5q0 73 -33 73q-11 0 -19 -8t-15 -16q-26 -22 -37 -28q-14 -6 -47 -6q-49 0 -69 11q-24 13 -24 60v12t1 15v19q0 4 1 12t1 11l5 22q1 7 -3 30q-2 12 -3 21t-1 16q0 58 56 72q28 7 62 7q71 0 111 -35q21 -19 30 -41t16 -41q6 -6 12 -6 q5 0 10 3q20 8 28 46q1 5 1.5 11.5t0.5 13.5q0 59 -22 82t-75 23q-6 0 -15 -0.5t-19 -1t-18.5 -1t-12.5 -0.5h-62l-23 -1h-23h-34t-5 1h-44q-17 3 -24 3h-23q3 0 -5 0t-28 1q-28 1 -46 0q-24 -1 -31 -8q-13 -8 -11 -25q1 -18 19 -32q23 -16 30 -26q11 -15 12 -88 q1 -61 -3 -94v-20q0 -5 1 -13t3 -18q4 -24 6 -30v-15q0 -1 -0.5 -10t-1 -23.5t-0.5 -24.5v-153q0 -26 -10 -62q-2 -10 -4.5 -20t-4.5 -20q-4 -12 -16 -22q-2 -2 -29 -15q-16 -7 -19 -24q-3 -15 11 -29q11 -9 46 -5h26h12h10h53q10 1 15 0h22l54 -4q26 -2 53 0q22 2 37.5 2.5 t25.5 -0.5q11 -1 21.5 -2t21.5 -3h17q85 0 111 29q29 35 29 100q0 11 -1 16q-8 21 -13 25q-20 8 -25 5zM292 918q-17 -23 -16 -25q3 -4 25 -4q8 0 17 4q12 12 20 18q20 14 35 23.5t25 14.5q13 6 46 31q34 25 42 33q13 13 11 30q-2 11 -4 15q-8 12 -27 16q-19 5 -35 -8 q-24 -24 -37 -42q-14 -14 -25 -24.5t-18 -17.5q-20 -21 -30 -33q-9 -10 -16.5 -18t-12.5 -13z" />
<glyph unicode="&#xca;" horiz-adv-x="601" d="M586 168q-12 -4 -20 -25l-11 -29q-37 -58 -121 -58q-80 0 -130 34q-11 7 -17 12t-9.5 10t-5 11.5t-2.5 15.5q0 24 -1 25q-2 9 -3 15.5t-2 11.5t-0.5 13t1.5 19q3 28 3 41q0 3 -0.5 9t-1.5 13.5t-1 14.5v13q0 14 5 22q9 14 30 19q10 1 39 3q24 2 62 -9q28 -10 31 -13 q18 -19 20 -29q16 -22 27 -22q13 1 24 22q10 20 10 90q0 36 -8 50q-12 23 -25 23q-11 0 -18.5 -8t-15.5 -16q-26 -22 -37 -28q-14 -6 -47 -6q-49 0 -69 11q-24 13 -24 60v12t1 15v19q0 4 1 12t1 11l6 22q1 5 -4 31q-2 12 -3 21t-1 16q0 57 56 71q28 7 62 7q71 0 111 -35 q19 -16 31 -42q5 -11 8.5 -20.5t7.5 -19.5q4 -6 12 -6q4 0 10 3q18 8 27 46q3 10 3 26q0 58 -22 81t-76 23q-6 0 -15 -0.5t-19 -1t-18.5 -1t-12.5 -0.5h-62l-22 -1h-24h-34t-5 1h-43q-17 3 -25 3h-23q3 0 -5 0t-27 1q-29 2 -46 0q-24 -1 -32 -8q-13 -8 -11 -25q1 -18 19 -32 q23 -16 30 -26q11 -15 12 -88q1 -31 0.5 -54.5t-2.5 -39.5v-20q0 -5 1 -13t3 -18q2 -13 3 -20.5t2 -9.5v-15q0 -1 -0.5 -10t-1 -23.5t-0.5 -24.5v-153q0 -25 -10 -62q-2 -10 -4.5 -20t-4.5 -20q-4 -12 -16 -22q-2 -2 -28 -15q-17 -8 -20 -24q-3 -12 11 -29q9 -10 47 -5h25 h12h10h53q10 1 15 0h22l54 -4q26 -2 53 0q22 2 37.5 2.5t25.5 -0.5q11 -1 21.5 -2t21.5 -3h17q85 0 111 29q30 34 30 99q0 5 -0.5 9t-1.5 8q-4 18 -13 25q-20 8 -24 5zM333 1073q-8 -10 -14.5 -17.5t-10.5 -13.5q-12 -16 -21 -27.5t-14 -19.5q-12 -15 -21 -26t-15 -18 q-6 -11 -10 -19t-6 -13q-6 -17 -6 -23q0 -8 21 -6q22 3 45 33q7 10 11.5 18t8.5 13q21 23 41 38q8 7 14.5 12t11.5 9q7 -4 11.5 -6.5t6.5 -3.5q33 -30 38 -35q13 -17 18 -29q14 -17 20 -22q8 -9 12.5 -14t5.5 -6q10 -8 22 -10q17 -2 18 10q0 22 -24 64q-6 9 -10.5 15.5 t-8.5 11.5q-19 21 -29 32.5t-15 18.5q-10 11 -17.5 20t-12.5 14q-19 21 -48 16q-18 -10 -22 -16z" />
<glyph unicode="&#xcb;" horiz-adv-x="601" d="M583 168q-12 -4 -20 -25q-2 -4 -5.5 -14.5t-5.5 -14.5q-37 -58 -121 -58q-80 0 -130 34q-11 7 -17 12t-9.5 10t-5 11.5t-2.5 15.5q0 24 -1 25q-2 9 -3 15.5t-2 11.5q-2 11 1 32q3 30 3 41q0 -11 -3 36q-2 27 5 36q9 14 30 19q10 1 39 3q24 0 62 -9q28 -10 31 -13 q18 -19 20 -29q16 -22 27 -22q13 1 24 22q10 20 10 90q0 73 -33 73q-11 0 -19 -8t-15 -16q-26 -22 -37 -28q-14 -6 -47 -6q-49 0 -69 11q-24 13 -24 60v12t1 15v19q0 4 1 12t1 11l5 22q1 7 -3 30q-2 12 -3 21t-1 16q0 58 56 72q28 7 62 7q71 0 111 -35q19 -18 30 -42 q3 -3 8 -20q7 -20 8 -20q6 -6 13 -6q4 0 10 3q18 7 27 46q3 10 3 26q0 58 -22 81t-76 23q-6 0 -15 -0.5t-19 -1t-18.5 -1t-12.5 -0.5h-62l-23 -1h-23h-34t-5 1h-43q-17 3 -25 3h-23q3 0 -5 0t-27 1q-29 2 -46 0q-24 -1 -32 -8q-13 -8 -11 -25q1 -18 19 -32q23 -16 30 -26 q11 -15 12 -88q1 -64 -3 -94v-20q0 -5 1 -13t3 -18q4 -24 6 -30v-15q0 -1 -0.5 -10t-1 -23.5t-0.5 -24.5v-153q0 -25 -10 -62q-2 -10 -4.5 -20t-4.5 -20q-4 -12 -16 -22q-2 -2 -29 -15q-16 -7 -19 -24q-3 -15 11 -29q11 -9 46 -5h26h12h10h53q10 1 15 0h22l54 -4q26 -2 53 0 q22 2 37.5 2.5t25.5 -0.5q11 -1 21.5 -2t21.5 -3h17q85 0 111 29q30 34 30 99q0 5 -0.5 9t-1.5 8q-4 18 -13 25q-20 8 -24 5zM227 985q-23 -24 -21 -41q3 -33 32 -50q21 -11 51 0q10 5 14 15q1 2 2 6.5t2 10.5q10 19 10 22q4 36 -13 50q-19 16 -54 5q-18 -11 -23 -18z M418 985q-23 -26 -21 -41q2 -34 33 -50q21 -11 51 0q10 5 14 15q1 2 2 6.5t2 10.5q9 18 9 22q4 31 -6 44q-20 24 -60 11q-17 -11 -24 -18z" />
<glyph unicode="&#xcc;" horiz-adv-x="316" d="M313 744q-10 22 -31 14h-25l-7 2l-5 2l-7 -2l-6 2q-9 0 -12 1h-10h-50l-22 3q-9 -5 -24 -3q-5 1 -10 1.5t-10 1.5q-13 2 -21 -4q-16 -10 -14 -32q5 -23 19 -30q22 -10 28 -18q10 -12 9 -70q0 -11 0.5 -19.5t1.5 -15.5q2 -9 2.5 -18t1.5 -18l8 -57q0 -1 -1.5 -10.5 t-3.5 -28.5q-2 -6 -2 -19l-2 -19q-3 -30 0 -41q1 -3 4.5 -12t11.5 -23q-5 -6 -8.5 -10t-5.5 -6q0 -3 -3 -18q-1 -5 -1 -14q0 -11 5 -29t5 -29q0 -14 -1.5 -25t-1.5 -12q0 -8 14 -34l-7 -7l-12 6q-2 -7 -3 -11.5t-2 -8.5q0 -16 -1 -19q-1 -11 -2 -20t-2 -17q-5 -9 -17 -14 q-14 -6 -18 -10q-10 -10 -12 -19l-4 -18q13 -16 38 -16h105h31q27 -2 44 0q23 1 30 8q11 11 9 26q-5 15 -20 23q-12 7 -18.5 10t-7.5 4q-20 17 -12 92v23q2 12 -7 75v31q-4 24 -1 51q3 37 3 40v30l-3 49v62q0 138 26 162q11 8 19 14.5t13 10.5q5 7 5 33zM263 893q1 3 -17 24 q-9 11 -16 19t-12 13q-10 11 -17 19.5t-12 13.5q-14 14 -25 24.5t-19 17.5q-13 14 -22.5 24.5t-14.5 17.5q-16 13 -35 8q-17 -4 -26 -16q-3 -3 -5 -15q-2 -17 11 -30q13 -11 23.5 -19t18.5 -13q19 -14 30 -22t16 -10q39 -20 60 -38q7 -6 12 -10.5t8 -7.5q9 -4 17 -4 q24 0 25 4z" />
<glyph unicode="&#xcd;" horiz-adv-x="316" d="M313 744q-10 22 -31 14h-25l-7 2l-5 2l-7 -2l-6 2q-9 0 -12 1h-10h-50l-22 3q-9 -5 -24 -3q-5 1 -10 1.5t-10 1.5q-13 2 -21 -4q-16 -10 -14 -32q5 -23 19 -30q22 -10 28 -18q10 -12 9 -70q0 -11 0.5 -19.5t1.5 -15.5q2 -9 2.5 -18t1.5 -18l8 -57q0 -1 -1.5 -10.5 t-3.5 -28.5q-2 -6 -2 -19l-2 -19q-3 -30 0 -41q1 -3 4.5 -12t11.5 -23q-5 -6 -8.5 -10t-5.5 -6q0 -3 -3 -18q-1 -5 -1 -14q0 -11 5 -29t5 -29q0 -14 -1.5 -25t-1.5 -12q0 -8 14 -34l-7 -7l-12 6q-2 -7 -3 -11.5t-2 -8.5q0 -16 -1 -19q-1 -11 -2 -20t-2 -17q-5 -9 -17 -14 q-14 -6 -18 -10q-10 -10 -12 -19l-4 -18q13 -16 38 -16h105h31q27 -2 44 0q23 1 30 8q11 11 9 26q-5 15 -20 23q-12 7 -18.5 10t-7.5 4q-20 17 -12 92v23q2 12 -7 75v31q-4 24 -1 51q3 37 3 40v30l-3 49v62q0 138 26 162q11 8 19 14.5t13 10.5q5 7 5 33zM140 918 q-17 -23 -16 -25q1 -4 24 -4q8 0 17 4q12 12 20 18q21 14 36 23.5t25 14.5q6 4 17 12t28 20q20 14 30.5 22t12.5 10q12 13 10 30q-2 11 -4 15q-7 10 -26 16q-19 5 -35 -8q-24 -24 -37 -42q-14 -14 -25 -24.5t-19 -17.5q-20 -21 -30 -33q-17 -20 -28 -31z" />
<glyph unicode="&#xce;" horiz-adv-x="316" d="M313 744q-10 22 -31 14h-25l-7 2l-5 2l-7 -2l-6 2q-9 0 -12 1h-10h-50l-22 3q-9 -5 -24 -3q-5 1 -10 1.5t-10 1.5q-13 2 -21 -4q-16 -10 -14 -32q5 -23 19 -30q22 -10 28 -18q10 -12 9 -70q0 -11 0.5 -19.5t1.5 -15.5q2 -9 2.5 -18t1.5 -18l8 -57q0 -1 -1.5 -10.5 t-3.5 -28.5q-2 -6 -2 -19l-2 -19q-3 -30 0 -41q1 -3 4.5 -12t11.5 -23q-5 -6 -8.5 -10t-5.5 -6q0 -3 -3 -18q-1 -5 -1 -14q0 -11 5 -29t5 -29q0 -14 -1.5 -25t-1.5 -12q0 -8 14 -34l-7 -7l-12 6q-2 -7 -3 -11.5t-2 -8.5q0 -16 -1 -19q-1 -11 -2 -20t-2 -17q-5 -9 -17 -14 q-14 -6 -18 -10q-10 -10 -12 -19l-4 -18q13 -16 38 -16h105h31q27 -2 44 0q23 1 30 8q11 11 9 26q-5 15 -20 23q-12 7 -18.5 10t-7.5 4q-20 17 -12 92v23q2 12 -7 75v31q-4 24 -1 51q3 37 3 40v30l-3 49v62q0 138 26 162q11 8 19 14.5t13 10.5q5 7 5 33zM153 1073 q-8 -10 -14.5 -17.5t-10.5 -13.5q-12 -16 -21 -27.5t-14 -19.5q-12 -15 -21 -26t-15 -18q-6 -11 -10 -19t-6 -13q-6 -17 -6 -23q0 -8 21 -6q22 3 45 33q7 10 11.5 18t8.5 13q14 18 41 38q8 7 14.5 12t11.5 9q7 -4 11.5 -6.5t6.5 -3.5q33 -30 38 -35q13 -17 18 -29 q14 -17 20 -22q12 -12 18 -20q11 -8 22 -10q17 -2 18 10q0 11 -6 28l-18 36q-6 9 -10.5 15.5t-8.5 11.5q-19 21 -29 32.5t-15 18.5q-15 18 -31 34q-16 21 -47 16q-18 -10 -22 -16z" />
<glyph unicode="&#xcf;" horiz-adv-x="316" d="M313 744q-10 22 -31 14h-25l-7 2l-5 2l-7 -2l-6 2q-9 0 -12 1h-10h-50l-22 3q-9 -5 -24 -3q-5 1 -10 1.5t-10 1.5q-13 2 -21 -4q-16 -10 -14 -32q5 -23 19 -30q22 -10 28 -18q10 -12 9 -70q0 -11 0.5 -19.5t1.5 -15.5q2 -9 2.5 -18t1.5 -18l8 -57q0 -1 -1.5 -10.5 t-3.5 -28.5q-2 -6 -2 -19l-2 -19q-3 -30 0 -41q1 -3 4.5 -12t11.5 -23q-5 -6 -8.5 -10t-5.5 -6q0 -3 -3 -18q-1 -5 -1 -14q0 -11 5 -29t5 -29q0 -14 -1.5 -25t-1.5 -12q0 -8 14 -34l-7 -7l-12 6q-2 -7 -3 -11.5t-2 -8.5q0 -16 -1 -19q-1 -11 -2 -20t-2 -17q-5 -9 -17 -14 q-14 -6 -18 -10q-10 -10 -12 -19l-4 -18q13 -16 38 -16h105h31q27 -2 44 0q23 1 30 8q11 11 9 26q-5 15 -20 23q-12 7 -18.5 10t-7.5 4q-20 17 -12 92v23q2 12 -7 75v31q-4 24 -1 51q3 37 3 40v30l-3 49v62q0 138 26 162q11 8 19 14.5t13 10.5q5 7 5 33zM71 985 q-23 -23 -21 -41q2 -34 33 -50q23 -12 50 0q10 5 14 14q1 2 2 6.5t2 11.5q10 14 10 22q4 36 -13 50q-19 16 -54 5q-8 -5 -13.5 -9.5t-9.5 -8.5zM263 985q-23 -24 -21 -41q3 -33 32 -50q22 -14 51 0q10 5 14 14q1 2 2 6.5t2 11.5q10 19 10 22q4 36 -13 50q-19 16 -54 5 q-18 -11 -23 -18z" />
<glyph unicode="&#xd1;" horiz-adv-x="905" d="M668 1011q-14 -23 -15 -35q-21 -24 -51 -18q-8 4 -14.5 6.5t-10.5 4.5q-36 18 -51 27q-20 11 -42 11q-13 0 -31 -5q-24 -7 -35 -16q-8 -13 -14 -23t-8 -18q-17 -33 -20 -53q-2 -5 14 -3q14 1 16 3q9 14 15.5 24t10.5 18q21 17 52 5q25 -13 35 -19.5t23 -12.5 q17 -8 28.5 -12t16.5 -5q7 -1 38 9q11 5 19.5 8t13.5 5q23 23 34 58l6 30q0 9 -1 11t-19 2q-6 0 -10 -2zM787 534q0 -10 -8 -39q0 -6 -2.5 -18t-2.5 -16v-17l-4 -26l-4 -26q-3 -20 -2 -43q3 -73 -13 -101q-12 -19 -29 -21q-18 -1 -86 58q-31 28 -51.5 49t-31.5 36l-18 26 q-17 25 -40 51t-51 53q-10 10 -16 16.5t-10 11.5l-18 27q-7 10 -24.5 23.5t-26.5 20.5l-11 14q-25 35 -30 43l-34 36q-26 28 -41 44t-19 21q-7 10 -14 19t-15 19q-13 16 -28 15q-14 -2 -47 -26q-35 -26 -42 -40q-6 -11 -6 -23q0 -16 13 -35q89 -90 94 -97q10 -17 10 -45 q0 1 -1.5 -13.5t-3.5 -44.5l-10 -118l-5 -52v-86q0 -120 -46 -154q-1 0 -31 -15q-22 -11 -26 -22q-6 -14 4 -27q10 -12 94 -12h15q38 7 71 4q63 -5 69 -1q18 11 15 32q-3 18 -19 24t-31 11q-50 27 -50 92q0 11 1.5 30t1.5 27v132q1 5 2.5 14.5t2.5 14.5v23q0 89 24 97 q18 6 54 -34q2 -2 12 -15.5t29 -37.5l24 -31q30 -27 40 -32l13 -17q4 -13 12 -22q7 -7 11 -12t6 -8l11 -16q36 -34 53 -50l96 -96q5 -8 10 -15l10 -14q11 -16 20.5 -27.5t17.5 -19.5q14 -12 23.5 -21t16.5 -14q16 -16 24.5 -23.5t10.5 -8.5q16 -6 29 4q19 13 28 67 q2 17 3.5 35t3.5 36v26q0 4 2.5 12t2.5 11v30q0 2 1 13.5t1 13.5l15 133q1 6 1 21t1 39q0 29 -1 50t-3 33q-3 22 1 73q3 43 7 55q4 13 21 34q2 2 24 16q22 13 25 20q16 30 0 45q-6 6 -31 8h-52q-14 1 -27.5 2t-27.5 3q-17 1 -30 0.5t-23 -2.5q-23 -3 -39.5 -6.5t-16.5 -21.5 q0 -22 27 -26q20 -8 23 -12l14 -7t8 -7q19 -13 27 -35q5 -12 6 -40q2 -23 6 -42t11 -33z" />
<glyph unicode="&#xd2;" horiz-adv-x="882" d="M411 783q-62 -6 -131 -41q-87 -44 -151 -146q-54 -85 -68 -175q-6 -42 -6 -75q0 -153 114 -265q20 -13 38 -22.5t32 -16.5q49 -33 68 -39q38 -13 66 -16q4 -1 73 -4q179 -9 323 140q116 122 116 269q0 14 -1 29t-3 30q-2 13 -6 31t-11 43q-14 49 -24 69q-14 28 -21 35 q-12 11 -21 19t-14 12q-10 11 -17 20t-11 15q-8 8 -16.5 15t-18.5 15q-25 11 -44.5 18t-33.5 11q-56 24 -77 27q-78 9 -155 2zM193 552q58 163 242 163h26q106 -19 155 -55q59 -43 112 -153q10 -20 15.5 -35.5t7.5 -25.5l6 -63q0 -2 1.5 -9t3.5 -20q6 -26 6 -32q0 -3 -2 -14 t-2 -17q0 -7 0.5 -14.5t1.5 -16.5q-70 -180 -208 -196q-26 -3 -47 -3q-149 0 -251 140q-34 48 -56 126t-22 150q0 45 11 75zM559 893q2 4 -3.5 11t-12.5 14q-18 21 -28 31q-21 22 -30 33l-24.5 24.5t-18.5 17.5q-13 14 -22.5 24.5t-14.5 17.5q-16 13 -35 8q-19 -4 -27 -16 q-2 -4 -4 -15q-2 -17 11 -30q13 -11 23.5 -19t18.5 -13q17 -13 28.5 -21t17.5 -11q20 -11 35 -20.5t25 -17.5q7 -6 11.5 -10.5t8.5 -7.5q9 -4 17 -4q23 0 24 4z" />
<glyph unicode="&#xd3;" horiz-adv-x="882" d="M411 783q-62 -6 -131 -41q-87 -44 -151 -146q-54 -85 -68 -175q-6 -42 -6 -75q0 -153 114 -265q20 -13 38 -22.5t32 -16.5q49 -33 68 -39q38 -13 66 -16q4 -1 73 -4q179 -9 323 140q116 122 116 269q0 14 -1 29t-3 30q-2 13 -6 31t-11 43q-14 49 -24 69q-14 28 -21 35 q-12 11 -21 19t-14 12q-10 11 -17 20t-11 15q-8 8 -16.5 15t-18.5 15q-25 11 -44.5 18t-33.5 11q-56 24 -77 27q-78 9 -155 2zM193 552q58 163 242 163h26q106 -19 155 -55q59 -43 112 -153q10 -20 15.5 -35.5t7.5 -25.5l6 -63q0 -2 1.5 -9t3.5 -20q6 -26 6 -32q0 -3 -2 -14 t-2 -17q0 -7 0.5 -14.5t1.5 -16.5q-70 -180 -208 -196q-26 -3 -47 -3q-149 0 -251 140q-34 48 -56 126t-22 150q0 45 11 75zM436 918q-16 -21 -15 -25t24 -4q8 0 17 4q12 12 20 18q20 14 35 23.5t25 14.5q13 6 46 31q34 25 42 33q13 13 11 30q-2 11 -4 15q-8 12 -27 16 q-19 5 -35 -8q-24 -24 -37 -42q-14 -14 -25 -24.5t-18 -17.5q-20 -21 -30 -33q-9 -10 -16.5 -18t-12.5 -13z" />
<glyph unicode="&#xd4;" horiz-adv-x="882" d="M414 783q-62 -6 -131 -41q-88 -45 -150 -146q-55 -88 -68 -175q-4 -21 -5.5 -40t-1.5 -36q0 -152 115 -264q20 -13 38 -22.5t32 -16.5q58 -39 96 -48q13 -4 40.5 -6.5t69.5 -4.5q180 -9 323 140q117 123 117 270q0 14 -1 28.5t-3 29.5q-3 24 -18 74q-14 49 -24 69 q-13 27 -21 35q-12 11 -21 19t-14 12q-18 21 -27 35q-11 11 -20 18t-15 12q-25 11 -45 18t-34 11q-54 24 -77 27q-78 9 -155 2zM196 552q58 163 243 163h25q106 -19 155 -55q59 -43 112 -153q20 -42 23 -61q2 -16 3.5 -31.5t3.5 -31.5q0 -2 6 -30q2 -11 3 -19t1 -12 q0 -3 -2 -14t-2 -17q0 -7 0.5 -14.5t1.5 -16.5q-70 -180 -208 -196q-26 -3 -47 -3q-149 0 -251 140q-34 48 -56 126t-22 150q0 45 11 75zM443 1073q-8 -10 -14.5 -17.5t-10.5 -13.5q-12 -16 -21 -27.5t-14 -19.5q-12 -15 -21 -26t-15 -18q-5 -11 -9 -19t-6 -13 q-7 -15 -7 -23t21 -6q16 1 21 6l24 27q7 10 11.5 18t8.5 13q28 26 41 38q20 15 26 21q7 -4 11.5 -6.5t6.5 -3.5q33 -30 38 -35q13 -17 18 -29q7 -8 11.5 -13t8.5 -9q8 -9 12.5 -14t5.5 -6q10 -8 22 -10q17 -2 18 10q0 23 -24 64q-4 6 -8.5 12.5t-10.5 14.5q-19 21 -29 32.5 t-15 18.5q-10 11 -17.5 20t-12.5 14q-19 21 -48 16q-18 -10 -22 -16z" />
<glyph unicode="&#xd5;" horiz-adv-x="882" d="M411 783q-62 -6 -131 -41q-87 -44 -151 -146q-54 -85 -68 -175q-6 -42 -6 -75q0 -153 114 -265q20 -13 38 -22.5t32 -16.5q49 -33 68 -39q38 -13 66 -16q4 -1 73 -4q179 -9 323 140q116 122 116 269q0 14 -1 29t-3 30q-2 13 -6 31t-11 43q-14 49 -24 69q-14 28 -21 35 q-12 11 -21 19t-14 12q-10 11 -17 20t-11 15q-8 8 -16.5 15t-18.5 15q-25 11 -44.5 18t-33.5 11q-56 24 -77 27q-78 9 -155 2zM193 552q58 163 242 163h26q106 -19 155 -55q59 -43 112 -153q10 -20 15.5 -35.5t7.5 -25.5l6 -63q0 -2 1.5 -9t3.5 -20q6 -26 6 -32q0 -3 -2 -14 t-2 -17q0 -7 0.5 -14.5t1.5 -16.5q-70 -180 -208 -196q-26 -3 -47 -3q-149 0 -251 140q-34 48 -56 126t-22 150q0 45 11 75zM621 1013q-14 0 -17 -14q-6 -20 -9 -23q-20 -26 -51 -18q-8 3 -14 6l-10 5q-36 18 -51 27q-20 11 -42 11q-13 0 -31 -5q-24 -7 -35 -16 q-8 -13 -14 -23t-8 -18q-17 -33 -20 -53q-2 -5 14 -3q14 1 17 4q1 2 4 7t8 15q7 16 13 19q21 17 52 5q25 -13 35 -19.5t23 -12.5q17 -8 28.5 -12t16.5 -5q7 -1 38 9q11 5 19.5 8t13.5 5q23 25 34 58l6 30q0 9 -1 11t-19 2z" />
<glyph unicode="&#xd6;" horiz-adv-x="882" d="M411 783q-62 -6 -131 -41q-87 -44 -151 -146q-54 -85 -68 -175q-6 -42 -6 -75q0 -153 114 -265q20 -13 38 -22.5t32 -16.5q49 -33 68 -39q38 -13 66 -16q4 -1 73 -4q179 -9 323 140q116 122 116 269q0 14 -1 29t-3 30q-2 13 -6 31t-11 43q-14 49 -24 69q-14 28 -21 35 q-12 11 -21 19t-14 12q-10 11 -17 20t-11 15q-8 8 -16.5 15t-18.5 15q-25 11 -44.5 18t-33.5 11q-56 24 -77 27q-78 9 -155 2zM193 552q58 163 242 163h26q106 -19 155 -55q59 -43 112 -153q10 -20 15.5 -35.5t7.5 -25.5l6 -63q0 -2 1.5 -9t3.5 -20q6 -26 6 -32q0 -3 -2 -14 t-2 -17q0 -7 0.5 -14.5t1.5 -16.5q-70 -180 -208 -196q-26 -3 -47 -3q-149 0 -251 140q-34 48 -56 126t-22 150q0 45 11 75zM315 985q-23 -25 -22 -41q2 -34 33 -50q21 -11 51 0q10 5 14 15q1 2 2 6.5t2 10.5q10 19 10 22q4 36 -13 50q-19 16 -54 5q-18 -11 -23 -18z M506 985q-23 -26 -21 -41q2 -34 33 -50q21 -11 51 0q10 5 14 15q1 2 2 6.5t2 10.5q9 18 9 22q4 31 -6 44q-21 26 -60 11q-17 -11 -24 -18z" />
<glyph unicode="&#xd9;" horiz-adv-x="821" d="M475 893q1 3 -17 24q-9 11 -16 19t-12 13l-30 33l-24.5 24.5t-18.5 17.5q-13 14 -22.5 24.5t-14.5 17.5q-16 13 -35 8q-20 -6 -27 -16q-2 -4 -4 -15q-2 -17 11 -30q13 -11 23.5 -19t18.5 -13q17 -13 28.5 -21t17.5 -11q39 -20 60 -38q7 -6 12 -10.5t8 -7.5q9 -4 17 -4 q24 0 25 4zM568 76q-5 1 -9 4t-10 2q-6 -3 -10.5 -5.5t-8.5 -4.5q-44 -22 -89 -22q-57 0 -114 36q-54 34 -64 82q-2 21 -3 42t-3 43v62q0 10 1.5 23.5t1.5 19.5v45l2 45v19q0 3 -1 12.5t-1 10.5l-3 24q0 2 1.5 13t3.5 31l11 85q6 46 6 67q0 39 -14 50q-5 3 -28 3 q-32 0 -86 -6q-53 -6 -62 -9q-22 -7 -24 -26q-1 -15 12.5 -22.5t26.5 -14.5q25 -18 24 -54q0 -6 2 -20t6 -37v-28q0 -7 -9 -88v-68l-2 -65l6 -55q0 -4 -0.5 -8.5t-1.5 -10.5q-2 -8 -2.5 -13.5t-1.5 -10.5v-15q0 -42 16 -90q20 -59 50 -88q60 -57 190 -57q34 0 57 4l86 23 q7 3 44 25q7 4 11.5 7.5t8.5 5.5q2 1 11 10q2 2 11 4q13 1 26 -14q9 -11 13 -21.5t19 -22.5q18 -15 45 -20q26 -4 65 2q38 6 60 34q9 12 -12 25q-19 7 -27 8q-26 8 -39 43q-9 21 -7 76q1 33 0 40q-3 16 -19 34q1 6 10 6q7 6 9 9q2 11 1 13v10q0 1 2 30q1 14 1.5 22t0.5 12 v57q0 4 0.5 8.5t1.5 10.5q3 13 3 18t1 15v20v24q0 19 1 39t1 39v29q4 26 6 48.5t2 42.5q0 50 -13 64q-8 9 -33 9q-4 0 -55 -6q-84 -11 -103 -18q-25 -10 -13 -32q4 -8 27 -16q24 -8 26 -10q24 -20 25 -56v-32q0 -15 1 -31l7 -51q0 -5 -3 -27q-1 -11 -1.5 -18.5t-0.5 -11.5 v-30q0 -27 1 -29v-28q-6 -18 -6 -27q-4 -16 -4 -25q-4 -23 -4 -68v-16q-2 -22 -6.5 -40.5t-9.5 -35.5q-7 -22 -25 -38q-9 -15 -9 -19q-1 -5 -1 -9v-9z" />
<glyph unicode="&#xda;" horiz-adv-x="821" d="M400 918q-16 -21 -15 -25t24 -4q8 0 17 4q12 12 20 18q20 14 35 23.5t25 14.5q13 6 46 31q34 25 42 33q13 13 11 30q-2 11 -4 15q-8 12 -27 16q-19 5 -35 -8q-24 -24 -37 -42q-14 -14 -25 -24.5t-18 -17.5q-20 -21 -30 -33q-9 -10 -16.5 -18t-12.5 -13zM568 76q-5 1 -9 4 t-10 2q-6 -3 -10.5 -5.5t-8.5 -4.5q-44 -22 -89 -22q-57 0 -114 36q-54 34 -64 82q-2 21 -3 42t-3 43v62q0 10 1.5 23.5t1.5 19.5v45l2 45v19q0 3 -1 12.5t-1 10.5l-3 24q0 2 1.5 13t3.5 31l11 85q6 46 6 67q0 39 -14 50q-5 3 -28 3q-32 0 -86 -6q-53 -6 -62 -9 q-22 -7 -24 -26q-1 -15 12.5 -22.5t26.5 -14.5q25 -18 24 -54q0 -6 2 -20t6 -37v-28q0 -7 -9 -88v-68l-2 -65l6 -55q0 -4 -0.5 -8.5t-1.5 -10.5q-2 -8 -2.5 -13.5t-1.5 -10.5v-15q0 -42 16 -90q20 -59 50 -88q60 -57 190 -57q34 0 57 4l86 23q7 3 44 25q7 4 11.5 7.5 t8.5 5.5q2 1 11 10q2 2 11 4q13 1 26 -14q9 -11 13 -21.5t19 -22.5q18 -15 45 -20q26 -4 65 2q38 6 60 34q9 12 -12 25q-19 7 -27 8q-26 8 -39 43q-9 21 -7 76q1 33 0 40q-3 16 -19 34q1 6 10 6q7 6 9 9q2 11 1 13v10q0 1 2 30q1 14 1.5 22t0.5 12v57q0 4 0.5 8.5t1.5 10.5 q3 13 3 18t1 15v20v24q0 19 1 39t1 39v29q4 26 6 48.5t2 42.5q0 50 -13 64q-8 9 -33 9q-4 0 -55 -6q-84 -11 -103 -18q-25 -10 -13 -32q4 -8 27 -16q24 -8 26 -10q24 -20 25 -56v-32q0 -15 1 -31l7 -51q0 -5 -3 -27q-1 -11 -1.5 -18.5t-0.5 -11.5v-30q0 -27 1 -29v-28 q-6 -18 -6 -27q-4 -16 -4 -25q-4 -23 -4 -68v-16q-2 -22 -6.5 -40.5t-9.5 -35.5q-7 -22 -25 -38q-9 -15 -9 -19q-1 -5 -1 -9v-9z" />
<glyph unicode="&#xdb;" horiz-adv-x="821" d="M400 1073q-8 -10 -14 -18t-10 -13q-12 -16 -21 -27.5t-14 -19.5q-12 -15 -21 -26t-15 -18q-4 -5 -8 -13t-8 -19q-6 -15 -6 -23t21 -6q15 1 20 6q8 9 14 15.5t11 11.5q7 10 11.5 18t8.5 13q12 15 41 38q8 7 14 12t11 9q7 -4 11.5 -6.5t6.5 -3.5q15 -13 24.5 -21.5 t14.5 -13.5q13 -17 18 -29q14 -17 20 -22q12 -12 18 -20q11 -8 22 -10q17 -2 18 10q0 11 -6 28l-18 36q-7 9 -11.5 15.5t-8.5 11.5q-18 21 -28 32.5t-15 18.5q-24 27 -31 34q-16 21 -47 16q-18 -10 -23 -16zM568 76q-5 1 -9 4t-10 2q-6 -3 -10.5 -5.5t-8.5 -4.5 q-44 -22 -89 -22q-57 0 -114 36q-54 34 -64 82q-2 21 -3 42t-3 43v62q0 10 1.5 23.5t1.5 19.5v45l2 45v19q0 3 -1 12.5t-1 10.5l-3 24q0 2 1.5 13t3.5 31l11 85q6 46 6 67q0 39 -14 50q-5 3 -28 3q-32 0 -86 -6q-53 -6 -62 -9q-22 -7 -24 -26q-1 -15 12.5 -22.5t26.5 -14.5 q25 -18 24 -54q0 -6 2 -20t6 -37v-28q0 -7 -9 -88v-68l-2 -65l6 -55q0 -4 -0.5 -8.5t-1.5 -10.5q-2 -8 -2.5 -13.5t-1.5 -10.5v-15q0 -42 16 -90q20 -59 50 -88q60 -57 190 -57q34 0 57 4l86 23q7 3 44 25q7 4 11.5 7.5t8.5 5.5q2 1 11 10q2 2 11 4q13 1 26 -14 q9 -11 13 -21.5t19 -22.5q18 -15 45 -20q26 -4 65 2q38 6 60 34q9 12 -12 25q-19 7 -27 8q-26 8 -39 43q-9 21 -7 76q1 33 0 40q-3 16 -19 34q1 6 10 6q7 6 9 9q2 11 1 13v10q0 1 2 30q1 14 1.5 22t0.5 12v57q0 4 0.5 8.5t1.5 10.5q3 13 3 18t1 15v20v24q0 19 1 39t1 39v29 q4 26 6 48.5t2 42.5q0 50 -13 64q-8 9 -33 9q-4 0 -55 -6q-84 -11 -103 -18q-25 -10 -13 -32q4 -8 27 -16q24 -8 26 -10q24 -20 25 -56v-32q0 -15 1 -31l7 -51q0 -5 -3 -27q-1 -11 -1.5 -18.5t-0.5 -11.5v-30q0 -27 1 -29v-28q-6 -18 -6 -27q-4 -16 -4 -25q-4 -23 -4 -68 v-16q-2 -22 -6.5 -40.5t-9.5 -35.5q-7 -22 -25 -38q-9 -15 -9 -19q-1 -5 -1 -9v-9z" />
<glyph unicode="&#xdc;" horiz-adv-x="821" d="M304 985q-23 -23 -21 -41q2 -34 33 -50q21 -11 51 0q9 5 13 15l5 17q9 18 9 22q4 36 -13 50q-19 16 -54 5q-8 -5 -13.5 -9.5t-9.5 -8.5zM496 985q-23 -23 -21 -41q1 -33 32 -50q22 -14 51 0q10 5 14 14q1 2 2 6.5t2 11.5q10 19 10 22q4 36 -13 50q-19 16 -54 5 q-18 -11 -23 -18zM568 76q-5 1 -9 4t-10 2q-6 -3 -10.5 -5.5t-8.5 -4.5q-44 -22 -89 -22q-57 0 -114 36q-54 34 -64 82q-2 21 -3 42t-3 43v62q0 10 1.5 23.5t1.5 19.5v45l2 45v19q0 3 -1 12.5t-1 10.5l-3 24q0 2 1.5 13t3.5 31l11 85q6 46 6 67q0 39 -14 50q-5 3 -28 3 q-32 0 -86 -6q-53 -6 -62 -9q-22 -7 -24 -26q-1 -15 12.5 -22.5t26.5 -14.5q25 -18 24 -54q0 -6 2 -20t6 -37v-28q0 -7 -9 -88v-68l-2 -65l6 -55q0 -4 -0.5 -8.5t-1.5 -10.5q-2 -8 -2.5 -13.5t-1.5 -10.5v-15q0 -42 16 -90q20 -59 50 -88q60 -57 190 -57q34 0 57 4l86 23 q7 3 44 25q7 4 11.5 7.5t8.5 5.5q2 1 11 10q2 2 11 4q13 1 26 -14q9 -11 13 -21.5t19 -22.5q18 -15 45 -20q26 -4 65 2q38 6 60 34q9 12 -12 25q-19 7 -27 8q-26 8 -39 43q-9 21 -7 76q1 33 0 40q-3 16 -19 34q1 6 10 6q7 6 9 9q2 11 1 13v10q0 1 2 30q1 14 1.5 22t0.5 12 v57q0 4 0.5 8.5t1.5 10.5q3 13 3 18t1 15v20v24q0 19 1 39t1 39v29q4 26 6 48.5t2 42.5q0 50 -13 64q-8 9 -33 9q-4 0 -55 -6q-84 -11 -103 -18q-25 -10 -13 -32q4 -8 27 -16q24 -8 26 -10q24 -20 25 -56v-32q0 -15 1 -31l7 -51q0 -5 -3 -27q-1 -11 -1.5 -18.5t-0.5 -11.5 v-30q0 -27 1 -29v-28q-6 -18 -6 -27q-4 -16 -4 -25q-4 -23 -4 -68v-16q-2 -22 -6.5 -40.5t-9.5 -35.5q-7 -22 -25 -38q-9 -15 -9 -19q-1 -5 -1 -9v-9z" />
<glyph unicode="&#xdd;" horiz-adv-x="781" d="M771 665q15 13 16 19q4 4 5 22q1 3 1 8q1 20 -10.5 34.5t-43.5 20.5q-28 4 -50 0q-52 -11 -104 -59q-54 -48 -66 -97l-15 -61q-13 -21 -15 -23q-5 -11 -9 -24q-8 -19 -14 -29.5t-10.5 -15t-7.5 -5.5l-3 -1q-3 -1 -10 3.5t-11 17.5l-2 9t-6 26q-6 28 -15 50 q-70 180 -157 213q-12 6 -83 3q-17 -1 -28 -1.5t-16 -2.5q-7 -2 -16.5 -7t-21.5 -13q-35 -23 -35 -40q0 -5 5 -17q6 -15 16 -15q3 0 8 3t10 7t9.5 7t7.5 3q13 4 20 3q5 -2 9.5 -3.5t9.5 -3.5q28 -11 39 -18q7 -5 36 -36q13 -15 21 -24t10 -13q5 -10 11 -19.5t11 -19.5 q4 -5 12.5 -12.5t22.5 -16.5q4 -7 3 -14l-1.5 -9t-0.5 -2q0 -20 4 -27l9 -35q19 -72 19 -114v-53q0 -16 1 -21v-18v-38v-70t1 -5q-1 -50 -22 -67l-30 -15q-17 -9 -19 -26q-1 -13 9.5 -21.5t23.5 -8.5q4 0 12 1t16 2.5t15.5 2.5t10.5 1l35 -3q6 -1 18 1t16 2h18q4 0 27 -3 q24 -3 37 -3q19 0 27 6q11 15 7 28q-5 16 -21 24q-14 5 -21.5 8l-7.5 3q-24 16 -24 77q0 12 1 29.5t1 21.5v63l8 57v25q0 35 13 69.5t27 70.5l12 38q21 67 63 105q34 31 103 59q21 9 40 3q14 -7 20 -13l5 -2l5 -1h9zM394 918q-18 -20 -16 -25q1 -4 25 -4q7 0 16 4 q13 13 21 18q20 14 35 23.5t25 14.5q14 10 25.5 17.5t20.5 14.5q20 14 30 22t12 10q13 13 11 30q-2 5 -3 9t-2 6q-7 10 -26 16q-19 5 -35 -8q-24 -24 -37 -42q-14 -14 -25 -24.5t-19 -17.5q-10 -11 -17 -19t-12 -14q-10 -10 -17 -17.5t-12 -13.5z" />
<glyph unicode="&#xde;" horiz-adv-x="1000" />
<glyph unicode="&#xdf;" horiz-adv-x="541" d="M198 416l-2 2q2 -85 3.5 -147.5t0.5 -104.5q5 -105 7.5 -159.5t2.5 -60.5q0 -87 -65 -131q-26 -17 -46 -17q-26 0 -26 19q0 12 9 24.5t17 23.5q19 31 19 114q0 78 -1.5 135.5t-5.5 95.5q-1 7 1 21.5t2 20.5q0 36 -17 48q-5 4 -33 10q-17 5 -17 19q0 30 16 33 q8 2 16.5 3.5t16.5 3.5q17 11 17 57q0 8 -0.5 19t-1.5 25q-1 15 -1.5 26t-0.5 19q0 96 16 144q25 84 99 84q26 0 45 -25q24 -32 34 -36q11 -4 21.5 -8.5t10.5 -18.5q0 -16 -17.5 -26t-33.5 -10q-26 0 -43 23q-23 32 -27 35h-5q-16 -9 -19 -71v-83v-48q0 -10 4 -29.5t4 -29.5 zM254 86q-9 0 -18 -26q-2 -16 8 -28q15 -32 79 -38q5 -1 10 -1h12q110 0 155 54q21 25 21 76q0 25 -6 45q-7 24 -11 30q-7 9 -29 22q-20 11 -34 18.5t-24 9.5l-28 4l-28 4q-44 7 -54 22t-1 32q10 21 36 26q18 2 63 -17q48 -18 67 -17q36 1 62 39q13 19 8 31q-6 12 -22 12 q1 0 -32 -10q-5 -1 -13 -0.5t-19 2.5q-5 1 -13 3t-19 5q-7 2 -14.5 2.5t-16.5 1.5q-96 3 -133 -52q-19 -28 -19 -58q0 -24 10 -48q17 -40 47 -53q16 -5 32 -9t32 -9l18 -6q25 -8 39 -13t18 -7q28 -13 33 -34q3 -12 -2.5 -22.5t-15 -18t-23 -12t-26.5 -4.5q-35 0 -107 27 q-2 1 -7.5 3.5t-15.5 7.5q-12 6 -19 6z" />
<glyph unicode="&#xe0;" horiz-adv-x="258" d="M198 416l-2 2q2 -85 3.5 -147.5t0.5 -104.5q5 -105 7.5 -159.5t2.5 -60.5q0 -87 -65 -131q-26 -17 -46 -17q-26 0 -26 19q0 12 9 24.5t17 23.5q19 31 19 114q0 78 -1.5 135.5t-5.5 95.5q-1 7 1 21.5t2 20.5q0 36 -17 48q-5 4 -33 10q-17 5 -17 19q0 30 16 33 q8 2 16.5 3.5t16.5 3.5q17 11 17 57q0 8 -0.5 19t-1.5 25q-1 15 -1.5 26t-0.5 19q0 96 16 144q25 84 99 84q26 0 45 -25q24 -32 34 -36q11 -4 21.5 -8.5t10.5 -18.5q0 -16 -17.5 -26t-33.5 -10q-26 0 -43 23q-23 32 -27 35h-5q-16 -9 -19 -71v-83v-48q0 -10 4 -29.5t4 -29.5 z" />
<glyph unicode="&#xe1;" horiz-adv-x="475" d="M124 185q0 -11 -18 -23q-8 -8 -15 -14.5t-12 -11.5q-19 -22 -19 -51q0 -15 4 -24q4 -11 13 -21.5t20 -19.5t23 -15t23 -7l67.5 1.5t21.5 0.5q28 3 43 10q36 15 44 15q16 -2 25 -11q20 -12 27 -14q21 -7 51 -4t39 22q8 15 -3 29q-27 15 -34 25q-12 13 -12 34v104 q0 71 -3 83q-11 44 -62 78q-40 26 -108 26q-71 0 -119 -24q-64 -31 -67 -98q-2 -32 20 -53q1 -1 51 -37zM119 280q3 30 41 47q10 6 41 6q54 0 77 -15q30 -21 29 -46q-1 -16 -8 -20q-35 -23 -102 -23q-84 0 -78 51zM197 164q56 25 88 28q20 2 29 -13q5 -8 7 -33q2 -27 -5 -42 q-17 -43 -60 -50q-48 -9 -73 15q-25 23 -20 56q3 18 8.5 24t25.5 15zM210 470q-17 -23 -16 -25q1 -3 6 -5q3 -2 9 0q5 1 9 1q8 0 17 4q12 12 20 18q40 27 61 38q6 4 17 12t28 20q20 14 30.5 22t12.5 10q12 13 10 30q-2 11 -4 15q-6 10 -27 16q-18 5 -34 -8 q-13 -13 -22 -23.5t-16 -18.5q-14 -14 -25 -24.5t-18 -17.5q-20 -21 -30 -33q-17 -20 -28 -31z" />
<glyph unicode="&#xe2;" horiz-adv-x="475" d="M124 185q0 -11 -18 -23q-8 -8 -15 -14.5t-12 -11.5q-19 -22 -19 -51q0 -15 4 -24q4 -11 13 -21.5t20 -19.5t23 -15t23 -7l67.5 1.5t21.5 0.5q28 3 43 10q36 15 44 15q16 -2 25 -11q20 -12 27 -14q21 -7 51 -4t39 22q8 15 -3 29q-27 15 -34 25q-12 13 -12 34v104 q0 71 -3 83q-11 44 -62 78q-40 26 -108 26q-71 0 -119 -24q-64 -31 -67 -98q-2 -32 20 -53q1 -1 51 -37zM119 280q3 30 41 47q10 6 41 6q54 0 77 -15q30 -21 29 -46q-1 -16 -8 -20q-35 -23 -102 -23q-84 0 -78 51zM197 164q56 25 88 28q20 2 29 -13q5 -8 7 -33q2 -27 -5 -42 q-17 -43 -60 -50q-48 -9 -73 15q-25 23 -20 56q3 18 8.5 24t25.5 15zM204 627q-8 -10 -14 -18t-10 -13q-12 -16 -21 -27.5t-14 -19.5q-12 -15 -21 -26t-15 -18q-6 -10 -10 -18t-6 -13q-6 -18 -6 -24q0 -8 21 -6q15 1 20 6q8 9 14 15.5t11 11.5q7 10 11.5 18t8.5 13 q12 15 41 38q8 7 14 12t11 9q7 -4 11.5 -6.5t6.5 -3.5q15 -13 24.5 -21.5t14.5 -13.5q13 -17 18 -29q14 -17 20 -22q12 -12 18 -20q10 -8 22 -10q17 -2 18 10q0 11 -6 28l-18 36q-6 9 -10.5 15.5t-8.5 11.5q-19 21 -29 32.5t-15 18.5q-24 27 -31 34q-16 21 -47 16 q-18 -10 -23 -16z" />
<glyph unicode="&#xe3;" horiz-adv-x="475" d="M124 185q0 -11 -18 -23q-8 -8 -15 -14.5t-12 -11.5q-19 -22 -19 -51q0 -15 4 -24q4 -11 13 -21.5t20 -19.5t23 -15t23 -7l67.5 1.5t21.5 0.5q28 3 43 10q36 15 44 15q16 -2 25 -11q20 -12 27 -14q21 -7 51 -4t39 22q8 15 -3 29q-27 15 -34 25q-12 13 -12 34v104 q0 71 -3 83q-11 44 -62 78q-40 26 -108 26q-71 0 -119 -24q-64 -31 -67 -98q-2 -32 20 -53q1 -1 51 -37zM119 280q3 30 41 47q10 6 41 6q54 0 77 -15q30 -21 29 -46q-1 -16 -8 -20q-35 -23 -102 -23q-84 0 -78 51zM197 164q56 25 88 28q20 2 29 -13q5 -8 7 -33q2 -27 -5 -42 q-17 -43 -60 -50q-48 -9 -73 15q-25 23 -20 56q3 18 8.5 24t25.5 15zM389 566q-14 0 -17 -14q-6 -20 -9 -23q-19 -24 -50 -18q-8 4 -14.5 6.5t-10.5 4.5q-36 18 -51 27q-20 11 -42 11q-13 0 -31 -5q-24 -7 -35 -16q-8 -13 -14 -23t-8 -18q-17 -33 -20 -53q-2 -5 14 -3 q14 1 17 4q1 2 4 7t8 15q7 16 13 19q21 17 52 5q25 -13 35 -19.5t23 -12.5q17 -8 28.5 -12t16.5 -5q7 -1 38 9q11 5 19.5 8t13.5 5q23 25 34 58l6 30q0 9 -1 11t-19 2z" />
<glyph unicode="&#xe4;" horiz-adv-x="475" d="M118 185q0 -10 -18 -23q-12 -9 -27 -26q-20 -23 -20 -53q0 -13 4 -22q4 -11 13 -21.5t20 -19.5t23.5 -15t23.5 -7q45 1 67 1.5l22 0.5q28 3 43 10q36 15 44 15q16 -2 25 -11q21 -13 26 -14q21 -7 51 -4q32 3 39 22q9 15 -3 29q-45 22 -45 59v104q0 69 -3 83 q-10 43 -62 78q-40 26 -108 26q-72 0 -120 -24q-61 -31 -66 -98q-2 -33 20 -53q2 -2 15 -11.5t36 -25.5zM112 280q3 32 42 47q10 6 41 6q55 0 76 -15q31 -22 30 -46q-2 -15 -7 -19q-2 -2 -19 -9q-35 -15 -85 -15q-84 0 -78 51zM191 164q57 25 88 28q19 1 28 -13q5 -10 7 -33 q2 -27 -5 -42q-17 -42 -59 -50q-48 -9 -73 15q-25 23 -20 56q3 18 8 24t26 15zM108 537q-23 -24 -21 -41q2 -32 33 -50q21 -12 51 0q9 5 13 15l5 17q9 18 9 22q4 36 -13 50q-19 16 -54 5q-8 -5 -13.5 -9.5t-9.5 -8.5zM300 537q-23 -24 -21 -41q2 -33 32 -50q22 -14 51 0 q10 5 14 14q1 2 2 6.5t2 11.5q10 19 10 22q4 36 -13 50q-19 16 -54 5q-8 -5 -13.5 -9.5t-9.5 -8.5z" />
<glyph unicode="&#xe5;" horiz-adv-x="475" d="M120 185q0 -10 -18 -23q-12 -9 -27 -26q-20 -23 -20 -53q0 -13 4 -22q4 -11 13 -21.5t20 -19.5t23.5 -15t23.5 -7l67.5 1.5t21.5 0.5q28 3 43 10q36 15 44 15q16 -2 25 -11q21 -13 27 -14q19 -7 50 -4q30 3 40 22q8 16 -4 29q-45 24 -45 59v104q0 71 -3 83q-11 44 -62 78 q-40 26 -108 26q-72 0 -120 -24q-63 -31 -66 -98q-2 -32 20 -53q1 -1 51 -37zM114 280q5 32 42 47q10 6 41 6q55 0 76 -15q31 -22 30 -46q-2 -15 -7 -19q-2 -2 -18 -9q-35 -16 -86 -16q-85 0 -78 52zM193 164q57 25 88 28q19 1 28 -13q5 -10 7 -33q2 -27 -5 -42 q-17 -42 -59 -50q-48 -9 -73 15q-25 23 -20 56q3 18 8 24t26 15zM210 655q-12 -5 -20 -10t-13 -9l-24 -16.5t-9 -6.5q-19 -23 -17 -66q1 -35 11 -51q11 -18 41 -37q30 -17 43 -18q22 -2 54 13q17 8 27 14.5t16 12.5t8 12.5t4 15.5l2 14l2 14q6 39 1 55q-6 17 -30 40 q-27 15 -40 18q-36 11 -56 5zM169 546q-2 24 24 48q16 17 24 20q39 14 62 -6q15 -13 11 -59q-2 -7 -4 -12t-4 -8q-7 -28 -20 -35q-29 -17 -58 0q-32 17 -35 52z" />
<glyph unicode="&#xe6;" horiz-adv-x="687" d="M127 280q3 30 41 47q10 6 41 6q56 0 77 -15q31 -22 30 -46q-2 -15 -7 -19q-2 -2 -19 -9q-35 -15 -84 -15q-85 0 -79 51zM329 131q-1 -8 -2 -15t-3 -12q-17 -42 -59 -50q-48 -9 -73 15q-25 23 -20 56q3 18 8.5 24t25.5 15q57 25 87 28q19 1 29 -13q4 -6 5 -13 q-1 -17 2 -35zM544 166l34 6h35q16 1 26.5 2t16.5 3q13 4 22.5 19.5t9.5 37.5q0 31 -18 66q-22 43 -66.5 69.5t-95.5 26.5q-58 0 -112 -61q-15 20 -40 36q-40 26 -108 26q-72 0 -120 -24q-62 -31 -67 -98q-2 -33 20 -53q1 -1 51 -37q0 -11 -18 -23l-26 -26q-19 -22 -19 -53 q0 -29 26 -55q25 -25 56 -30h11q11 0 33 1t33 1h12q29 3 44 10q36 15 43 15q13 0 26 -11q8 -5 14.5 -8.5t11.5 -5.5q21 -7 51 -4q5 1 10 1.5t9 2.5q25 -7 57 -7q87 0 131 38q17 17 14 31q-5 20 -24 20q-6 0 -18 -5q-10 -5 -14.5 -7.5l-4.5 -2.5q-10 -4 -21 -6.5t-23 -3.5 q-25 -2 -52.5 11t-42.5 33q-1 5 -5 9v4l-1 5l-2 8l-7 8q-5 16 -4 19q2 5 13 12h99zM461 218q-27 0 -34 19q0 15 7 26q5 13 15 25q36 47 57 47q30 0 52 -16q30 -22 32 -55q1 -25 -19 -36q-16 -12 -73 -10h-37z" />
<glyph unicode="&#xe7;" horiz-adv-x="408" d="M212 -7q0 -3 -6 -11.5t-8 -13.5q-11 -18 -18 -29t-12 -15q-9 -13 -13 -16l1 -9l7 -4q-1 0 5.5 0.5t20.5 1.5q19 2 25 -2q24 -12 24 -25q0 -21 -16.5 -33t-37.5 -12q-3 0 -18 5q-6 2 -10.5 2.5t-9 1.5t-10.5 3t-15 7l-9 -7q-5 -6 -7 -9.5t-2 -5.5v-4q0 -2 -1 -5l7 -6 q0 -4 11 -6q16 -1 19 -3q28 -11 46 -11q9 0 25.5 1.5t22.5 1.5q21 0 38 11q33 14 42 26q7 10 7 30q0 4 -1.5 12t-1.5 11q0 17 -10 28q-26 29 -52 29q-6 0 -21 -1t-20 -1q14 17 18 25q17 29 17 31q4 0 14.5 2t16.5 2q24 2 41 5.5t28 7.5q17 7 33.5 24.5t16.5 33.5 q0 12 -17 12q-9 0 -22 -6q-48 -22 -71 -22q-24 0 -55 18q-47 27 -60 67q-6 19 -6 73q0 94 34 116q10 7 22 7q15 0 31 -10q49 -33 55 -33q34 -11 54 -4q33 10 44 47q0 23 -6 28q-6 4 -51 15q-53 11 -89 11q-19 0 -32 -3q-62 -14 -96 -45q-41 -35 -66 -108q-8 -24 -8 -53 q0 -72 35 -116q47 -60 117 -67z" />
<glyph unicode="&#xe8;" horiz-adv-x="418" d="M278 167q34 6 33 6h35q16 1 26.5 2t16.5 3q13 4 22.5 20t9.5 38q0 31 -17 65q-23 43 -68 69.5t-95 26.5q-39 0 -70 -21q-26 -18 -66 -69q-45 -57 -45 -145q0 -28 7 -48q32 -94 129 -116q16 -4 43 -4q87 0 131 38q20 17 15 31q-3 11 -17 19q-2 1 -7 1q-1 0 -38 -15 q-11 -4 -21.5 -6.5t-21.5 -3.5q-26 -2 -53.5 11t-42.5 33q-1 5 -5 9v4l-1 5l-2 8l-7 8q-5 16 -4 19q2 5 13 12h100zM194 219q-27 0 -34 19q0 15 7 26q5 10 9 16.5t6 8.5q36 48 58 48q28 0 51 -17q30 -22 32 -55q1 -25 -19 -36q-16 -12 -73 -10h-37zM311 445q2 5 -16 25 q-18 21 -28 31q-21 22 -30 33l-24.5 24.5t-18.5 17.5q-13 14 -22.5 24.5t-14.5 17.5q-16 13 -35 8q-19 -4 -27 -16q-2 -4 -4 -15q-2 -17 11 -30q13 -11 23.5 -19t18.5 -13q17 -13 28.5 -21t17.5 -11q20 -11 35 -20.5t25 -17.5q7 -6 11.5 -10.5t8.5 -7.5q9 -4 17 -4h3 q3 0 7 -1q5 -2 8 0q5 2 6 5z" />
<glyph unicode="&#xe9;" horiz-adv-x="418" d="M271 167l34 6h35q16 1 26.5 2t16.5 3q13 4 22.5 19.5t9.5 37.5q0 31 -18 66q-23 45 -67.5 70.5t-95.5 25.5q-39 0 -69 -21q-26 -18 -66 -69q-46 -58 -46 -146q0 -29 7 -47q33 -94 130 -116q16 -4 43 -4q86 0 130 38q18 16 15 31q-1 11 -17 19q-2 1 -7 1q-8 0 -18 -6 q-17 -7 -19 -9q-11 -4 -22 -6.5t-22 -3.5q-59 -5 -95 44q-1 5 -5 9v4l-1 5l-3 8l-6 8q-5 16 -4 19q2 5 13 12h99zM188 219q-27 0 -34 19q0 16 7 26q5 13 15 25q36 48 57 48q27 0 52 -17q30 -22 32 -55q1 -23 -19 -36q-16 -12 -73 -10h-37zM210 470q-17 -23 -16 -25 q1 -3 6 -5q3 -2 9 0q5 1 9 1q8 0 17 4q12 12 20 18q40 27 61 38q6 4 17 12t28 20q20 14 30.5 22t12.5 10q12 13 10 30q-2 11 -4 15q-6 10 -27 16q-18 5 -34 -8q-13 -13 -22 -23.5t-16 -18.5q-14 -14 -25 -24.5t-18 -17.5q-20 -21 -30 -33q-17 -20 -28 -31z" />
<glyph unicode="&#xea;" horiz-adv-x="418" d="M278 167q34 6 33 6h35q16 1 26.5 2t16.5 3q13 4 22.5 20t9.5 38q0 31 -17 65q-23 43 -68 69.5t-95 26.5q-39 0 -70 -21q-26 -18 -66 -69q-45 -57 -45 -145q0 -28 7 -48q32 -94 129 -116q16 -4 43 -4q87 0 131 38q20 17 15 31q-3 11 -17 19q-2 1 -7 1q-1 0 -38 -15 q-11 -4 -21.5 -6.5t-21.5 -3.5q-26 -2 -53.5 11t-42.5 33q-1 5 -5 9v4l-1 5l-2 8l-7 8q-5 16 -4 19q2 5 13 12h100zM194 219q-27 0 -34 19q0 15 7 26q5 10 9 16.5t6 8.5q36 48 58 48q28 0 51 -17q30 -22 32 -55q1 -25 -19 -36q-16 -12 -73 -10h-37zM211 627 q-8 -10 -14.5 -17.5t-10.5 -13.5q-12 -16 -21 -27.5t-14 -19.5q-12 -15 -21 -26t-15 -18l-9 -18t-6 -13q-7 -15 -7 -24q0 -8 21 -6q16 1 21 6l24 27q7 10 11.5 18t8.5 13q28 26 41 38q20 15 26 21q7 -4 11.5 -6.5t6.5 -3.5q33 -30 38 -35q13 -17 18 -29q7 -8 11.5 -13 t8.5 -9q7 -8 11.5 -13t6.5 -7q10 -8 22 -10q17 -2 18 10q0 23 -24 64q-4 6 -8.5 12.5t-10.5 14.5q-19 21 -29 32.5t-15 18.5q-10 11 -17.5 20t-12.5 14q-19 21 -48 16q-18 -10 -22 -16z" />
<glyph unicode="&#xeb;" horiz-adv-x="418" d="M278 167q6 1 19 3.5t14 2.5h35q16 1 26.5 2t16.5 3q13 4 22.5 20t9.5 38q0 31 -17 65q-23 43 -68 69.5t-95 26.5q-39 0 -70 -21q-26 -18 -66 -69q-45 -57 -45 -145q0 -28 7 -48q32 -94 129 -116q16 -4 43 -4q87 0 131 38q20 17 15 31q-3 11 -17 19q-2 1 -7 1 q-1 0 -38 -15q-11 -4 -21.5 -6.5t-21.5 -3.5q-26 -2 -53.5 11t-42.5 33l-7 21l-8 13q-6 9 -3 20t12 11q64 -4 100 0zM194 219q-27 0 -34 19q0 15 7 26q5 10 9 16.5t6 8.5q36 48 58 48q28 0 51 -17q30 -22 32 -55q1 -25 -19 -36q-16 -12 -73 -10h-37zM121 537 q-23 -24 -21 -41q2 -33 32 -50q22 -14 51 0q10 5 14 14q1 2 2 6.5t2 11.5q10 19 10 22q4 36 -13 50q-19 16 -54 5q-18 -11 -23 -18zM313 537q-23 -26 -22 -41q2 -32 33 -50q21 -12 51 0q10 5 14 15q1 2 2 6.5t2 10.5q10 19 10 22q4 36 -13 50q-19 16 -54 5q-18 -11 -23 -18z " />
<glyph unicode="&#xec;" horiz-adv-x="270" d="M155 374q-30 -14 -40 -14q-11 -3 -21 -6t-18 -5q-19 -13 -18 -25q2 -15 17 -22l22 -11q22 -19 22 -55q0 -15 -4 -35q-2 -14 -2.5 -22.5t-1.5 -12.5q-1 -15 0 -31q1 -11 1 -17v-6q0 -28 -35 -61l-14 -14q-3 -5 0 -17q4 -17 23 -22q8 -2 17 2q13 4 18 4q8 1 16.5 1.5 t19.5 -0.5l35 -2q4 0 16 -1.5t19 -1.5q18 0 24 16q6 17 -7 33q-26 14 -34 24q-4 4 -4 34v36q0 6 2 17.5t2 16.5v96q2 14 3 26.5t1 24.5q0 39 -12 50t-47 0zM227 445q1 3 -17 24q-9 11 -16 19t-12 13q-10 11 -17 19.5t-12 13.5q-14 14 -25 24.5t-19 17.5q-13 14 -22.5 24.5 t-14.5 17.5q-16 13 -35 8q-17 -4 -26 -16q-3 -3 -5 -15q-2 -17 11 -30q13 -11 23.5 -19t18.5 -13q19 -14 30 -22t16 -10q39 -20 60 -38q7 -6 12 -10.5t8 -7.5q9 -4 17 -4h3q3 0 7 -1q6 -2 9 0q5 2 6 5z" />
<glyph unicode="&#xed;" horiz-adv-x="270" d="M158 374q-23 -14 -39 -14q-17 -5 -27 -7.5t-13 -3.5q-18 -14 -18 -25q2 -14 17 -22q11 -5 17 -8l6 -3q21 -20 21 -54q0 -14 -3 -36q-2 -14 -3 -22.5t-2 -12.5q-2 -15 0 -32q1 -11 1 -17v-6q0 -29 -34 -60q-4 -4 -7.5 -7t-7.5 -7q-3 -5 0 -17q4 -16 23 -22q8 -2 17 2 q13 4 18 4q8 1 16.5 1.5t19.5 -0.5l35 -2q5 0 16.5 -1.5t18.5 -1.5q18 0 24 16q7 14 -7 33q-29 17 -33 23q-5 8 -5 35v36q0 6 2 17.5t2 16.5v96q2 14 3 27.5t1 26.5q0 36 -10 46q-13 12 -49 1zM124 470q-17 -23 -16 -25q1 -3 6 -5q3 -2 9 0q5 1 9 1q8 0 17 4q12 12 20 18 q21 14 36 23.5t25 14.5q6 4 17 12t28 20q20 14 30.5 22t12.5 10q12 13 10 30q-2 11 -4 15q-7 10 -26 16q-19 5 -35 -8q-24 -24 -37 -42q-14 -14 -25 -24.5t-19 -17.5q-10 -11 -17 -19t-12 -14q-11 -11 -18 -18.5t-11 -12.5z" />
<glyph unicode="&#xee;" horiz-adv-x="270" d="M161 374q-23 -14 -39 -14q-33 -7 -39 -11q-19 -13 -18 -25q2 -15 16 -22q11 -4 23 -11q22 -19 22 -56q0 -13 -3 -35q-2 -14 -3 -22t-2 -12q-2 -15 0 -32q1 -11 1 -17v-6q0 -27 -35 -60q-7 -7 -10.5 -10t-4.5 -4q-3 -5 0 -17q4 -16 23 -22q8 -2 17 2q13 4 18 4 q8 1 16.5 1.5t19.5 -0.5l35 -2q5 0 16.5 -1.5t18.5 -1.5q18 0 24 16q7 14 -7 33q-16 10 -24.5 16t-10.5 8q-3 6 -3 34v36q0 6 2 17.5t2 16.5v96q2 14 3 27.5t1 26.5q0 36 -10 46q-13 12 -49 1zM122 627q-8 -10 -14.5 -17.5t-10.5 -13.5q-11 -16 -20 -27.5t-14 -19.5 q-13 -15 -22 -26t-15 -18l-9 -18t-6 -13q-7 -15 -7 -24q0 -8 21 -6q16 1 21 6l24 27q7 10 11.5 18t8.5 13q28 26 41 38q20 15 26 21q7 -4 11.5 -6.5t6.5 -3.5q33 -30 38 -35q13 -17 18 -29q7 -8 11.5 -13t8.5 -9q7 -8 11.5 -13t6.5 -7q10 -8 22 -10q17 -2 18 10q0 23 -24 64 q-4 6 -8.5 12.5t-10.5 14.5q-19 21 -29 32.5t-15 18.5q-10 11 -17.5 20t-12.5 14q-19 21 -48 16q-18 -10 -22 -16z" />
<glyph unicode="&#xef;" horiz-adv-x="270" d="M155 374q-30 -14 -40 -14q-11 -3 -21 -6t-18 -5q-19 -13 -18 -25q2 -15 17 -22l22 -11q22 -19 22 -55q0 -15 -4 -35q-2 -14 -2.5 -22.5t-1.5 -12.5q-1 -15 0 -31q1 -11 1 -17v-6q0 -28 -35 -61l-14 -14q-3 -5 0 -17q4 -17 23 -22q8 -2 17 2q13 4 18 4q8 1 16.5 1.5 t19.5 -0.5l35 -2q4 0 16 -1.5t19 -1.5q18 0 24 16q6 17 -7 33q-26 14 -34 24q-4 4 -4 34v36q0 6 2 17.5t2 16.5v96q2 14 3 26.5t1 24.5q0 39 -12 50t-47 0zM34 537q-23 -24 -21 -41q1 -33 33 -50q20 -14 50 0q10 5 14 14q1 2 2 6.5t2 11.5q10 14 10 22q4 36 -13 50 q-19 16 -54 5q-8 -5 -13.5 -9.5t-9.5 -8.5zM226 537q-23 -26 -22 -41q3 -34 33 -50q21 -12 51 0q10 5 14 15q1 2 2 6.5t2 10.5q10 19 10 22q4 36 -13 50q-19 16 -54 5q-18 -11 -23 -18z" />
<glyph unicode="&#xf1;" horiz-adv-x="553" d="M227 342q-6 4 -14 19q-7 14 -13 18t-13 4q-6 0 -42 -12q-12 -5 -27 -6q-8 -1 -26 -11q-34 -18 -34 -30q0 -13 14 -18l10 -2t10 -3q34 -16 34 -80v-22q-1 -7 -1 -11v-6v-23q-4 -9 -4 -26v-24q0 -32 -11 -45q-4 -7 -29 -18q-19 -9 -23 -22q-3 -11 6 -21t85 -3h27q7 0 26 -3 t29 -3q18 0 30.5 8.5t8.5 22.5q-2 11 -23 26q-25 19 -26 21q-6 10 -6 95q-1 83 4 96q9 22 41 39q22 11 47 16q43 6 81 -35q11 -13 14 -23q1 -3 1 -24v-23q0 -3 10 -22q-24 -35 -24 -93q0 -52 22 -79.5t58 -27.5q5 0 11.5 0.5t14.5 1.5q25 3 37 8q19 12 19 32q-26 20 -38 24 q-17 13 -20 19l-0.5 4.5t-2.5 14.5v54v46q0 14 -1 9q1 9 2 20t3 24q3 19 3 27q0 16 -9 36q-26 56 -109 71q-7 1 -13 1.5t-12 0.5q-25 0 -58 -18q-38 -20 -69 -24zM428 564q-7 -11 -11 -19.5t-5 -15.5q-21 -24 -51 -18q-8 3 -14 6l-10 5q-36 18 -51 27q-32 18 -73 6 q-26 -7 -35 -16q-8 -13 -14 -23t-8 -18q-17 -33 -20 -53q-2 -5 13 -3q14 1 16 3t5.5 8t8.5 15q7 16 13 19q21 17 52 5q25 -13 35 -19.5t23 -12.5q17 -8 28 -12t16 -5q7 -2 39 9q11 5 19 8t13 5q37 35 41 88q0 9 -1.5 11t-18.5 2q-8 0 -10 -2z" />
<glyph unicode="&#xf2;" horiz-adv-x="466" d="M234 387q-11 -2 -27 -9.5t-37 -18.5t-36 -20t-23 -17q-50 -44 -50 -109q0 -1 0.5 -14.5t1.5 -41.5q1 -17 1 -34q0 -16 1 -33q5 -29 36 -53q62 -46 127 -46q37 0 90 17q114 41 144 173q4 15 4 38q0 75 -31 106q-26 26 -82 45q-54 19 -98 19q-6 0 -11 -0.5t-10 -1.5z M198 310q9 11 37 22q14 6 24 4q2 -1 8 -3.5t16 -7.5q8 -4 13.5 -7t9.5 -5q14 -8 25 -11q23 -20 29 -54v-14q-1 -5 -1 -9v-6q0 -4 4.5 -14t4.5 -14q2 -31 -10 -64q-14 -40 -42 -61t-56 -21q-13 0 -22 4q-20 8 -46 38q-26 31 -30 51q-4 17 -4 45q0 84 40 127zM322 445 q1 3 -17 24q-8 11 -15 19t-12 13q-21 22 -30 33q-14 14 -25 24.5t-19 17.5q-13 14 -22 24.5l-15 17.5q-16 13 -35 8q-19 -6 -26 -16q-2 -4 -4 -15q-2 -17 10 -30q14 -11 24.5 -19t18.5 -13q17 -12 28 -20t17 -12q20 -11 35 -20.5t26 -17.5q7 -6 11.5 -10.5t8.5 -7.5 q9 -4 17 -4q4 0 9 -1q6 -2 9 0q5 2 6 5z" />
<glyph unicode="&#xf3;" horiz-adv-x="466" d="M234 387q-11 -2 -27 -9.5t-37 -18.5t-36 -20t-23 -17q-50 -44 -50 -109q0 -1 0.5 -14.5t1.5 -41.5q1 -17 1 -34q0 -16 1 -33q5 -29 36 -53q62 -46 127 -46q37 0 90 17q114 41 144 173q4 15 4 38q0 75 -31 106q-26 26 -82 45q-54 19 -98 19q-6 0 -11 -0.5t-10 -1.5z M198 310q9 11 37 22q14 6 24 4q2 -1 8 -3.5t16 -7.5q8 -4 13.5 -7t9.5 -5q14 -8 25 -11q23 -20 29 -54v-14q-1 -5 -1 -9v-6q0 -4 4.5 -14t4.5 -14q2 -31 -10 -64q-14 -40 -42 -61t-56 -21q-13 0 -22 4q-20 8 -46 38q-26 31 -30 51q-4 17 -4 45q0 84 40 127zM227 470 q-17 -23 -16 -25q1 -3 6 -5q3 -2 9 0q5 1 9 1q8 0 17 4q12 12 20 18q40 27 61 38q6 4 17 12t28 20q20 14 30.5 22t12.5 10q12 13 10 30q-2 11 -4 15q-6 10 -27 16q-19 5 -35 -8q-24 -24 -37 -42q-14 -14 -25 -24.5t-18 -17.5q-20 -21 -30 -33q-17 -20 -28 -31z" />
<glyph unicode="&#xf4;" horiz-adv-x="466" d="M240 387q-11 -2 -26.5 -9.5t-36.5 -18.5t-36 -20t-23 -17q-51 -44 -51 -110q0 2 0.5 -11.5t1.5 -43.5q1 -17 1 -34v-33q4 -28 37 -53q62 -46 127 -46q37 0 90 17q113 41 144 173q4 15 4 40q0 72 -30 104q-27 27 -84 46q-54 18 -96 18q-7 0 -12 -0.5t-10 -1.5zM204 310 q10 11 38 22q14 6 23 4q2 -1 7.5 -3.5t15.5 -7.5t16 -7.5t9 -4.5q12 -8 24 -11q21 -17 30 -54q0 -4 -1 -14t-1 -15q0 -4 4.5 -14t4.5 -14q2 -31 -10 -64q-14 -40 -41.5 -61t-56.5 -21q-12 0 -21 4q-22 8 -47 38q-13 16 -20 28.5t-10.5 23t-4 21.5t-0.5 24q0 82 41 126z M228 627q-8 -10 -14.5 -17.5t-10.5 -13.5q-12 -16 -21 -27.5t-14 -19.5q-12 -15 -21 -26t-15 -18l-9 -18t-6 -13q-7 -15 -7 -24q0 -8 21 -6q22 3 45 33q7 10 11.5 18t8.5 13q18 21 41 38q8 7 14.5 12t11.5 9q7 -4 11.5 -6.5t6.5 -3.5q33 -30 38 -35q13 -17 18 -29 q7 -8 11.5 -13t8.5 -9q7 -8 11.5 -13t6.5 -7q10 -8 22 -10q17 -2 18 10q0 23 -24 64q-4 6 -8.5 12.5t-10.5 14.5q-19 21 -29 32.5t-15 18.5q-10 11 -17.5 20t-12.5 14q-19 21 -48 16q-18 -10 -22 -16z" />
<glyph unicode="&#xf5;" horiz-adv-x="466" d="M234 387q-11 -2 -27 -9.5t-37 -18.5t-36 -20t-23 -17q-50 -44 -50 -109q0 -1 0.5 -14.5t1.5 -41.5q1 -17 1 -34q0 -16 1 -33q5 -29 36 -53q62 -46 127 -46q37 0 90 17q114 41 144 173q4 15 4 38q0 75 -31 106q-26 26 -82 45q-54 19 -98 19q-6 0 -11 -0.5t-10 -1.5z M198 310q9 11 37 22q14 6 24 4q2 -1 8 -3.5t16 -7.5q8 -4 13.5 -7t9.5 -5q14 -8 25 -11q23 -20 29 -54v-14q-1 -5 -1 -9v-6q0 -4 4.5 -14t4.5 -14q2 -31 -10 -64q-14 -40 -42 -61t-56 -21q-13 0 -22 4q-20 8 -46 38q-26 31 -30 51q-4 17 -4 45q0 84 40 127zM396 564 q-6 -5 -9 -18t-7 -17q-20 -24 -51 -18q-8 3 -14 6l-10 5q-36 18 -51 27q-20 11 -42 11q-13 0 -31 -5q-24 -7 -35 -16q-8 -13 -14 -23t-8 -18q-17 -33 -20 -53q-2 -5 14 -3q13 1 15 3t5.5 8t8.5 15q7 16 13 19q21 17 52 5q25 -13 35 -19.5t23 -12.5q17 -8 28.5 -12t16.5 -5 q7 -1 38 9q11 5 19.5 8t13.5 5q36 39 40 88q0 9 -1 11t-19 2q-8 0 -10 -2z" />
<glyph unicode="&#xf6;" horiz-adv-x="466" d="M234 387q-11 -2 -27 -9.5t-37 -18.5t-36 -20t-23 -17q-50 -44 -50 -109q0 -1 0.5 -14.5t1.5 -41.5q1 -17 1 -34q0 -16 1 -33q5 -29 36 -53q62 -46 127 -46q37 0 90 17q114 41 144 173q4 15 4 38q0 75 -31 106q-26 26 -82 45q-54 19 -98 19q-6 0 -11 -0.5t-10 -1.5z M198 310q9 11 37 22q14 6 24 4q2 -1 8 -3.5t16 -7.5q8 -4 13.5 -7t9.5 -5q14 -8 25 -11q23 -20 29 -54v-14q-1 -5 -1 -9v-6q0 -4 4.5 -14t4.5 -14q2 -31 -10 -64q-14 -40 -42 -61t-56 -21q-13 0 -22 4q-20 8 -46 38q-26 31 -30 51q-4 17 -4 45q0 84 40 127zM129 537 q-23 -26 -21 -41q2 -32 33 -50q21 -12 51 0q10 5 14 15q1 2 2 6.5t2 10.5q9 18 9 22q4 37 -12 50q-21 18 -54 5q-17 -11 -24 -18zM321 537q-23 -24 -21 -41q2 -32 33 -50q22 -13 50 0q10 5 14 14q1 2 2 6.5t2 11.5q10 14 10 22q4 36 -13 50q-19 16 -54 5q-8 -5 -13.5 -9.5 t-9.5 -8.5z" />
<glyph unicode="&#xf9;" horiz-adv-x="543" d="M343 340q5 -14 22 -25q13 -8 14.5 -14t3.5 -13q2 -9 -1 -22q-4 -17 -4 -21q-1 -5 0.5 -15.5t3.5 -27.5q4 -29 4.5 -49.5t-3.5 -33.5q-14 -49 -82 -68q-24 -7 -44 -7q-25 0 -42 14q-21 19 -21 58q0 8 1 18t2.5 19t2.5 15.5t1 8.5v21l3 19l6 18q2 15 0 44q0 -1 0.5 6.5 t1.5 23.5q1 27 0 43q-1 23 -6.5 28.5t-14.5 5.5q7 0 -26 -6l-41 -7q-43 -13 -51 -32q-4 -10 0 -16q1 -1 4 -4.5t10 -10.5q16 -6 23 -28q6 -17 4 -34q0 -6 -2 -17t-2 -17q0 -30 -1 -33l-8 -42q-9 -45 -9 -56q0 -35 28 -60q34 -29 91 -29q16 0 36.5 2.5t45.5 7.5l15 6 q6 2 15 6.5t21 9.5q13 6 20 6q6 0 24 -8q5 -3 12 -8t15 -12q12 -9 26 -14q24 -7 53 5q29 8 32 24q1 12 -15 22q-5 4 -11 7l-12 6q-18 19 -18 89q0 27 3 68q3 40 3 46v58q0 40 -11 48t-47 9q-32 2 -48.5 -1t-23.5 -10q-5 -15 -3 -21zM357 445q1 3 -17 24q-8 11 -15 19t-12 13 q-21 22 -30 33q-14 14 -25 24.5t-19 17.5q-13 14 -22 24.5l-15 17.5q-16 13 -35 8q-19 -6 -26 -16q-2 -4 -4 -15q-2 -17 10 -30q14 -11 24.5 -19t18.5 -13q17 -12 28 -20t17 -12q20 -11 35 -20.5t26 -17.5q7 -6 11.5 -10.5t8.5 -7.5q9 -4 17 -4q4 0 9 -1q6 -2 9 0q5 2 6 5z " />
<glyph unicode="&#xfa;" horiz-adv-x="543" d="M346 340q8 -15 23 -25q12 -8 14 -14t4 -13q2 -9 -2 -22q-4 -17 -4 -21q-1 -16 0 -22q2 -8 3 -13t2 -8q4 -29 4.5 -49.5t-3.5 -33.5q-14 -49 -83 -68q-24 -7 -44 -7q-25 0 -42 14q-21 19 -21 58q0 8 1 18t2.5 19t2.5 15.5t1 8.5v21l4 19q2 7 3 11.5t2 6.5q2 15 0 44 q0 -1 0.5 6.5t1.5 23.5q1 27 0 43q-1 23 -6.5 28.5t-14.5 5.5q7 0 -26 -6l-41 -7q-42 -13 -51 -32q-4 -13 14 -31q17 -8 23 -28q7 -15 5 -34q0 -5 -2.5 -16.5t-2.5 -17.5q0 -30 -1 -33l-8 -42q-8 -46 -8 -56q0 -35 27 -60q34 -29 91 -29q33 0 83 10l14 6q54 23 55 23 q8 0 25 -9q5 -3 12 -8t15 -12q12 -9 26 -14q24 -7 53 5q31 7 33 24q1 12 -15 22l-12 6t-11 7q-19 19 -19 91q0 26 3 67q3 40 3 45v58q0 40 -11 48t-47 9q-31 2 -48 -1t-23 -10q-6 -13 -4 -21zM275 470q-16 -21 -15 -25q1 -3 6 -5q3 -2 8 0q4 1 6 1h4q8 0 17 4q12 12 20 18 q20 14 35 23.5t25 14.5q13 6 46 31q34 25 42 33q13 13 11 30q-2 11 -4 15q-8 12 -27 16q-19 5 -35 -8q-24 -24 -37 -42q-14 -14 -25 -24.5t-18 -17.5q-20 -21 -30 -33q-9 -10 -16.5 -18t-12.5 -13z" />
<glyph unicode="&#xfb;" horiz-adv-x="543" d="M351 340q5 -14 22 -25q12 -8 14 -14t4 -13q2 -9 -1 -22q-1 -5 -2 -10.5t-2 -10.5q-1 -16 0 -22q2 -8 2.5 -13t1.5 -8q7 -60 1 -83q-14 -49 -83 -68q-27 -8 -44 -8q-26 0 -42 15q-20 18 -20 56q0 8 1 18t2.5 19.5t2.5 16.5t1 9v21l3 19q2 7 3 11.5t2 6.5q2 15 0 44 l0.5 7.5l1.5 22.5q1 14 1.5 24.5t-0.5 18.5q-1 24 -7.5 29t-15.5 5q-2 0 -24 -6l-42 -7q-42 -13 -50 -32q-2 -6 -2 -9q0 -6 15 -22q17 -6 24 -28q6 -15 4 -34q0 -6 -2 -17t-2 -17q0 -30 -1 -33l-9 -42q-9 -41 -9 -55q0 -36 28 -61q34 -29 91 -29q33 0 83 10l15 6q6 2 15 6.5 t21 9.5q12 6 19 6q6 0 24 -8q12 -7 28 -20q7 -5 13 -8.5t12 -5.5q24 -7 53 5q31 7 33 24q1 12 -15 22l-12 6t-11 7q-19 19 -19 91q0 26 3 67q3 40 3 45v58q0 38 -12 49q-6 6 -46 8q-32 2 -49 -1t-22 -10q-6 -14 -3 -21zM253 627q-8 -10 -14 -18t-10 -13q-25 -31 -35 -47 q-12 -15 -21 -26t-15 -18q-6 -10 -10 -18t-6 -13q-6 -18 -6 -24q0 -8 21 -6q17 2 20 6l24 27q7 10 12 17.5t8 13.5q7 8 17.5 17.5t24.5 20.5q8 7 14 12t11 9q7 -4 11.5 -6.5t6.5 -3.5q26 -21 38 -35q7 -10 11.5 -17t6.5 -12q14 -17 20 -22q12 -12 18 -20q13 -9 23 -10 q17 -2 18 10q0 26 -25 64q-7 10 -11.5 16.5t-7.5 10.5q-18 21 -28 32.5t-15 18.5q-24 27 -31 34q-16 21 -48 16q-16 -9 -22 -16z" />
<glyph unicode="&#xfc;" horiz-adv-x="543" d="M343 340q5 -14 22 -25q13 -8 14.5 -14t3.5 -13q2 -9 -1 -22q-4 -17 -4 -21q-1 -5 0.5 -15.5t3.5 -27.5q4 -29 4.5 -49.5t-3.5 -33.5q-14 -49 -82 -68q-24 -7 -44 -7q-25 0 -42 14q-21 19 -21 58q0 8 1 18t2.5 19t2.5 15.5t1 8.5v21l3 19l6 18q2 15 0 44q0 -1 0.5 6.5 t1.5 23.5q1 27 0 43q-1 23 -6.5 28.5t-14.5 5.5q7 0 -26 -6l-41 -7q-43 -13 -51 -32q-4 -10 0 -16q1 -1 4 -4.5t10 -10.5q16 -6 23 -28q6 -17 4 -34q0 -6 -2 -17t-2 -17q0 -30 -1 -33l-8 -42q-9 -45 -9 -56q0 -35 28 -60q34 -29 91 -29q16 0 36.5 2.5t45.5 7.5l15 6 q6 2 15 6.5t21 9.5q13 6 20 6q6 0 24 -8q5 -3 12 -8t15 -12q12 -9 26 -14q24 -7 53 5q29 8 32 24q1 12 -15 22q-5 4 -11 7l-12 6q-18 19 -18 89q0 27 3 68q3 40 3 46v58q0 40 -11 48t-47 9q-32 2 -48.5 -1t-23.5 -10q-5 -15 -3 -21zM164 537q-23 -26 -21 -41q2 -32 33 -50 q21 -12 51 0q14 8 18 32q9 18 9 22q4 37 -12 50q-21 18 -54 5q-17 -11 -24 -18zM356 537q-23 -24 -21 -41q1 -33 33 -50q20 -14 50 0q10 5 14 14q1 2 2 6.5t2 11.5q10 14 10 22q4 36 -13 50q-19 16 -54 5q-8 -5 -13.5 -9.5t-9.5 -8.5z" />
<glyph unicode="&#xfd;" horiz-adv-x="388" d="M34 335q50 -35 74 -100l19 -52q2 -6 4 -10.5t4 -8.5l19 -51q10 -24 19.5 -47.5t9.5 -39.5q0 -23 -16 -54q-35 -71 -88 -77q-22 -2 -33 11q-12 12 -31 12q-21 0 -31 -18q-5 -9 -6 -31q0 -23 6 -35q13 -29 42 -30q66 -5 183 130l33 38q23 26 36.5 42t15.5 21l17 33l20 33 l21 37q50 89 50 158q0 35 -13 60q-19 38 -61 40q-40 1 -54 -19q-8 -11 0 -25q19 -12 33 -15q34 -22 34 -67q0 -70 -75 -179q-15 7 -15 35q-4 13 -6.5 22t-4.5 15l-19 49q-31 77 -39 94q-27 51 -67 69q-35 15 -56 5q-31 -15 -31 -34q0 -7 6 -11zM199 470q-17 -23 -16 -25 q1 -3 6 -5q3 -2 9 0q4 1 6 1h4q8 0 17 4l11.5 11.5t8.5 6.5q20 14 35 23.5t25 14.5q14 10 25.5 17.5t20.5 14.5q20 14 30 22t12 10q13 13 11 30q-1 4 -2 7.5t-3 7.5q-7 10 -26 16q-19 5 -35 -8q-24 -24 -37 -42q-14 -14 -25 -24.5t-19 -17.5q-10 -11 -17 -19t-12 -14 q-11 -11 -18 -18.5t-11 -12.5z" />
<glyph unicode="&#xff;" horiz-adv-x="388" d="M37 335q50 -35 74 -100l19 -52q2 -6 4 -10.5t4 -8.5l19 -51q10 -24 19.5 -48t9.5 -40q0 -23 -15 -53q-35 -71 -88 -77q-21 -2 -34 11q-12 12 -31 12q-21 0 -31 -18q-5 -9 -6 -31q0 -23 6 -35q14 -29 43 -30q65 -5 182 130l33 38q25 28 38 43.5t15 19.5l17 33l40 70 q50 89 50 158q0 35 -13 60q-19 38 -60 40q-40 1 -54 -19q-9 -11 0 -25q20 -12 32 -15q34 -22 34 -67q0 -70 -75 -179q-6 4 -10 18q-5 13 -5 17q-4 13 -6 22t-4 15l-19 49q-15 38 -24.5 62t-14.5 32q-27 51 -67 69q-37 17 -56 5q-32 -14 -32 -34q0 -7 6 -11zM105 537 q-23 -24 -21 -41q1 -33 33 -50q20 -14 50 0q10 5 14 14q1 2 2 6.5t2 11.5q10 14 10 22q4 36 -13 50q-19 16 -54 5q-8 -5 -13.5 -9.5t-9.5 -8.5zM297 537q-23 -26 -22 -41q2 -32 33 -50q21 -12 51 0q10 5 14 15q1 2 2 6.5t2 10.5q10 19 10 22q4 36 -13 50q-19 16 -54 5 q-18 -11 -23 -18z" />
<glyph unicode="&#x152;" horiz-adv-x="1235" d="M764 255q-70 -175 -206 -191q-26 -3 -47 -3q-149 0 -251 140q-34 48 -56 126t-22 150q0 45 11 75q58 163 242 163h26q106 -19 155 -55q59 -43 112 -153q16 -34 24 -79q3 -20 6 -39.5t6 -39.5v-94zM1208 168q-9 -4 -16 -16q-5 -13 -8.5 -22t-5.5 -16q-37 -58 -122 -58 q-80 0 -130 34q-10 7 -16 12t-9.5 10t-5 11.5t-2.5 15.5q0 24 -1 25q-5 18 -6 27q-1 5 -0.5 13t1.5 19q3 28 3 41q0 3 -0.5 9t-1 13.5l-1 15t-0.5 12.5q2 15 6 22q10 15 30 19q11 2 38 3q25 1 63 -9q28 -10 31 -13q18 -19 20 -29q13 -22 26 -22q6 0 12.5 5t11.5 18t8 34.5 t3 54.5q0 36 -8 50q-14 23 -26 23q-11 0 -18.5 -8t-15.5 -16q-17 -16 -37 -28q-14 -6 -46 -6q-49 0 -69 11q-24 13 -24 60v12t1 15v19q0 4 1 12t1 11l5 22q1 7 -3 30q-2 12 -3 21t-1 16q0 13 3 24q19 55 114 55q71 0 111 -35q22 -20 31 -41.5t16 -40.5q4 -6 12 -6q5 0 10 3 q20 8 28 46q1 5 1.5 11.5t0.5 13.5q0 59 -22 82t-75 23q-6 0 -15 -0.5t-19 -1t-18.5 -1t-12.5 -0.5h-63l-22 -1h-23h-34t-5 1h-44q-17 3 -24 3h-23q4 0 -5 0q-8 0 -28 1q-14 1 -25.5 0.5t-20.5 -1.5q-25 -1 -32 -7q-11 -11 -10 -25q0 -6 1 -9q-20 7 -34 12t-23 7 q-56 24 -77 27q-78 9 -155 2q-62 -6 -131 -41q-87 -44 -151 -146q-54 -85 -68 -175q-6 -42 -6 -75q0 -153 114 -265q20 -13 38 -22.5t32 -16.5q49 -33 68 -39q38 -13 66 -16q4 -1 73 -4q165 -8 301 119q-5 -17 -18 -29l-28 -14q-16 -9 -19 -25q-2 -14 10 -29q11 -9 47 -5h25 h12h11h53q10 1 14 0h23l54 -4q26 -2 53 0q21 2 36.5 2.5t25.5 -0.5l22 -2t22 -3h17q85 0 111 29q29 35 29 97q0 9 -2 19q-4 19 -12 25q-20 8 -25 5z" />
<glyph unicode="&#x153;" horiz-adv-x="726" d="M365 152q-12 -58 -49 -86q-29 -21 -56 -21q-13 0 -22 4q-20 8 -46 38q-13 16 -20 28t-10 23t-3.5 21.5t-0.5 23.5q0 84 40 127q9 11 37 22q14 6 24 4q2 -1 8 -3.5t16 -7.5q8 -4 13.5 -7t9.5 -5q14 -8 25 -11q23 -20 29 -54v-14q-1 -5 -1 -9v-6q0 6 8 -24q-3 -25 -2 -43z M582 167l34 6h35q16 1 26.5 2t16.5 3q13 4 22.5 19.5t9.5 37.5q0 31 -18 66q-22 43 -66.5 69.5t-95.5 26.5q-60 0 -117 -67q-29 26 -83 42q-53 17 -91 17q-6 0 -11 -0.5t-10 -1.5q-11 -2 -27 -9.5t-37 -18.5t-36 -20t-23 -17q-50 -44 -50 -109q0 -1 0.5 -14.5t1.5 -41.5 q1 -17 1 -34q0 -16 1 -33q5 -29 36 -53q62 -46 127 -46q43 0 93 18q49 19 80 49q33 -44 100 -60q16 -4 43 -4q87 0 131 38q17 17 14 31q-5 20 -24 20q-6 0 -18 -5q-10 -5 -14.5 -7.5l-4.5 -2.5q-10 -4 -21 -6.5t-23 -3.5q-25 -2 -52.5 11t-42.5 33q-1 5 -5 9v4l-1 5l-2 8 l-7 8q-5 16 -4 19q2 5 13 12h99zM499 219q-27 0 -34 19q0 15 7 26q5 13 15 25q36 47 57 47q30 0 52 -16q30 -22 32 -55q1 -25 -19 -36q-16 -12 -73 -10h-37z" />
<glyph unicode="&#x178;" horiz-adv-x="781" d="M772 665q15 13 16 19q4 4 5 22q1 3 1 8q1 20 -10.5 34.5t-43.5 20.5q-28 4 -50 0q-52 -11 -104 -59q-54 -48 -66 -97l-15 -61q-13 -21 -15 -23q-5 -11 -9 -24q-8 -19 -14 -29.5t-10.5 -15t-7.5 -5.5l-3 -1q-3 -1 -10 3.5t-11 17.5l-2 8.5l-6 25.5t-7 30t-7 21 q-13 32 -27.5 61t-31.5 55q-49 77 -99 97q-12 6 -83 3q-17 -1 -28 -2t-17 -3q-13 -3 -36 -19q-36 -24 -36 -40q0 -5 5 -17q6 -15 16 -15q3 0 8 3t10 7t9.5 7t7.5 3q13 4 20 3q5 -2 9.5 -3.5t9.5 -3.5q28 -11 39 -18q7 -4 35 -35q27 -30 32 -38l21 -39q8 -11 36 -29 q4 -7 3 -14l-1.5 -9t-0.5 -2q0 -20 4 -27l9 -35q19 -72 19 -114v-53q0 -16 1 -21v-18v-38v-70t1 -5q-1 -50 -22 -67l-30 -15q-17 -9 -19 -26q-1 -13 9.5 -21.5t23.5 -8.5q4 0 12 1t16 2.5t15.5 2.5t10.5 1l35 -3q6 -1 18 1t16 2h18q4 0 27 -3q24 -3 37 -3q19 0 27 6 q11 15 7 28q-5 16 -21 24q-29 10 -29 11q-24 16 -24 79q0 12 1 28.5t1 20.5v63l8 57v25q0 35 13 69.5t27 70.5l13 38q22 66 63 104q34 31 102 60q21 9 40 3q14 -7 20 -13l5 -2l5 -1h9zM305 985q-23 -24 -21 -41q2 -34 33 -50q21 -11 51 0q9 5 13 15l5 17q9 18 9 22 q4 36 -13 50q-19 16 -54 5q-8 -5 -13.5 -9.5t-9.5 -8.5zM497 985q-23 -23 -21 -41q1 -33 32 -50q22 -14 51 0q10 5 14 14q1 2 2 6.5t2 11.5q10 14 10 22q4 36 -13 50q-19 16 -54 5q-8 -5 -13.5 -9.5t-9.5 -8.5z" />
<glyph unicode="&#x2c6;" horiz-adv-x="363" d="M176 724l-35 -45.5t-24 -33.5q-12 -15 -21 -25.5l-15 -17.5q-12 -22 -16 -32q-7 -15 -7 -23q0 -9 21 -7q24 3 45 33q7 10 11.5 18t8.5 14q26 26 42.5 38.5t24.5 19.5q13 -8 18 -9q3 -3 8 -7.5t10.5 -9.5l11 -10t8.5 -8q13 -20 18 -30q7 -7 11.5 -12t8.5 -9q12 -12 18 -20 q9 -9 22 -11q17 -2 18 11q0 10 -6 27q-9 24 -37 64q-5 5 -12 12.5t-17 17.5l-15 21l-21 24t-9 10q-20 19 -48 15q-15 -8 -22 -15z" />
<glyph unicode="&#x2dc;" horiz-adv-x="380" d="M351 691q-7 -11 -11 -19.5t-5 -15.5q-20 -23 -51 -18q-8 3 -14 6l-10 5q-36 18 -51 27q-32 18 -73 6q-26 -7 -35 -16q-8 -13 -14 -23t-9 -18q-17 -33 -20 -53q-2 -5 14 -3q14 1 16 3q9 14 15.5 24t10.5 18q21 17 52 5q25 -12 35 -19q8 -5 14 -8l10 -5q18 -8 29 -12t15 -5 q6 0 38 9q11 5 19.5 8t13.5 5q27 27 34 58q4 19 6 30q0 10 -1 11.5t-19 1.5q-7 0 -9 -2z" />
<glyph unicode="&#x2000;" horiz-adv-x="553" />
<glyph unicode="&#x2001;" horiz-adv-x="1106" />
<glyph unicode="&#x2002;" horiz-adv-x="553" />
<glyph unicode="&#x2003;" horiz-adv-x="1106" />
<glyph unicode="&#x2004;" horiz-adv-x="368" />
<glyph unicode="&#x2005;" horiz-adv-x="276" />
<glyph unicode="&#x2006;" horiz-adv-x="184" />
<glyph unicode="&#x2007;" horiz-adv-x="184" />
<glyph unicode="&#x2008;" horiz-adv-x="138" />
<glyph unicode="&#x2009;" horiz-adv-x="221" />
<glyph unicode="&#x200a;" horiz-adv-x="61" />
<glyph unicode="&#x2010;" horiz-adv-x="288" d="M97 302q-19 -10 -33 -47q-9 -27 2 -36q5 -7 39 -5q23 1 33 1.5t6 0.5l78 -5q41 2 60 37q4 5 5 21q3 18 0 22q-5 10 -42 8q-8 -1 -14 -1h-9q3 0 -20 -5h-26q-7 0 -21 5t-19 5q-7 1 -12.5 1.5t-10.5 -0.5q-6 -1 -10 -1t-6 -1z" />
<glyph unicode="&#x2011;" horiz-adv-x="288" d="M97 302q-19 -10 -33 -47q-9 -27 2 -36q5 -7 39 -5q23 1 33 1.5t6 0.5l78 -5q41 2 60 37q4 5 5 21q3 18 0 22q-5 10 -42 8q-8 -1 -14 -1h-9q3 0 -20 -5h-26q-7 0 -21 5t-19 5q-7 1 -12.5 1.5t-10.5 -0.5q-6 -1 -10 -1t-6 -1z" />
<glyph unicode="&#x2012;" horiz-adv-x="288" d="M97 302q-19 -10 -33 -47q-9 -27 2 -36q5 -7 39 -5q23 1 33 1.5t6 0.5l78 -5q41 2 60 37q4 5 5 21q3 18 0 22q-5 10 -42 8q-8 -1 -14 -1h-9q3 0 -20 -5h-26q-7 0 -21 5t-19 5q-7 1 -12.5 1.5t-10.5 -0.5q-6 -1 -10 -1t-6 -1z" />
<glyph unicode="&#x2013;" horiz-adv-x="873" d="M147 430q-43 19 -57 16q-21 -5 -31 -24q-9 -25 7 -47q21 -30 66 -26q18 0 26 3q10 1 24 0l21 -6q11 -2 17.5 -3.5t10.5 -2.5l24 -3q5 0 13 1.5t12 1.5l24 -3q17 0 25 2q13 2 24 4.5t21 6.5q15 5 20 5q10 0 45 -9q20 -5 47 -5.5t62 3.5h31l14 -2l42 -6h21q18 0 55 10 q25 7 55 4q8 -3 14.5 -5t11.5 -3q20 0 28 -2q13 -5 27 0q7 1 13.5 3t12.5 11l-13 19q0 7 5 14.5t5 10.5q0 11 -15 23q-11 2 -17.5 4t-8.5 3q-10 4 -15.5 5.5t-7.5 2.5q-22 7 -57 -4q-29 -9 -54 -2l-27 7q-36 9 -74 6h-100l-55 -5l-36 -12q-8 -3 -14 -3q-8 0 -19.5 5.5 t-18.5 6.5q-14 2 -26.5 3.5t-25.5 0.5t-20 -1h-7q-12 -5 -26 -5h-24q-10 -1 -17 -1h-11h-16q-6 0 -16.5 -1t-14.5 -1z" />
<glyph unicode="&#x2014;" horiz-adv-x="1087" d="M150 430q-43 19 -57 16q-21 -5 -30 -24q-11 -24 6 -47q21 -29 67 -26q20 1 25 3q10 1 24 0q1 0 21 -6q11 -2 17.5 -3.5t10.5 -2.5l24 -3q4 0 12.5 1.5t12.5 1.5l109 -3q9 0 15 0.5t10 1.5q13 2 24 4.5t20 6.5q15 5 20 5q10 0 45 -9q10 -2 34.5 -3.5t66.5 -1.5 q80 -2 115 3h31q-1 0 13 -2l42 -6h22q18 0 55 10q25 7 55 4q8 -3 14.5 -5t11.5 -3q20 0 28 -2q13 -5 27 0q7 1 13.5 3t12.5 11l-13 19q0 7 5 14.5t5 10.5q0 11 -15 23q-11 2 -17.5 4t-8.5 3q-9 4 -15 5.5t-8 2.5q-21 7 -57 -4q-28 -9 -54 -2l-24 6q-39 10 -77 7h-100 l-162 -5l-36 -12q-4 -1 -7 -1.5t-7 -0.5q-7 0 -18.5 5t-18.5 6q-14 2 -26.5 3.5t-25.5 0.5q-32 -1 -60 -1h-52q-12 -5 -26 -5h-24q-10 -1 -17 -1h-11h-16q-5 0 -16 -1t-15 -1z" />
<glyph unicode="&#x2018;" horiz-adv-x="229" d="M214 780q1 9 -21 16q-10 2 -24 -4q-27 -4 -61 -46q-32 -38 -41 -71q-12 -42 -12 -73q0 -49 28 -80q23 -26 57 -26q35 0 59 22.5t24 58.5q0 19 -11 35q-18 24 -51 24q-11 0 -29 -3q-14 5 -14 19q0 7 5 19q12 29 20 40q9 12 36 28q26 17 33 28z" />
<glyph unicode="&#x2019;" horiz-adv-x="229" d="M68 513q-1 -13 21 -17q9 -2 23 3q28 8 60 46t43 72q12 40 12 71q0 50 -28 81q-23 26 -57 26q-35 0 -59 -22.5t-24 -57.5q0 -20 11 -36q18 -24 50 -24q11 0 29 3q15 -5 15 -20q0 -9 -5 -17q-6 -23 -19 -39q-11 -11 -20.5 -18t-16.5 -12q-27 -18 -33 -28z" />
<glyph unicode="&#x201a;" horiz-adv-x="229" d="M68 -146q-1 -13 21 -17q9 -2 23 3q28 8 60 46t43 72q12 40 12 70q0 50 -28 81q-23 26 -57 26q-35 0 -59 -22.5t-24 -57.5q0 -20 11 -36q18 -23 50 -23q11 0 29 3q15 -5 15 -20q0 -9 -5 -17q-6 -23 -19 -39q-11 -11 -20.5 -18t-16.5 -12q-27 -18 -33 -28z" />
<glyph unicode="&#x201c;" horiz-adv-x="443" d="M217 780q2 11 -21 16q-10 2 -23 -4q-27 -5 -60 -45q-32 -38 -43 -72q-12 -41 -12 -72q0 -48 27 -81q29 -32 75 -25q29 4 47.5 27t18.5 53q0 19 -11 35q-18 24 -50 24q-13 0 -29 -3q-15 4 -15 20q0 6 5 18q13 30 19 39q11 12 37 29q24 16 33 28zM434 780q1 10 -21 16 q-9 2 -23 -4q-27 -5 -60 -45q-32 -38 -43 -72q-12 -41 -12 -72q0 -48 27 -81q29 -32 75 -25q29 4 48 26.5t19 51.5q0 20 -12 37q-18 24 -50 24q-13 0 -29 -3q-14 5 -14 20q0 10 4 18q6 21 19 39q11 12 37 29q24 16 33 28z" />
<glyph unicode="&#x201d;" horiz-adv-x="443" d="M285 512q-1 -12 21 -16q9 -2 23 3q26 6 61 47q33 37 42 71q12 40 12 72q0 49 -28 80q-23 26 -57 26q-35 0 -59 -22.5t-24 -57.5q0 -20 11 -36q18 -24 51 -24q9 0 29 3q14 -5 14 -19q0 -8 -5 -18q-6 -23 -19 -39q-11 -11 -20.5 -18t-16.5 -12q-27 -18 -33 -28zM68 513 q-1 -13 21 -17q9 -2 23 3q28 8 60 46t43 72q12 40 12 71q0 50 -28 81q-23 26 -57 26q-35 0 -59 -22.5t-24 -57.5q0 -20 11 -36q18 -24 50 -24q11 0 29 3q15 -5 15 -20q0 -9 -5 -17q-6 -23 -19 -39q-11 -11 -20.5 -18t-16.5 -12q-27 -18 -33 -28z" />
<glyph unicode="&#x201e;" horiz-adv-x="443" d="M285 -147q-1 -12 21 -16q9 -2 23 3q26 6 61 47q33 37 42 71q12 40 12 71q0 49 -28 80q-23 26 -57 26q-35 0 -59 -22.5t-24 -57.5q0 -20 11 -36q18 -23 51 -23q9 0 29 3q14 -5 14 -19q0 -8 -5 -18q-6 -23 -19 -39q-11 -11 -20.5 -18t-16.5 -12q-27 -18 -33 -28zM68 -146 q-1 -13 21 -17q9 -2 23 3q28 8 60 46t43 72q12 40 12 70q0 50 -28 81q-23 26 -57 26q-35 0 -59 -22.5t-24 -57.5q0 -20 11 -36q18 -23 50 -23q11 0 29 3q15 -5 15 -20q0 -9 -5 -17q-6 -23 -19 -39q-11 -11 -20.5 -18t-16.5 -12q-27 -18 -33 -28z" />
<glyph unicode="&#x2022;" horiz-adv-x="201" d="M115 380l-13 -6.5t-8 -4.5q-7 -5 -12 -8.5t-9 -5.5q-13 -17 -10 -42q5 -28 6 -32q16 -17 27 -24q11 -5 17.5 -7.5t9.5 -3.5q6 0 15 2.5t18 6t16.5 8.5t10.5 9q5 11 7 20t3 15q5 27 1 34q-3 12 -19 26q-18 10 -25 11q-23 5 -35 2z" />
<glyph unicode="&#x2026;" horiz-adv-x="603" d="M503 119q-44 -20 -44 -66q0 -44 48 -57q45 -13 71.5 7.5t23.5 59.5q-2 33 -27 48q-11 7 -39 10q-27 2 -33 -2zM101 119q-44 -20 -44 -66q0 -44 48 -57q45 -13 71.5 7.5t23.5 59.5q-2 33 -27 48q-11 7 -39 10q-27 2 -33 -2zM302 119q-44 -20 -44 -66q0 -44 48 -57 q45 -13 71.5 7.5t23.5 59.5q-2 33 -27 48q-11 7 -39 10q-27 2 -33 -2z" />
<glyph unicode="&#x202f;" horiz-adv-x="221" />
<glyph unicode="&#x2039;" horiz-adv-x="581" d="M87 399v-118l485 -181v109l-372 131l372 131v110z" />
<glyph unicode="&#x203a;" horiz-adv-x="581" d="M568 281v118l-485 182v-110l370 -131l-370 -131v-109z" />
<glyph unicode="&#x205f;" horiz-adv-x="276" />
<glyph unicode="&#x2122;" horiz-adv-x="1448" d="M1426 -38v838h-1404v-838h1404zM1401 562q0 -29 -22 -50t-51 -21h-146q-35 0 -35 -45v-302q0 -30 19 -42v-56q-72 16 -72 86v322q0 96 115 96q16 0 48 -3q17 -1 29 -1.5t20 -0.5q40 0 40 21q0 19 -41 19q-8 0 -20 -0.5t-28 -1.5t-27.5 -1.5t-19.5 -0.5q-116 0 -116 88 v131h57v-131q0 -35 37 -35h148q27 0 46 -21t19 -51zM1014 136q0 -39 -23.5 -63.5t-62.5 -24.5h-282q-30 0 -50 20t-20 50q0 31 18 52t47 21h279v-53h-270q-20 0 -20 -18q0 -21 22 -21h250q61 0 61 45v76q0 45 -45 45h-250q-42 0 -67 25t-25 67v89q0 45 26.5 73.5t71.5 28.5 h246q76 0 89 -76h-50q-20 21 -43 21h-244q-41 0 -41 -43v-95q0 -37 41 -37h246q45 0 70.5 -23t25.5 -65v-94zM507 800l-1 -684q0 -30 -21.5 -52t-51.5 -22q-32 0 -52 22t-20 55q0 68 -0.5 110t-1.5 59q-2 9 -87 93l-95 93q-14 14 -27 14q-10 0 -17 -6q-8 -26 -8 -32v-310 q0 -43 35 -43h81q13 6 25 21h53q-14 -72 -77 -72h-82q-88 0 -88 96v330q0 31 26 51q23 17 56 17t52 -19l179 -177q31 -31 31 -75v-151q0 -21 19 -21q6 0 12 7.5t6 13.5l-2 682h56z" />
<glyph unicode="&#xe000;" horiz-adv-x="390" d="M0 390h390v-390h-390v390z" />
<glyph unicode="&#xfb01;" horiz-adv-x="528" d="M394 619q-36 -15 -36 -52q0 -32 22 -51q17 -14 36 -14q22 0 42 15q25 18 24 43q-1 31 -32 50q-30 20 -56 9zM419 374q-23 -14 -39 -14q-33 -7 -39 -11q-19 -13 -18 -25q2 -15 16 -22q11 -4 23 -11q22 -19 22 -56q0 -13 -3 -35q-2 -14 -3 -22t-2 -12q-2 -15 0 -32 q1 -11 1 -17v-6q0 -27 -35 -60q-7 -7 -10.5 -10t-4.5 -4q-3 -5 0 -17q4 -16 23 -22q8 -2 17 2q13 4 18 4q8 1 16.5 1.5t19.5 -0.5l35 -2q5 0 16.5 -1.5t18.5 -1.5q18 0 24 16q7 14 -7 33q-16 10 -24.5 16t-10.5 8q-3 6 -3 34v36q0 6 2 17.5t2 16.5v96q2 14 3 27.5t1 26.5 q0 36 -10 46q-13 12 -49 1zM214 677q10 -8 24 -33q25 -28 53 -24q29 5 41 24q7 13 -4 27q-17 11 -24 11q-12 4 -20 19q-26 32 -38 37t-22 5q-33 0 -58 -18q-57 -41 -57 -210v-38q2 -14 3 -27t1 -24q0 -44 -14 -55q-3 -3 -10 -4t-14.5 -2.5t-14.5 -4t-10 -6.5q-2 -2 -3 -15 q-2 -14 0 -15q6 -12 26 -17q22 -6 27 -8q14 -11 14 -47q0 -12 -1.5 -27l-1.5 -15l7 -75v-152q3 -35 -6 -78q-6 -29 -13 -40q-8 -12 -14 -22t-11 -18q-1 -8 1 -15q7 -12 24 -12q20 0 46 17q65 42 65 131q0 6 -0.5 19.5t-1.5 34.5l-8 166q-6 131 16 144q20 2 38 3.5t35 1.5 q14 6 16 24q1 19 -12 25h-38q-27 0 -38 7q-18 10 -20 51q0 10 -3.5 25t-3.5 28v93v5t1 8v12v36q0 2 5 24q6 20 13 24h5z" />
<glyph unicode="&#xfb02;" horiz-adv-x="528" d="M431 787q-14 -3 -56 -24q-47 -26 -51 -38q-3 -11 11 -28q10 -6 18 -12q13 -10 15 -14q8 -12 9 -34q0 -4 -1 -8v-7q1 -24 1.5 -37t0.5 -15q-1 -29 -1 -55t-1 -51q0 -6 -1 -14.5t-2 -17.5t-2 -17.5t-1 -13.5q0 -22 0.5 -52.5t1.5 -69.5l3 -34v-73v-55q-1 -40 -17 -54 q-2 -2 -27 -15q-15 -9 -15 -25q0 -14 17 -23q4 -2 84 0q26 0 47 -0.5t38 -1.5q21 4 25 16q4 13 -6 25q-16 11 -24 13l-10 5q-9 7 -10 11q-4 7 -6.5 12.5t-4.5 10.5q-3 8 -5 14t-3 10q-3 10 6 45q2 10 2 48q0 4 1 12.5t1 12.5q3 16 3 22l-2 25q0 4 -2 12.5t-2 10.5v30 q-1 1 -1 19q0 3 -1.5 9.5t-1.5 8.5q0 6 2 19t2 18l6 270q2 92 -12 106q-9 8 -28 4zM214 677q10 -8 24 -33q25 -28 53 -24q29 5 41 24q7 13 -4 27q-17 11 -24 11q-12 4 -20 19q-26 32 -38 37t-22 5q-33 0 -58 -18q-57 -41 -57 -210v-38q2 -14 3 -27t1 -24q0 -44 -14 -55 q-3 -3 -10 -4t-14.5 -2.5t-14.5 -4t-10 -6.5q-2 -2 -3 -15q-2 -14 0 -15q6 -12 26 -17q22 -6 27 -8q14 -11 14 -47q0 -12 -1.5 -27l-1.5 -15l7 -75v-152q3 -35 -6 -78q-6 -29 -13 -40q-8 -12 -14 -22t-11 -18q-1 -8 1 -15q7 -12 24 -12q20 0 46 17q65 42 65 131 q0 6 -0.5 19.5t-1.5 34.5l-8 166q-6 131 16 144q20 2 38 3.5t35 1.5q14 6 16 24q1 19 -12 25h-38q-27 0 -38 7q-18 10 -20 51q0 10 -3.5 25t-3.5 28v93v5t1 8v12v36q0 2 5 24q6 20 13 24h5z" />
<glyph unicode="&#xfb03;" horiz-adv-x="786" d="M652 619q-36 -15 -36 -52q0 -32 22 -51q17 -14 36 -14q22 0 42 15q25 18 24 43q-1 31 -32 50q-30 20 -56 9zM677 374q-23 -14 -39 -14q-33 -7 -39 -11q-19 -13 -18 -25q2 -15 16 -22q11 -4 23 -11q22 -19 22 -56q0 -13 -3 -35q-2 -14 -3 -22t-2 -12q-2 -15 0 -32 q1 -11 1 -17v-6q0 -27 -35 -60q-7 -7 -10.5 -10t-4.5 -4q-3 -5 0 -17q4 -16 23 -22q8 -2 17 2q13 4 18 4q8 1 16.5 1.5t19.5 -0.5l35 -2q5 0 16.5 -1.5t18.5 -1.5q18 0 24 16q7 14 -7 33q-16 10 -24.5 16t-10.5 8q-3 6 -3 34v36q0 6 2 17.5t2 16.5v96q2 14 3 27.5t1 26.5 q0 36 -10 46q-13 12 -49 1zM472 677q10 -8 24 -33q25 -28 53 -24q29 5 41 24q7 13 -4 27q-17 11 -24 11q-12 4 -20 19q-26 32 -38 37t-22 5q-33 0 -58 -18q-57 -41 -57 -210v-38q2 -14 3 -27t1 -24q0 -44 -14 -55q-3 -3 -10 -4t-14.5 -2.5t-14.5 -4t-10 -6.5q-2 -2 -3 -15 q-2 -14 0 -15q6 -12 26 -17q22 -6 27 -8q14 -11 14 -47q0 -12 -1.5 -27l-1.5 -15l7 -75v-152q3 -35 -6 -78q-6 -29 -13 -40q-8 -12 -14 -22t-11 -18q-1 -8 1 -15q7 -12 24 -12q20 0 46 17q65 42 65 131q0 6 -0.5 19.5t-1.5 34.5l-8 166q-6 131 16 144q20 2 38 3.5t35 1.5 q14 6 16 24q1 19 -12 25h-38q-27 0 -38 7q-18 10 -20 51q0 10 -3.5 25t-3.5 28v93v5t1 8v12v36q0 2 5 24q6 20 13 24h5zM214 677q10 -8 24 -33q25 -28 53 -24q29 5 41 24q7 13 -4 27q-17 11 -24 11q-12 4 -20 19q-26 32 -38 37t-22 5q-33 0 -58 -18q-57 -41 -57 -210v-38 q2 -14 3 -27t1 -24q0 -44 -14 -55q-3 -3 -10 -4t-14.5 -2.5t-14.5 -4t-10 -6.5q-2 -2 -3 -15q-2 -14 0 -15q6 -12 26 -17q22 -6 27 -8q14 -11 14 -47q0 -12 -1.5 -27l-1.5 -15l7 -75v-152q3 -35 -6 -78q-6 -29 -13 -40q-8 -12 -14 -22t-11 -18q-1 -8 1 -15q7 -12 24 -12 q20 0 46 17q65 42 65 131q0 6 -0.5 19.5t-1.5 34.5l-8 166q-6 131 16 144q20 2 38 3.5t35 1.5q14 6 16 24q1 19 -12 25h-38q-27 0 -38 7q-18 10 -20 51q0 10 -3.5 25t-3.5 28v93v5t1 8v12v36q0 2 5 24q6 20 13 24h5z" />
<glyph unicode="&#xfb04;" horiz-adv-x="786" d="M689 787q-14 -3 -56 -24q-47 -26 -51 -38q-3 -11 11 -28q10 -6 18 -12q13 -10 15 -14q8 -12 9 -34q0 -4 -1 -8v-7q1 -24 1.5 -37t0.5 -15q-1 -29 -1 -55t-1 -51q0 -6 -1 -14.5t-2 -17.5t-2 -17.5t-1 -13.5q0 -22 0.5 -52.5t1.5 -69.5l3 -34v-73v-55q-1 -40 -17 -54 q-2 -2 -27 -15q-15 -9 -15 -25q0 -14 17 -23q4 -2 84 0q26 0 47 -0.5t38 -1.5q21 4 25 16q4 13 -6 25q-16 11 -24 13l-10 5q-9 7 -10 11q-4 7 -6.5 12.5t-4.5 10.5q-3 8 -5 14t-3 10q-3 10 6 45q2 10 2 48q0 4 1 12.5t1 12.5q3 16 3 22l-2 25q0 4 -2 12.5t-2 10.5v30 q-1 1 -1 19q0 3 -1.5 9.5t-1.5 8.5q0 6 2 19t2 18l6 270q2 92 -12 106q-9 8 -28 4zM472 677q10 -8 24 -33q25 -28 53 -24q29 5 41 24q7 13 -4 27q-17 11 -24 11q-12 4 -20 19q-26 32 -38 37t-22 5q-33 0 -58 -18q-57 -41 -57 -210v-38q2 -14 3 -27t1 -24q0 -44 -14 -55 q-3 -3 -10 -4t-14.5 -2.5t-14.5 -4t-10 -6.5q-2 -2 -3 -15q-2 -14 0 -15q6 -12 26 -17q22 -6 27 -8q14 -11 14 -47q0 -12 -1.5 -27l-1.5 -15l7 -75v-152q3 -35 -6 -78q-6 -29 -13 -40q-8 -12 -14 -22t-11 -18q-1 -8 1 -15q7 -12 24 -12q20 0 46 17q65 42 65 131 q0 6 -0.5 19.5t-1.5 34.5l-8 166q-6 131 16 144q20 2 38 3.5t35 1.5q14 6 16 24q1 19 -12 25h-38q-27 0 -38 7q-18 10 -20 51q0 10 -3.5 25t-3.5 28v93v5t1 8v12v36q0 2 5 24q6 20 13 24h5zM214 677q10 -8 24 -33q25 -28 53 -24q29 5 41 24q7 13 -4 27q-17 11 -24 11 q-12 4 -20 19q-26 32 -38 37t-22 5q-33 0 -58 -18q-57 -41 -57 -210v-38q2 -14 3 -27t1 -24q0 -44 -14 -55q-3 -3 -10 -4t-14.5 -2.5t-14.5 -4t-10 -6.5q-2 -2 -3 -15q-2 -14 0 -15q6 -12 26 -17q22 -6 27 -8q14 -11 14 -47q0 -12 -1.5 -27l-1.5 -15l7 -75v-152 q3 -35 -6 -78q-6 -29 -13 -40q-8 -12 -14 -22t-11 -18q-1 -8 1 -15q7 -12 24 -12q20 0 46 17q65 42 65 131q0 6 -0.5 19.5t-1.5 34.5l-8 166q-6 131 16 144q20 2 38 3.5t35 1.5q14 6 16 24q1 19 -12 25h-38q-27 0 -38 7q-18 10 -20 51q0 10 -3.5 25t-3.5 28v93v5t1 8v12v36 q0 2 5 24q6 20 13 24h5z" />
</font>
</defs>
</svg>
